<?xml version="1.0" encoding="utf-8"?>
<!-- Generator: Adobe Illustrator 27.0.0, SVG Export Plug-In . SVG Version: 6.00 Build 0)  -->
<svg version="1.1" id="Layer_1" xmlns="http://www.w3.org/2000/svg" xmlns:xlink="http://www.w3.org/1999/xlink" x="0px" y="0px"
	 viewBox="0 0 8192 2627" style="enable-background:new 0 0 8192 2627;" xml:space="preserve">
<style type="text/css">
	.st0{fill:#32A849;}
	.st1{fill:#231F20;}
	.st2{enable-background:new    ;}
	.st3{fill:#FFFFFF;}
	.st4{fill:none;}
</style>
<path class="st0" d="M0,2627v-220.5c0,0,1075.5-370.4,2378.3-120.1c0,0,1550.7,310.8,1734.6,340.7L0,2627L0,2627z"/>
<path class="st0" d="M8192,2627H4403.9l-1497.3-477.5c0,0,781.1-594.6,2250-198.2c0,0,1768.6,551.1,3035.2,269.8V2627H8192
	L8192,2627z"/>
<path class="st1" d="M0,2235.3v-220.5c0,0,151.2-52.1,408.9-104.1c834.1-167.9,1697.9-108.4,2503.4,165.6L4531.8,2627h-349.9
	C4181.9,2627,1910.9,1880.2,0,2235.3z"/>
<g>
	<g>
		<g class="st2">
			<path class="st1" d="M881.1,1168.1h-27.7v28.4h-19.3v-28.4h-27.7v-17.9h27.7v-28.4h19.3v28.4h27.7V1168.1z"/>
			<path class="st1" d="M930,1191.2c2.8,2.3,6.5,3.4,11.2,3.4c6.1,0,10.5-2.5,13.2-7.6c2.7-5,4.1-13.5,4.1-25.4
				c-2.3,3.1-5.4,5.6-9.5,7.3c-4.1,1.8-8.4,2.6-13.1,2.6c-6.3,0-11.9-1.3-16.9-3.9s-9-6.4-11.9-11.6s-4.4-11.4-4.4-18.7
				c0-10.9,3.2-19.5,9.7-25.9s15.2-9.6,26.4-9.6c13.9,0,23.7,4.4,29.4,13.3s8.6,22.3,8.6,40.2c0,12.7-1.1,23.1-3.3,31.2
				s-6,14.3-11.3,18.5s-12.6,6.3-21.8,6.3c-7.2,0-13.4-1.4-18.5-4.2c-5.1-2.8-9-6.4-11.6-11c-2.7-4.6-4.2-9.6-4.6-15h19.1
				C925.4,1185.6,927.2,1188.9,930,1191.2z M952.2,1150.2c2.9-3.1,4.4-7.3,4.4-12.6c0-5.8-1.5-10.2-4.6-13.4
				c-3.1-3.2-7.3-4.8-12.5-4.8c-5.3,0-9.5,1.6-12.5,4.9c-3.1,3.3-4.6,7.6-4.6,13c0,5.2,1.5,9.4,4.5,12.7c3,3.3,7.4,4.9,13.4,4.9
				C945.3,1154.9,949.3,1153.4,952.2,1150.2z"/>
			<path class="st1" d="M1060.7,1120l-39,91.3h-20.8l39.3-89H990v-17.6h70.7V1120L1060.7,1120z"/>
			<path class="st1" d="M1070.5,1123.4v-18.9h35.3v106.9h-21.1v-87.9L1070.5,1123.4L1070.5,1123.4z"/>
			<path class="st1" d="M1232.8,1122.2h-47.5v25.1c2.1-2.5,5-4.6,8.8-6.2s7.9-2.4,12.2-2.4c7.8,0,14.2,1.7,19.2,5.1
				s8.6,7.8,10.8,13.1c2.3,5.3,3.4,11,3.4,17.1c0,11.2-3.2,20.3-9.6,27.1c-6.4,6.8-15.5,10.3-27.3,10.3c-11.1,0-20-2.8-26.7-8.4
				c-6.6-5.6-10.4-12.9-11.3-21.8h19.9c0.9,3.9,2.9,7,5.9,9.4c3.1,2.3,7,3.5,11.8,3.5c5.8,0,10.1-1.8,13-5.4s4.4-8.4,4.4-14.4
				c0-6.1-1.5-10.7-4.5-13.9c-3-3.2-7.4-4.8-13.1-4.8c-4.1,0-7.5,1-10.3,3.1c-2.7,2.1-4.7,4.8-5.9,8.2h-19.6v-62.7h66.3
				L1232.8,1122.2L1232.8,1122.2z"/>
			<path class="st1" d="M1261.8,1188.2c9.4-7.8,16.9-14.3,22.4-19.6c5.6-5.2,10.2-10.7,13.9-16.3c3.7-5.7,5.6-11.2,5.6-16.7
				c0-5-1.2-8.9-3.5-11.7c-2.3-2.8-6-4.2-10.8-4.2c-4.9,0-8.7,1.6-11.3,4.9c-2.6,3.3-4,7.7-4.1,13.4h-20
				c0.4-11.7,3.9-20.6,10.5-26.7s15-9.1,25.1-9.1c11.1,0,19.7,3,25.6,8.9c6,5.9,8.9,13.7,8.9,23.4c0,7.6-2.1,14.9-6.2,21.8
				s-8.8,13-14.1,18.1c-5.3,5.1-12.2,11.3-20.7,18.6h43.2v17h-72.4v-15.3L1261.8,1188.2z"/>
			<path class="st1" d="M1373.5,1190.5v-16.1l47.9-68.6h23.9v66.8h12.9v17.9h-12.9v20.8h-20.5v-20.8L1373.5,1190.5L1373.5,1190.5z
				 M1426.1,1127.8l-30.1,44.9h30.1V1127.8z"/>
			<path class="st1" d="M1470.4,1190.5v-16.1l47.9-68.6h23.9v66.8h12.9v17.9h-12.9v20.8h-20.5v-20.8L1470.4,1190.5L1470.4,1190.5z
				 M1523,1127.8l-30.1,44.9h30.1V1127.8z"/>
			<path class="st1" d="M1597.2,1191.2c2.8,2.3,6.5,3.4,11.2,3.4c6.1,0,10.5-2.5,13.2-7.6c2.7-5,4.1-13.5,4.1-25.4
				c-2.3,3.1-5.4,5.6-9.5,7.3c-4.1,1.8-8.4,2.6-13.1,2.6c-6.3,0-11.9-1.3-16.9-3.9s-9-6.4-11.9-11.6s-4.4-11.4-4.4-18.7
				c0-10.9,3.2-19.5,9.7-25.9c6.4-6.4,15.2-9.6,26.4-9.6c13.9,0,23.7,4.4,29.4,13.3c5.7,8.9,8.6,22.3,8.6,40.2
				c0,12.7-1.1,23.1-3.3,31.2c-2.2,8.1-6,14.3-11.3,18.5s-12.6,6.3-21.8,6.3c-7.2,0-13.4-1.4-18.5-4.2c-5.1-2.8-9-6.4-11.6-11
				c-2.7-4.6-4.2-9.6-4.6-15h19.1C1592.7,1185.6,1594.4,1188.9,1597.2,1191.2z M1619.4,1150.2c2.9-3.1,4.4-7.3,4.4-12.6
				c0-5.8-1.5-10.2-4.6-13.4c-3.1-3.2-7.3-4.8-12.5-4.8c-5.3,0-9.5,1.6-12.5,4.9c-3.1,3.3-4.6,7.6-4.6,13c0,5.2,1.5,9.4,4.5,12.7
				c3,3.3,7.4,4.9,13.4,4.9C1612.5,1154.9,1616.5,1153.4,1619.4,1150.2z"/>
			<path class="st1" d="M1745.1,1121.9c-2.4-2.1-5.8-3.1-10.3-3.1c-6.7,0-11.7,2.7-14.9,8.1c-3.2,5.4-4.8,14.2-4.9,26.5
				c2.3-3.9,5.8-7,10.3-9.2s9.4-3.3,14.7-3.3c6.3,0,12,1.4,16.9,4.1s8.7,6.7,11.4,11.9s4.1,11.5,4.1,18.8c0,6.9-1.4,13.1-4.2,18.5
				c-2.8,5.4-6.9,9.7-12.2,12.7c-5.4,3-11.8,4.5-19.2,4.5c-10.2,0-18.2-2.2-24-6.7s-9.9-10.8-12.2-18.8c-2.3-8.1-3.4-18-3.4-29.8
				c0-17.9,3.1-31.4,9.2-40.5c6.2-9.1,15.9-13.7,29.2-13.7c10.3,0,18.2,2.8,23.9,8.4c5.7,5.6,8.9,12.5,9.8,20.8h-19.1
				C1749.2,1127.1,1747.5,1124,1745.1,1121.9z M1722.2,1162.4c-3.5,3-5.3,7.4-5.3,13.2c0,5.8,1.6,10.3,4.9,13.6
				c3.3,3.3,7.9,5,13.9,5c5.3,0,9.5-1.6,12.5-4.8c3.1-3.2,4.6-7.6,4.6-13c0-5.7-1.5-10.2-4.5-13.5s-7.4-5-13.1-5
				C1730.1,1157.8,1725.7,1159.4,1722.2,1162.4z"/>
			<path class="st1" d="M1786.1,1123.4v-18.9h35.3v106.9h-21.1v-87.9L1786.1,1123.4L1786.1,1123.4z"/>
			<path class="st1" d="M1909.7,1120l-39,91.3h-20.8l39.3-89H1839v-17.6h70.7V1120L1909.7,1120z"/>
			<path class="st1" d="M1932.6,1110c6.4-5.3,14.8-8,25.3-8c7.1,0,13.2,1.3,18.3,3.7c5.1,2.5,8.9,5.9,11.5,10.1s3.9,9.1,3.9,14.4
				c0,6.2-1.6,11.4-4.8,15.6c-3.2,4.3-7,7.1-11.4,8.6v0.6c5.7,1.8,10.1,4.9,13.3,9.4c3.2,4.5,4.8,10.3,4.8,17.3
				c0,5.9-1.3,11.1-4,15.7s-6.6,8.2-11.9,10.8c-5.2,2.6-11.5,3.9-18.8,3.9c-11,0-20-2.8-27-8.4c-6.9-5.6-10.6-13.8-11-24.6h19.9
				c0.2,4.8,1.8,8.6,4.9,11.5s7.3,4.3,12.7,4.3c5,0,8.8-1.4,11.5-4.2c2.7-2.8,4-6.4,4-10.8c0-5.9-1.9-10.1-5.6-12.6
				s-9.5-3.8-17.3-3.8h-4.3v-16.9h4.3c13.9,0,20.8-4.6,20.8-13.9c0-4.2-1.3-7.5-3.7-9.8c-2.5-2.3-6.1-3.5-10.8-3.5
				c-4.6,0-8.1,1.3-10.6,3.7c-2.5,2.5-3.9,5.6-4.3,9.5h-20.1C1922.8,1122.9,1926.2,1115.3,1932.6,1110z"/>
		</g>
		<g>
			<path class="st1" d="M2428.7,1116.8c6.1-9.6,16.2-14.4,30.4-14.4s24.3,4.8,30.4,14.4c6.1,9.6,9.2,22.8,9.2,39.7
				c0,17-3.1,30.3-9.2,40c-6.1,9.7-16.2,14.5-30.4,14.5s-24.3-4.8-30.4-14.5c-6.1-9.7-9.2-23-9.2-40
				C2419.5,1139.6,2422.6,1126.4,2428.7,1116.8z M2477.1,1138.3c-0.9-4.9-2.8-9-5.6-12.1s-6.9-4.7-12.4-4.7s-9.6,1.6-12.4,4.7
				c-2.8,3.1-4.6,7.2-5.6,12.1c-0.9,4.9-1.4,11-1.4,18.3c0,7.4,0.4,13.7,1.3,18.7c0.9,5,2.7,9.1,5.6,12.2c2.8,3.1,7,4.6,12.5,4.6
				s9.6-1.5,12.5-4.6c2.8-3.1,4.7-7.1,5.6-12.2c0.9-5,1.3-11.3,1.3-18.7C2478.5,1149.3,2478,1143.2,2477.1,1138.3z"/>
			<path class="st1" d="M2513.3,1190.5v-16.1l47.9-68.6h23.9v66.8h12.9v17.9h-12.9v20.8h-20.5v-20.8L2513.3,1190.5L2513.3,1190.5z
				 M2566,1127.8l-30.1,44.9h30.1V1127.8z"/>
			<path class="st1" d="M2621.7,1110c6.4-5.3,14.8-8,25.3-8c7.1,0,13.2,1.3,18.3,3.7c5.1,2.5,8.9,5.9,11.5,10.1s3.9,9.1,3.9,14.4
				c0,6.2-1.6,11.4-4.8,15.6c-3.2,4.3-7,7.1-11.4,8.6v0.6c5.7,1.8,10.1,4.9,13.3,9.4s4.8,10.3,4.8,17.3c0,5.9-1.3,11.1-4,15.7
				s-6.6,8.2-11.9,10.8c-5.2,2.6-11.5,3.9-18.8,3.9c-11,0-20-2.8-27-8.4c-6.9-5.6-10.6-13.8-11-24.6h19.9c0.2,4.8,1.8,8.6,4.9,11.5
				c3.1,2.9,7.3,4.3,12.7,4.3c5,0,8.8-1.4,11.5-4.2c2.7-2.8,4-6.4,4-10.8c0-5.9-1.9-10.1-5.6-12.6c-3.7-2.5-9.5-3.8-17.3-3.8h-4.3
				v-16.9h4.3c13.9,0,20.8-4.6,20.8-13.9c0-4.2-1.3-7.5-3.7-9.8c-2.5-2.3-6.1-3.5-10.8-3.5c-4.6,0-8.1,1.3-10.6,3.7
				c-2.5,2.5-3.9,5.6-4.3,9.5h-20.1C2611.9,1122.9,2615.3,1115.3,2621.7,1110z"/>
			<path class="st1" d="M2766.9,1120l-39,91.3h-20.8l39.3-89h-50.1v-17.6h70.7L2766.9,1120L2766.9,1120z"/>
			<path class="st1" d="M2851.1,1122.2h-47.5v25.1c2.1-2.5,5-4.6,8.8-6.2s7.9-2.4,12.2-2.4c7.8,0,14.2,1.7,19.2,5.1
				s8.6,7.8,10.8,13.1c2.3,5.3,3.4,11,3.4,17.1c0,11.2-3.2,20.3-9.6,27.1c-6.4,6.8-15.5,10.3-27.3,10.3c-11.1,0-20-2.8-26.7-8.4
				c-6.6-5.6-10.4-12.9-11.3-21.8h19.9c0.9,3.9,2.9,7,5.9,9.4c3.1,2.3,7,3.5,11.8,3.5c5.8,0,10.1-1.8,13-5.4s4.4-8.4,4.4-14.4
				c0-6.1-1.5-10.7-4.5-13.9c-3-3.2-7.4-4.8-13.1-4.8c-4.1,0-7.5,1-10.3,3.1c-2.7,2.1-4.7,4.8-5.9,8.2h-19.6v-62.7h66.3
				L2851.1,1122.2L2851.1,1122.2z"/>
			<path class="st1" d="M2924,1121.9c-2.4-2.1-5.8-3.1-10.3-3.1c-6.7,0-11.7,2.7-14.9,8.1s-4.8,14.2-4.9,26.5
				c2.3-3.9,5.8-7,10.3-9.2s9.4-3.3,14.7-3.3c6.3,0,12,1.4,16.9,4.1s8.7,6.7,11.4,11.9s4.1,11.5,4.1,18.8c0,6.9-1.4,13.1-4.2,18.5
				s-6.9,9.7-12.2,12.7c-5.4,3-11.8,4.5-19.2,4.5c-10.2,0-18.2-2.2-24-6.7s-9.9-10.8-12.2-18.8c-2.3-8.1-3.4-18-3.4-29.8
				c0-17.9,3.1-31.4,9.2-40.5c6.2-9.1,15.9-13.7,29.2-13.7c10.3,0,18.2,2.8,23.9,8.4s8.9,12.5,9.8,20.8h-19.1
				C2928.1,1127.1,2926.4,1124,2924,1121.9z M2901.1,1162.4c-3.5,3-5.3,7.4-5.3,13.2c0,5.8,1.6,10.3,4.9,13.6c3.3,3.3,7.9,5,13.9,5
				c5.3,0,9.5-1.6,12.5-4.8c3.1-3.2,4.6-7.6,4.6-13c0-5.7-1.5-10.2-4.5-13.5s-7.4-5-13.1-5
				C2908.9,1157.8,2904.6,1159.4,2901.1,1162.4z"/>
			<path class="st1" d="M2966.6,1190.5v-16.1l47.9-68.6h23.9v66.8h12.9v17.9h-12.9v20.8h-20.5v-20.8L2966.6,1190.5L2966.6,1190.5z
				 M3019.2,1127.8l-30.1,44.9h30.1V1127.8z"/>
			<path class="st1" d="M3075,1110c6.4-5.3,14.8-8,25.3-8c7.1,0,13.2,1.3,18.3,3.7c5.1,2.5,8.9,5.9,11.5,10.1s3.9,9.1,3.9,14.4
				c0,6.2-1.6,11.4-4.8,15.6c-3.2,4.3-7,7.1-11.4,8.6v0.6c5.7,1.8,10.1,4.9,13.3,9.4s4.8,10.3,4.8,17.3c0,5.9-1.3,11.1-4,15.7
				s-6.6,8.2-11.9,10.8c-5.2,2.6-11.5,3.9-18.8,3.9c-11,0-20-2.8-27-8.4c-6.9-5.6-10.6-13.8-11-24.6h19.9c0.2,4.8,1.8,8.6,4.9,11.5
				c3.1,2.9,7.3,4.3,12.7,4.3c5,0,8.8-1.4,11.5-4.2c2.7-2.8,4-6.4,4-10.8c0-5.9-1.9-10.1-5.6-12.6c-3.7-2.5-9.5-3.8-17.3-3.8h-4.3
				v-16.9h4.3c13.9,0,20.8-4.6,20.8-13.9c0-4.2-1.3-7.5-3.7-9.8c-2.5-2.3-6.1-3.5-10.8-3.5c-4.6,0-8.1,1.3-10.6,3.7
				c-2.5,2.5-3.9,5.6-4.3,9.5h-20.1C3065.1,1122.9,3068.6,1115.3,3075,1110z"/>
			<path class="st1" d="M3224,1122.2h-47.5v25.1c2.1-2.5,5-4.6,8.8-6.2s7.9-2.4,12.2-2.4c7.8,0,14.2,1.7,19.2,5.1s8.6,7.8,10.8,13.1
				c2.3,5.3,3.4,11,3.4,17.1c0,11.2-3.2,20.3-9.6,27.1c-6.4,6.8-15.5,10.3-27.3,10.3c-11.1,0-20-2.8-26.7-8.4
				c-6.6-5.6-10.4-12.9-11.3-21.8h19.9c0.9,3.9,2.9,7,5.9,9.4c3.1,2.3,7,3.5,11.8,3.5c5.8,0,10.1-1.8,13-5.4s4.4-8.4,4.4-14.4
				c0-6.1-1.5-10.7-4.5-13.9c-3-3.2-7.4-4.8-13.1-4.8c-4.1,0-7.5,1-10.3,3.1c-2.7,2.1-4.7,4.8-5.9,8.2h-19.6v-62.7h66.3L3224,1122.2
				L3224,1122.2z"/>
		</g>
		<path class="st0" d="M566.5,1058.8V1257h198.1v-198.2H566.5z M728.5,1201l-18.3,18.2c-0.8,0.9-2,1.7-3.3,2.3
			c-1.3,0.7-2.6,1-3.9,1.2c-0.1,0-0.4,0-0.8,0.1c-0.5,0-1,0.1-1.8,0.1c-1.7,0-4.6-0.3-8.5-0.9s-8.6-2.1-14.4-4.4
			c-5.6-2.3-12-5.9-19.2-10.6s-14.8-11.1-22.9-19.3c-6.4-6.3-11.7-12.4-15.9-18.2c-4.2-5.7-7.6-11.1-10.2-16.1s-4.4-9.4-5.7-13.3
			c-1.3-4-2.2-7.4-2.6-10.3c-0.5-2.9-0.7-5.2-0.5-6.8c0.1-1.7,0.1-2.6,0.1-2.7c0.1-1.3,0.7-2.6,1.2-3.9c0.7-1.3,1.4-2.3,2.3-3.3
			l18.3-18.3c1.3-1.3,2.7-2,4.4-2c1.2,0,2.2,0.4,3.1,1c0.9,0.7,1.7,1.6,2.3,2.6l14.8,27.9c0.8,1.4,1,3.1,0.7,4.8
			c-0.4,1.7-1.2,3.3-2.3,4.4l-6.8,6.8c-0.1,0.1-0.4,0.5-0.5,0.9s-0.3,0.8-0.3,1c0.4,2,1.2,4.2,2.5,6.7c1,2.2,2.7,4.8,5.1,8.1
			c2.3,3.1,5.6,6.8,9.8,11s7.8,7.4,11,9.8c3.3,2.3,5.9,4,8.1,5.2c2.2,1,3.8,1.8,5,2l1.7,0.4c0.1,0,0.5-0.1,0.9-0.3
			c0.4-0.1,0.7-0.3,0.9-0.5l7.8-8c1.7-1.4,3.5-2.2,5.7-2.2c1.6,0,2.7,0.3,3.7,0.8h0.1l26.5,15.7c2,1.2,3.1,2.7,3.4,4.6
			C730.8,1197.6,730.1,1199.4,728.5,1201z"/>
		<g>
			<path class="st0" d="M2265.3,1152.7c-11.6,0-21.2,9.4-21.2,21c0,11.7,9.4,21.3,21.2,21.3c11.5,0,21-9.4,21.2-20.9
				C2286.4,1162.2,2277,1152.7,2265.3,1152.7z M2265.3,1189.5c-8.7,0-15.7-7-15.7-15.9c0-8.5,7.2-15.4,15.7-15.4
				c8.7,0,15.7,7,15.5,15.8C2280.9,1182.6,2273.8,1189.5,2265.3,1189.5z"/>
			<path class="st0" d="M2166.3,1056.3v198.1h198.1v-198.1H2166.3z M2302.4,1206.5c-12.3,0-24.7,0-37,0s-24.5,0-36.8,0
				c-6.1,0-11.2-4.2-12.4-10.2c-0.4-1.8-0.3-3.8,0.1-5.6c1.7-8.4,3.4-16.8,5-25.2c0.9-4.6,4.4-8.1,9-9c2.2-0.4,4.4-0.9,6.7-1.4
				c5.4-1.2,9.3-6.1,9-11.6c-0.1-2.9-0.4-5.7-0.7-8.6c0-0.5,0.1-0.7,0.5-0.9c6.1-2.6,12.7-4,19.3-4.2c4.4-0.1,8.7,0.5,12.9,1.8
				c2.3,0.7,4.7,1.6,7,2.3c0.4,0.1,0.4,0.3,0.4,0.7c-0.3,2.9-0.5,5.9-0.7,8.7c-0.3,5.5,3.7,10.4,9,11.5c2.2,0.5,4.6,0.9,6.8,1.4
				c4.6,0.9,8,4.6,8.9,9c1.7,8.6,3.4,17.2,5.1,26C2316.2,1199.3,2310.3,1206.5,2302.4,1206.5z M2329.1,1144.6
				c-1.3,4.6-3.7,8.6-7,11.9c-1.7,1.7-3.9,2.1-6.3,1.7c-1.7-0.3-3.3-0.9-4.8-1.7c-6.1-3.1-12.4-6.3-18.3-9.9c-1.3-0.8-2-2-2.1-3.5
				c-0.1-2.1,0.5-4,1-6c0.5-1.6,0.9-3.1,1.2-4.7c0.3-1-0.3-2-1.2-2.6c-2.2-1.4-4.8-2.2-7.4-2.9c-6.1-1.7-12.4-2.5-18.7-2.6
				c-6,0-12,0.8-17.8,2.3c-1.6,0.4-3.1,0.8-4.6,1.2c-1.3,0.4-2.6,0.9-3.8,1.7c-0.9,0.7-1.3,1.4-1.3,2.6s0.3,2.3,0.7,3.4
				c0.7,1.7,1.3,3.5,1.4,5.4c0,0.8,0,1.7,0,2.5c-0.1,1.2-0.7,2.1-1.7,2.7c-2.2,1.4-4.6,2.9-7,4.2c-2.7,1.3-5.4,2.9-8.1,4.2
				c-2.7,1.3-5.5,2.6-8.4,3.5c-0.7,0.3-1.3,0.4-2,0.4c-1.2,0.1-2.2-0.3-3.1-0.9c-2.3-1.8-4.2-4-5.6-6.7c-2.5-4.4-3.7-9.3-3.4-14.4
				c0.3-4.8,2-9,4.8-12.8c3.7-4.8,8.1-8.6,13.4-11.4c3-1.4,6.1-2.5,9.3-3.4c7.4-2.3,15.1-3.7,22.9-4.2c8.7-0.7,17.4-0.8,26.1-0.1
				c7.7,0.5,15.3,1.6,22.7,3.7c5.6,1.6,11,3.5,15.9,6.7c5.4,3.4,9.4,8,11.9,13.7C2330,1133.7,2330.7,1139.1,2329.1,1144.6z"/>
		</g>
	</g>
	<g>
		<g class="st2">
			<path class="st1" d="M991.7,1426.4l-28.6,102.3h-24.2l-19.2-72.8l-20.1,72.8l-24,0.1L848,1426.4h22l18,79.5l20.8-79.5h22.9
				l19.6,79l18.2-79H991.7L991.7,1426.4z"/>
			<path class="st1" d="M1004.6,1466c3.3-6.3,7.7-11.2,13.3-14.7c5.6-3.4,11.9-5.1,18.8-5.1c6.1,0,11.4,1.2,15.9,3.7
				c4.5,2.4,8.2,5.5,10.9,9.2v-11.6h20.7v81.2h-20.7v-11.9c-2.6,3.8-6.3,7-10.9,9.4c-4.6,2.5-10,3.7-16,3.7
				c-6.8,0-13.1-1.7-18.7-5.3c-5.6-3.5-10.1-8.5-13.3-14.9c-3.3-6.4-4.9-13.8-4.9-22.1C999.7,1479.7,1001.4,1472.4,1004.6,1466z
				 M1060.7,1475.3c-2-3.6-4.6-6.3-7.9-8.2c-3.3-1.9-6.9-2.9-10.7-2.9s-7.3,0.9-10.6,2.8c-3.2,1.9-5.8,4.6-7.8,8.1
				c-2,3.6-3,7.8-3,12.7s1,9.2,3,12.8c2,3.7,4.6,6.5,7.9,8.4c3.3,2,6.8,2.9,10.5,2.9c3.8,0,7.4-0.9,10.7-2.9c3.3-1.9,6-4.6,7.9-8.2
				c2-3.6,2.9-7.8,2.9-12.8C1063.6,1483.2,1062.7,1478.9,1060.7,1475.3z"/>
			<path class="st1" d="M1135.2,1450c4.3-2.4,9.1-3.7,14.6-3.7v21.6h-5.4c-6.4,0-11.3,1.5-14.6,4.6c-3.3,3-4.9,8.3-4.9,15.8v40.5
				h-20.5v-81.2h20.5v12.6C1127.5,1455.9,1131,1452.5,1135.2,1450z"/>
			<path class="st1" d="M1238.5,1494.3h-59.4c0.5,5.9,2.5,10.5,6.2,13.8c3.6,3.3,8.1,5,13.3,5c7.6,0,13-3.3,16.3-9.8h22.1
				c-2.3,7.8-6.8,14.2-13.5,19.3c-6.6,5-14.8,7.6-24.5,7.6c-7.8,0-14.8-1.7-21-5.2s-11-8.4-14.5-14.7c-3.5-6.3-5.2-13.7-5.2-22
				c0-8.4,1.7-15.8,5.1-22.1c3.4-6.3,8.2-11.2,14.4-14.7c6.2-3.4,13.2-5.1,21.3-5.1c7.7,0,14.6,1.7,20.7,5s10.8,8,14.2,14.1
				c3.4,6.1,5.1,13.1,5.1,21C1239.1,1489.3,1238.9,1492,1238.5,1494.3z M1217.8,1480.5c-0.1-5.3-2-9.5-5.7-12.7s-8.3-4.8-13.6-4.8
				c-5.1,0-9.4,1.5-12.8,4.6c-3.5,3.1-5.6,7.4-6.4,12.8L1217.8,1480.5L1217.8,1480.5z"/>
			<path class="st1" d="M1316.2,1450.4c4.8,2.7,8.5,6.6,11.2,11.9c2.7,5.2,4,11.5,4,18.8v47.6h-20.5v-44.9c0-6.4-1.6-11.4-4.8-14.9
				c-3.2-3.5-7.6-5.2-13.2-5.2c-5.7,0-10.1,1.7-13.4,5.2s-4.9,8.4-4.9,14.9v44.9H1254v-108.5h20.5v37.4c2.6-3.5,6.2-6.3,10.6-8.3
				s9.3-3,14.7-3C1305.9,1446.4,1311.4,1447.7,1316.2,1450.4z"/>
			<path class="st1" d="M1365.9,1524.9c-6.3-3.5-11.2-8.4-14.7-14.7c-3.6-6.3-5.3-13.7-5.3-22s1.8-15.6,5.5-22
				c3.7-6.3,8.7-11.3,15-14.7c6.3-3.5,13.4-5.2,21.3-5.2c7.8,0,14.9,1.7,21.3,5.2s11.4,8.4,15,14.7c3.7,6.4,5.5,13.7,5.5,22
				s-1.9,15.6-5.6,22c-3.8,6.3-8.9,11.3-15.2,14.7c-6.4,3.5-13.6,5.2-21.5,5.2C1379.2,1530.1,1372.1,1528.3,1365.9,1524.9z
				 M1397.5,1509.5c3.3-1.8,5.9-4.5,7.8-8.1c2-3.6,2.9-8,2.9-13.2c0-7.7-2-13.7-6.1-17.8s-9-6.2-14.9-6.2s-10.8,2.1-14.7,6.2
				c-4,4.2-5.9,10.1-5.9,17.8c0,7.7,1.9,13.7,5.8,17.8c3.9,4.2,8.7,6.2,14.6,6.2C1390.7,1512.2,1394.2,1511.3,1397.5,1509.5z"/>
			<path class="st1" d="M1521.1,1447.5v81.2h-20.7v-10.3c-2.6,3.5-6.1,6.3-10.3,8.3c-4.3,2-8.9,3-13.8,3c-6.4,0-12-1.3-16.9-4
				s-8.7-6.6-11.5-11.9s-4.2-11.4-4.2-18.7v-47.6h20.5v44.7c0,6.4,1.6,11.4,4.8,14.9c3.2,3.5,7.6,5.2,13.2,5.2
				c5.7,0,10.1-1.7,13.3-5.2c3.2-3.5,4.8-8.4,4.8-14.9v-44.7H1521.1L1521.1,1447.5z"/>
			<path class="st1" d="M1554.5,1526.5c-5.3-2.4-9.5-5.6-12.5-9.8c-3.1-4.1-4.8-8.6-5.1-13.6h20.7c0.4,3.1,1.9,5.7,4.6,7.8
				c2.7,2,6,3.1,10,3.1c3.9,0,7-0.8,9.2-2.3c2.2-1.6,3.3-3.6,3.3-6c0-2.6-1.3-4.6-4-5.9s-7-2.8-12.8-4.3c-6.1-1.5-11-3-14.9-4.5
				c-3.9-1.6-7.2-4-10-7.2s-4.2-7.6-4.2-13c0-4.5,1.3-8.6,3.9-12.3c2.6-3.7,6.3-6.7,11.1-8.8c4.8-2.2,10.5-3.2,17.1-3.2
				c9.7,0,17.4,2.4,23.2,7.3c5.8,4.8,8.9,11.4,9.5,19.6H1584c-0.3-3.2-1.6-5.8-4-7.7c-2.4-1.9-5.6-2.9-9.6-2.9
				c-3.7,0-6.6,0.7-8.6,2.1s-3,3.3-3,5.7c0,2.7,1.4,4.8,4.1,6.2c2.7,1.4,7,2.9,12.7,4.3c5.9,1.5,10.7,3,14.5,4.5
				c3.8,1.6,7.1,4,9.9,7.3s4.2,7.6,4.3,13c0,4.7-1.3,8.9-3.9,12.6s-6.3,6.6-11.1,8.7c-4.8,2.1-10.5,3.1-16.9,3.1
				C1565.8,1530.1,1559.8,1528.9,1554.5,1526.5z"/>
			<path class="st1" d="M1696.1,1494.3h-59.4c0.5,5.9,2.5,10.5,6.2,13.8c3.6,3.3,8.1,5,13.3,5c7.6,0,13-3.3,16.3-9.8h22.1
				c-2.3,7.8-6.8,14.2-13.5,19.3c-6.6,5-14.8,7.6-24.5,7.6c-7.8,0-14.8-1.7-21-5.2s-11-8.4-14.5-14.7c-3.5-6.3-5.2-13.7-5.2-22
				c0-8.4,1.7-15.8,5.1-22.1c3.4-6.3,8.2-11.2,14.4-14.7c6.2-3.4,13.2-5.1,21.3-5.1c7.7,0,14.6,1.7,20.7,5s10.8,8,14.2,14.1
				c3.4,6.1,5.1,13.1,5.1,21C1696.7,1489.3,1696.5,1492,1696.1,1494.3z M1675.5,1480.5c-0.1-5.3-2-9.5-5.7-12.7s-8.3-4.8-13.6-4.8
				c-5.1,0-9.4,1.5-12.8,4.6c-3.5,3.1-5.6,7.4-6.4,12.8L1675.5,1480.5L1675.5,1480.5z"/>
			<path class="st1" d="M1834.1,1528.8h-20.5l-46.5-70.2v70.2h-20.5v-102.5h20.5l46.5,70.4v-70.4h20.5V1528.8z"/>
			<path class="st1" d="M1869.2,1524.9c-6.3-3.5-11.2-8.4-14.7-14.7c-3.6-6.3-5.3-13.7-5.3-22s1.8-15.6,5.5-22
				c3.7-6.3,8.7-11.3,15-14.7c6.3-3.5,13.4-5.2,21.3-5.2c7.8,0,14.9,1.7,21.3,5.2s11.4,8.4,15,14.7c3.7,6.4,5.5,13.7,5.5,22
				s-1.9,15.6-5.6,22c-3.8,6.3-8.9,11.3-15.2,14.7c-6.4,3.5-13.6,5.2-21.5,5.2C1882.5,1530.1,1875.5,1528.3,1869.2,1524.9z
				 M1900.8,1509.5c3.3-1.8,5.9-4.5,7.8-8.1c2-3.6,2.9-8,2.9-13.2c0-7.7-2-13.7-6.1-17.8s-9-6.2-14.9-6.2s-10.8,2.1-14.7,6.2
				c-4,4.2-5.9,10.1-5.9,17.8c0,7.7,1.9,13.7,5.8,17.8c3.9,4.2,8.7,6.2,14.6,6.2C1894.1,1512.2,1897.5,1511.3,1900.8,1509.5z"/>
			<path class="st1" d="M1947.7,1526.3c-2.4-2.3-3.6-5.1-3.6-8.6c0-3.4,1.2-6.3,3.6-8.6c2.4-2.3,5.4-3.4,9.2-3.4
				c3.6,0,6.6,1.1,8.9,3.4s3.5,5.2,3.5,8.6s-1.2,6.3-3.5,8.6c-2.3,2.3-5.3,3.4-8.9,3.4C1953.2,1529.8,1950.1,1528.6,1947.7,1526.3z"
				/>
			<path class="st1" d="M1981.1,1440.8v-18.9h35.3v106.9h-21.1v-87.9L1981.1,1440.8L1981.1,1440.8z"/>
			<path class="st1" d="M2061.4,1507.2l-17.2,41.2H2031l9.5-41.2H2061.4z"/>
			<path class="st1" d="M2181.8,1473.5c-2.6,4.8-6.6,8.6-12.2,11.6c-5.5,2.9-12.5,4.4-20.9,4.4h-17.2v39.3H2111v-102.3h37.7
				c7.9,0,14.7,1.4,20.2,4.1c5.6,2.7,9.7,6.5,12.5,11.3s4.2,10.2,4.2,16.3C2185.7,1463.6,2184.4,1468.7,2181.8,1473.5z M2160.5,1469
				c2.7-2.6,4.1-6.2,4.1-10.9c0-10-5.6-15-16.7-15h-16.3v29.8h16.3C2153.5,1472.9,2157.8,1471.6,2160.5,1469z"/>
			<path class="st1" d="M2220.7,1420.3v108.5h-20.5v-108.5H2220.7z"/>
			<path class="st1" d="M2255.9,1524.9c-6.3-3.5-11.2-8.4-14.7-14.7c-3.6-6.3-5.3-13.7-5.3-22s1.8-15.6,5.5-22
				c3.7-6.3,8.7-11.3,15-14.7c6.3-3.5,13.4-5.2,21.3-5.2c7.8,0,14.9,1.7,21.3,5.2c6.4,3.5,11.4,8.4,15,14.7c3.7,6.4,5.5,13.7,5.5,22
				s-1.9,15.6-5.6,22c-3.8,6.3-8.9,11.3-15.2,14.7c-6.4,3.5-13.6,5.2-21.5,5.2C2269.2,1530.1,2262.2,1528.3,2255.9,1524.9z
				 M2287.5,1509.5c3.3-1.8,5.9-4.5,7.8-8.1c2-3.6,2.9-8,2.9-13.2c0-7.7-2-13.7-6.1-17.8c-4.1-4.2-9-6.2-14.9-6.2
				s-10.8,2.1-14.7,6.2c-4,4.2-5.9,10.1-5.9,17.8c0,7.7,1.9,13.7,5.8,17.8c3.9,4.2,8.7,6.2,14.6,6.2
				C2280.7,1512.2,2284.2,1511.3,2287.5,1509.5z"/>
			<path class="st1" d="M2358.4,1464.4v39.3c0,2.7,0.7,4.7,2,5.9c1.3,1.2,3.5,1.8,6.7,1.8h9.5v17.3h-12.9
				c-17.3,0-25.9-8.4-25.9-25.2v-39.1h-9.7v-16.9h9.7v-20.1h20.7v20.1h18.2v16.9L2358.4,1464.4L2358.4,1464.4z"/>
			<path class="st1" d="M2513.7,1528.8h-20.5l-46.5-70.2v70.2h-20.5v-102.5h20.5l46.5,70.4v-70.4h20.5V1528.8z"/>
			<path class="st1" d="M2548.9,1524.9c-6.3-3.5-11.2-8.4-14.7-14.7c-3.6-6.3-5.3-13.7-5.3-22s1.8-15.6,5.5-22
				c3.7-6.3,8.7-11.3,15-14.7c6.3-3.5,13.4-5.2,21.2-5.2s14.9,1.7,21.3,5.2c6.4,3.5,11.4,8.4,15,14.7c3.7,6.4,5.5,13.7,5.5,22
				s-1.9,15.6-5.6,22c-3.8,6.3-8.9,11.3-15.2,14.7c-6.4,3.5-13.6,5.2-21.5,5.2S2555.2,1528.3,2548.9,1524.9z M2580.5,1509.5
				c3.3-1.8,5.9-4.5,7.8-8.1c2-3.6,2.9-8,2.9-13.2c0-7.7-2-13.7-6.1-17.8s-9-6.2-14.9-6.2s-10.8,2.1-14.7,6.2
				c-4,4.2-5.9,10.1-5.9,17.8c0,7.7,1.9,13.7,5.8,17.8c3.9,4.2,8.7,6.2,14.6,6.2C2573.7,1512.2,2577.2,1511.3,2580.5,1509.5z"/>
			<path class="st1" d="M2627.4,1526.3c-2.4-2.3-3.6-5.1-3.6-8.6c0-3.4,1.2-6.3,3.6-8.6c2.4-2.3,5.4-3.4,9.2-3.4
				c3.6,0,6.6,1.1,8.9,3.4c2.3,2.3,3.5,5.2,3.5,8.6s-1.2,6.3-3.5,8.6c-2.3,2.3-5.3,3.4-8.9,3.4
				C2632.9,1529.8,2629.8,1528.6,2627.4,1526.3z"/>
			<path class="st1" d="M2704.6,1505.6c9.4-7.8,16.9-14.3,22.4-19.6s10.2-10.7,13.9-16.3c3.7-5.7,5.6-11.2,5.6-16.7
				c0-5-1.2-8.9-3.5-11.7c-2.3-2.8-6-4.2-10.8-4.2c-4.9,0-8.7,1.6-11.3,4.9s-4,7.7-4.1,13.4h-19.9c0.4-11.7,3.9-20.6,10.5-26.7
				s15-9.1,25.1-9.1c11.1,0,19.7,3,25.6,8.9c6,5.9,8.9,13.7,8.9,23.4c0,7.6-2.1,14.9-6.2,21.8c-4.1,6.9-8.8,13-14.1,18.1
				s-12.2,11.3-20.7,18.6h43.2v17H2697V1512L2704.6,1505.6z"/>
			<path class="st1" d="M2781.4,1507.9v-16.1l47.9-68.6h23.9v66.8h12.9v17.9h-12.9v20.8h-20.5v-20.8L2781.4,1507.9L2781.4,1507.9z
				 M2834,1445.2l-30.1,44.9h30.1V1445.2z"/>
			<path class="st1" d="M2947.2,1437.4l-39,91.3h-20.8l39.3-89h-50.1v-17.6h70.7L2947.2,1437.4L2947.2,1437.4z"/>
			<path class="st1" d="M3024.3,1467.8v17.3h-62.2v-17.3H3024.3z"/>
			<path class="st1" d="M3051.4,1505.6c9.4-7.8,16.9-14.3,22.4-19.6s10.2-10.7,13.9-16.3c3.7-5.7,5.6-11.2,5.6-16.7
				c0-5-1.2-8.9-3.5-11.7c-2.3-2.8-6-4.2-10.8-4.2c-4.9,0-8.7,1.6-11.3,4.9s-4,7.7-4.1,13.4h-19.9c0.4-11.7,3.9-20.6,10.5-26.7
				s15-9.1,25.1-9.1c11.1,0,19.7,3,25.6,8.9c6,5.9,8.9,13.7,8.9,23.4c0,7.6-2.1,14.9-6.2,21.8c-4.1,6.9-8.8,13-14.1,18.1
				s-12.2,11.3-20.7,18.6h43.2v17h-72.4V1512L3051.4,1505.6z"/>
			<path class="st1" d="M3132.3,1448.6c0-5.3,1.3-10.1,4-14.4s6.7-7.8,12.2-10.4c5.4-2.6,12-3.9,19.9-3.9s14.4,1.3,19.9,3.9
				c5.4,2.6,9.5,6.1,12.2,10.4s4,9.2,4,14.4c0,5.4-1.3,10.1-4,14.1c-2.6,4.1-6.2,7.2-10.6,9.5c5.4,2.3,9.6,5.8,12.6,10.3
				s4.5,9.8,4.5,16c0,6.7-1.7,12.4-5.1,17.4c-3.4,4.9-8,8.7-13.9,11.4c-5.9,2.6-12.5,4-19.8,4s-13.9-1.3-19.7-4
				c-5.8-2.6-10.4-6.4-13.8-11.4c-3.4-4.9-5.1-10.7-5.1-17.4c0-6.1,1.5-11.5,4.5-16c3-4.6,7.2-7.9,12.6-10.2
				C3137.2,1467.1,3132.3,1459.2,3132.3,1448.6z M3154.8,1485.4c-3.5,2.8-5.2,6.9-5.2,12.2c0,4.9,1.7,8.9,5.1,11.9
				c3.4,3.1,7.9,4.6,13.7,4.6s10.3-1.6,13.6-4.7s5-7.1,5-11.9c0-5.2-1.7-9.2-5.1-12.1c-3.4-2.9-7.9-4.3-13.5-4.3
				S3158.3,1482.5,3154.8,1485.4z M3180.2,1440.4c-2.9-2.6-6.8-4-11.8-4c-4.9,0-8.8,1.3-11.7,4c-2.9,2.6-4.3,6.4-4.3,11.3
				c0,4.4,1.5,7.9,4.5,10.6c3,2.6,6.8,4,11.5,4s8.6-1.3,11.6-4s4.5-6.2,4.5-10.6C3184.5,1446.7,3183.1,1443,3180.2,1440.4z"/>
			<path class="st1" d="M3252.4,1508.6c2.8,2.3,6.5,3.4,11.2,3.4c6.1,0,10.5-2.5,13.2-7.6c2.7-5,4.1-13.5,4.1-25.4
				c-2.3,3.1-5.4,5.6-9.5,7.3c-4.1,1.8-8.4,2.6-13.1,2.6c-6.3,0-11.9-1.3-16.9-3.9s-9-6.4-11.9-11.6c-2.9-5.1-4.4-11.4-4.4-18.7
				c0-10.9,3.2-19.5,9.7-25.9s15.2-9.6,26.4-9.6c13.9,0,23.7,4.4,29.4,13.3s8.6,22.3,8.6,40.2c0,12.7-1.1,23.1-3.3,31.2
				s-6,14.3-11.3,18.5s-12.6,6.3-21.8,6.3c-7.2,0-13.4-1.4-18.5-4.2c-5.1-2.8-9-6.4-11.6-11c-2.7-4.6-4.2-9.6-4.6-15h19.1
				C3247.9,1503,3249.6,1506.3,3252.4,1508.6z M3274.6,1467.6c2.9-3.1,4.4-7.3,4.4-12.6c0-5.8-1.5-10.2-4.6-13.4s-7.3-4.8-12.5-4.8
				c-5.3,0-9.5,1.6-12.5,4.9c-3.1,3.3-4.6,7.6-4.6,13c0,5.2,1.5,9.4,4.5,12.7c3,3.3,7.4,4.9,13.4,4.9
				C3267.7,1472.3,3271.7,1470.8,3274.6,1467.6z"/>
			<path class="st1" d="M3339.9,1507.2l-17.2,41.2h-13.2l9.5-41.2H3339.9z"/>
			<path class="st1" d="M3452.3,1509.3h-40.8l-6.7,19.5h-21.6l36.8-102.5h23.9l36.8,102.5H3459L3452.3,1509.3z M3446.7,1492.8
				l-14.8-42.8l-14.8,42.8H3446.7z"/>
			<path class="st1" d="M3515,1420.3v108.5h-20.5v-108.5H3515z"/>
			<path class="st1" d="M3646.4,1546.8l-15.5-18.6c-4.3,1.1-8.7,1.6-13.2,1.6c-9.6,0-18.4-2.2-26.4-6.7s-14.4-10.7-19.1-18.7
				c-4.7-8-7-17-7-27s2.3-18.9,7-26.9s11-14.2,19.1-18.7c8-4.5,16.8-6.7,26.4-6.7c9.7,0,18.5,2.2,26.5,6.7s14.3,10.7,18.9,18.7
				c4.6,8,7,16.9,7,26.9c0,9.1-1.9,17.4-5.8,24.9c-3.9,7.5-9.1,13.6-15.8,18.2l23.5,26.4L3646.4,1546.8L3646.4,1546.8z
				 M3590.2,1495.3c2.6,5.2,6.3,9.2,11.1,11.9c4.7,2.8,10.2,4.2,16.3,4.2s11.6-1.4,16.3-4.2c4.7-2.8,8.4-6.8,11-11.9
				c2.6-5.2,4-11.2,4-18s-1.3-12.8-4-18c-2.6-5.1-6.3-9.1-11-11.8c-4.7-2.7-10.1-4.1-16.3-4.1s-11.6,1.4-16.3,4.1
				s-8.4,6.7-11.1,11.8c-2.6,5.1-4,11.1-4,18C3586.3,1484.1,3587.6,1490.2,3590.2,1495.3z"/>
			<path class="st1" d="M3762.2,1447.5v81.2h-20.7v-10.3c-2.6,3.5-6.1,6.3-10.3,8.3c-4.3,2-8.9,3-13.8,3c-6.4,0-12-1.3-16.9-4
				s-8.7-6.6-11.5-11.9c-2.8-5.2-4.2-11.4-4.2-18.7v-47.6h20.5v44.7c0,6.4,1.6,11.4,4.8,14.9s7.6,5.2,13.2,5.2
				c5.7,0,10.1-1.7,13.3-5.2s4.8-8.4,4.8-14.9v-44.7H3762.2L3762.2,1447.5z"/>
			<path class="st1" d="M3795.6,1526.5c-5.3-2.4-9.5-5.6-12.5-9.8c-3.1-4.1-4.8-8.6-5.1-13.6h20.7c0.4,3.1,1.9,5.7,4.6,7.8
				c2.7,2,6,3.1,10,3.1c3.9,0,7-0.8,9.2-2.3c2.2-1.6,3.3-3.6,3.3-6c0-2.6-1.3-4.6-4-5.9s-7-2.8-12.8-4.3c-6.1-1.5-11-3-14.9-4.5
				c-3.9-1.6-7.2-4-10-7.2s-4.2-7.6-4.2-13c0-4.5,1.3-8.6,3.9-12.3c2.6-3.7,6.3-6.7,11.1-8.8c4.8-2.2,10.5-3.2,17.1-3.2
				c9.7,0,17.4,2.4,23.2,7.3c5.8,4.8,8.9,11.4,9.5,19.6h-19.6c-0.3-3.2-1.6-5.8-4-7.7c-2.4-1.9-5.6-2.9-9.6-2.9
				c-3.7,0-6.6,0.7-8.6,2.1s-3,3.3-3,5.7c0,2.7,1.4,4.8,4.1,6.2c2.7,1.4,7,2.9,12.7,4.3c5.9,1.5,10.7,3,14.5,4.5
				c3.8,1.6,7.1,4,9.9,7.3c2.8,3.3,4.2,7.6,4.3,13c0,4.7-1.3,8.9-3.9,12.6c-2.6,3.7-6.3,6.6-11.1,8.7s-10.5,3.1-16.9,3.1
				C3806.8,1530.1,3800.9,1528.9,3795.6,1526.5z"/>
			<path class="st1" d="M3861.9,1466c3.3-6.3,7.7-11.2,13.3-14.7c5.6-3.4,11.9-5.1,18.8-5.1c6.1,0,11.4,1.2,15.9,3.7
				c4.5,2.4,8.2,5.5,10.9,9.2v-11.6h20.7v81.2h-20.7v-11.9c-2.6,3.8-6.3,7-10.9,9.4c-4.6,2.5-10,3.7-16,3.7
				c-6.8,0-13.1-1.7-18.7-5.3c-5.6-3.5-10.1-8.5-13.3-14.9c-3.3-6.4-4.9-13.8-4.9-22.1C3857,1479.7,3858.6,1472.4,3861.9,1466z
				 M3918,1475.3c-2-3.6-4.6-6.3-7.9-8.2c-3.3-1.9-6.9-2.9-10.7-2.9s-7.3,0.9-10.6,2.8c-3.2,1.9-5.8,4.6-7.8,8.1
				c-2,3.6-3,7.8-3,12.7s1,9.2,3,12.8c2,3.7,4.6,6.5,7.9,8.4c3.3,2,6.8,2.9,10.5,2.9c3.8,0,7.4-0.9,10.7-2.9c3.3-1.9,6-4.6,7.9-8.2
				c2-3.6,2.9-7.8,2.9-12.8C3920.9,1483.2,3919.9,1478.9,3918,1475.3z"/>
			<path class="st1" d="M3963.1,1434.4c-2.4-2.3-3.6-5.2-3.6-8.6s1.2-6.3,3.6-8.6c2.4-2.3,5.4-3.4,9-3.4s6.6,1.2,9,3.4
				c2.4,2.3,3.6,5.2,3.6,8.6s-1.2,6.3-3.6,8.6c-2.4,2.3-5.4,3.5-9,3.5S3965.4,1436.7,3963.1,1434.4z M3982.2,1447.5v81.2h-20.5
				v-81.2H3982.2z"/>
			<path class="st1" d="M4015.6,1526.5c-5.3-2.4-9.5-5.6-12.5-9.8c-3.1-4.1-4.8-8.6-5.1-13.6h20.7c0.4,3.1,1.9,5.7,4.6,7.8
				c2.7,2,6,3.1,10,3.1c3.9,0,7-0.8,9.2-2.3c2.2-1.6,3.3-3.6,3.3-6c0-2.6-1.3-4.6-4-5.9s-7-2.8-12.8-4.3c-6.1-1.5-11-3-14.9-4.5
				c-3.9-1.6-7.2-4-10-7.2s-4.2-7.6-4.2-13c0-4.5,1.3-8.6,3.9-12.3c2.6-3.7,6.3-6.7,11.1-8.8c4.8-2.2,10.5-3.2,17.1-3.2
				c9.7,0,17.4,2.4,23.2,7.3c5.8,4.8,8.9,11.4,9.5,19.6h-19.6c-0.3-3.2-1.6-5.8-4-7.7c-2.4-1.9-5.6-2.9-9.6-2.9
				c-3.7,0-6.6,0.7-8.6,2.1s-3,3.3-3,5.7c0,2.7,1.4,4.8,4.1,6.2c2.7,1.4,7,2.9,12.7,4.3c5.9,1.5,10.7,3,14.5,4.5
				c3.8,1.6,7.1,4,9.9,7.3c2.8,3.3,4.2,7.6,4.3,13c0,4.7-1.3,8.9-3.9,12.6c-2.6,3.7-6.3,6.6-11.1,8.7s-10.5,3.1-16.9,3.1
				C4026.8,1530.1,4020.9,1528.9,4015.6,1526.5z"/>
			<path class="st1" d="M4137.7,1426.4v102.3h-20.5v-102.3H4137.7z"/>
			<path class="st1" d="M4226.4,1455.5c6,6.1,8.9,14.6,8.9,25.6v47.6h-20.5v-44.9c0-6.4-1.6-11.4-4.8-14.9
				c-3.2-3.5-7.6-5.2-13.2-5.2c-5.7,0-10.1,1.7-13.4,5.2s-4.9,8.4-4.9,14.9v44.9H4158v-81.2h20.5v10.1c2.7-3.5,6.2-6.3,10.5-8.3
				c4.2-2,8.9-3,14-3C4212.6,1446.4,4220.4,1449.4,4226.4,1455.5z"/>
			<path class="st1" d="M4254.4,1466c3.3-6.3,7.8-11.2,13.4-14.7c5.7-3.4,12-5.1,18.9-5.1c5.3,0,10.3,1.1,15.1,3.4
				c4.8,2.3,8.6,5.4,11.4,9.2v-38.6h20.8v108.5h-20.8v-12c-2.6,4-6.1,7.2-10.7,9.7c-4.6,2.4-9.9,3.7-16,3.7
				c-6.8,0-13.1-1.7-18.8-5.3c-5.7-3.5-10.1-8.5-13.4-14.9s-4.9-13.8-4.9-22.1C4249.5,1479.7,4251.2,1472.4,4254.4,1466z
				 M4310.5,1475.3c-2-3.6-4.6-6.3-7.9-8.2c-3.3-1.9-6.9-2.9-10.7-2.9s-7.3,0.9-10.5,2.8s-5.8,4.6-7.8,8.1c-2,3.6-3,7.8-3,12.7
				s1,9.2,3,12.8c2,3.7,4.6,6.5,7.9,8.4c3.3,2,6.8,2.9,10.5,2.9c3.8,0,7.4-0.9,10.7-2.9c3.3-1.9,6-4.6,7.9-8.2
				c2-3.6,2.9-7.8,2.9-12.8C4313.5,1483.2,4312.5,1478.9,4310.5,1475.3z"/>
			<path class="st1" d="M4430.9,1447.5v81.2h-20.7v-10.3c-2.6,3.5-6.1,6.3-10.3,8.3c-4.3,2-8.9,3-13.8,3c-6.4,0-12-1.3-16.9-4
				s-8.7-6.6-11.5-11.9c-2.8-5.2-4.2-11.4-4.2-18.7v-47.6h20.5v44.7c0,6.4,1.6,11.4,4.8,14.9c3.2,3.5,7.6,5.2,13.2,5.2
				c5.7,0,10.1-1.7,13.3-5.2c3.2-3.5,4.8-8.4,4.8-14.9v-44.7H4430.9L4430.9,1447.5z"/>
			<path class="st1" d="M4464.3,1526.5c-5.3-2.4-9.4-5.6-12.5-9.8c-3.1-4.1-4.8-8.6-5-13.6h20.7c0.4,3.1,1.9,5.7,4.6,7.8
				c2.7,2,6,3.1,10,3.1c3.9,0,7-0.8,9.2-2.3c2.2-1.6,3.3-3.6,3.3-6c0-2.6-1.3-4.6-4-5.9s-7-2.8-12.8-4.3c-6.1-1.5-11-3-14.9-4.5
				c-3.9-1.6-7.2-4-10-7.2s-4.2-7.6-4.2-13c0-4.5,1.3-8.6,3.9-12.3c2.6-3.7,6.3-6.7,11.1-8.8c4.8-2.2,10.5-3.2,17.1-3.2
				c9.7,0,17.4,2.4,23.2,7.3s8.9,11.4,9.5,19.6h-19.6c-0.3-3.2-1.6-5.8-4-7.7c-2.4-1.9-5.6-2.9-9.6-2.9c-3.7,0-6.6,0.7-8.6,2.1
				s-3,3.3-3,5.7c0,2.7,1.4,4.8,4.1,6.2c2.7,1.4,7,2.9,12.7,4.3c5.9,1.5,10.7,3,14.5,4.5c3.8,1.6,7.1,4,9.9,7.3s4.2,7.6,4.3,13
				c0,4.7-1.3,8.9-3.9,12.6s-6.3,6.6-11.1,8.7c-4.8,2.1-10.5,3.1-16.9,3.1C4475.5,1530.1,4469.6,1528.9,4464.3,1526.5z"/>
			<path class="st1" d="M4554.9,1464.4v39.3c0,2.7,0.7,4.7,2,5.9c1.3,1.2,3.5,1.8,6.7,1.8h9.5v17.3h-12.9
				c-17.3,0-25.9-8.4-25.9-25.2v-39.1h-9.7v-16.9h9.7v-20.1h20.7v20.1h18.2v16.9L4554.9,1464.4L4554.9,1464.4z"/>
			<path class="st1" d="M4618.7,1450c4.2-2.4,9.1-3.7,14.6-3.7v21.6h-5.4c-6.4,0-11.3,1.5-14.6,4.6c-3.3,3-4.9,8.3-4.9,15.8v40.5
				h-20.5v-81.2h20.5v12.6C4611,1455.9,4614.4,1452.5,4618.7,1450z"/>
			<path class="st1" d="M4648.5,1434.4c-2.4-2.3-3.6-5.2-3.6-8.6s1.2-6.3,3.6-8.6c2.4-2.3,5.4-3.4,9-3.4s6.6,1.2,9,3.4
				c2.4,2.3,3.6,5.2,3.6,8.6s-1.2,6.3-3.6,8.6c-2.4,2.3-5.4,3.5-9,3.5S4650.9,1436.7,4648.5,1434.4z M4667.6,1447.5v81.2h-20.5
				v-81.2H4667.6z"/>
			<path class="st1" d="M4687.5,1466c3.3-6.3,7.7-11.2,13.3-14.7c5.6-3.4,11.9-5.1,18.8-5.1c6.1,0,11.3,1.2,15.9,3.7
				c4.5,2.4,8.2,5.5,10.9,9.2v-11.6h20.7v81.2h-20.7v-11.9c-2.6,3.8-6.3,7-10.9,9.4c-4.6,2.5-10,3.7-16.1,3.7
				c-6.8,0-13.1-1.7-18.7-5.3c-5.6-3.5-10.1-8.5-13.3-14.9c-3.3-6.4-4.9-13.8-4.9-22.1C4682.5,1479.7,4684.2,1472.4,4687.5,1466z
				 M4743.5,1475.3c-2-3.6-4.6-6.3-7.9-8.2c-3.3-1.9-6.9-2.9-10.7-2.9s-7.3,0.9-10.5,2.8s-5.8,4.6-7.8,8.1c-2,3.6-3,7.8-3,12.7
				s1,9.2,3,12.8c2,3.7,4.6,6.5,7.9,8.4c3.3,2,6.8,2.9,10.5,2.9c3.8,0,7.4-0.9,10.7-2.9c3.3-1.9,6-4.6,7.9-8.2
				c2-3.6,2.9-7.8,2.9-12.8C4746.4,1483.2,4745.5,1478.9,4743.5,1475.3z"/>
			<path class="st1" d="M4807.7,1420.3v108.5h-20.5v-108.5H4807.7z"/>
			<path class="st1" d="M4925.6,1509.3h-40.8l-6.7,19.5h-21.6l36.8-102.5h23.9l36.8,102.5h-21.7L4925.6,1509.3z M4920,1492.8
				l-14.8-42.8l-14.8,42.8H4920z"/>
			<path class="st1" d="M4998.6,1450c4.3-2.4,9.1-3.7,14.6-3.7v21.6h-5.4c-6.4,0-11.3,1.5-14.6,4.6c-3.3,3-4.9,8.3-4.9,15.8v40.5
				h-20.5v-81.2h20.5v12.6C4991,1455.9,4994.4,1452.5,4998.6,1450z"/>
			<path class="st1" d="M5101.9,1494.3h-59.4c0.5,5.9,2.5,10.5,6.1,13.8s8.1,5,13.3,5c7.6,0,13.1-3.3,16.3-9.8h22.1
				c-2.3,7.8-6.8,14.2-13.5,19.3c-6.7,5-14.8,7.6-24.5,7.6c-7.8,0-14.8-1.7-21-5.2s-11-8.4-14.5-14.7c-3.5-6.3-5.2-13.7-5.2-22
				c0-8.4,1.7-15.8,5.1-22.1c3.4-6.3,8.2-11.2,14.4-14.7c6.2-3.4,13.2-5.1,21.3-5.1c7.7,0,14.6,1.7,20.7,5s10.8,8,14.2,14.1
				c3.4,6.1,5,13.1,5,21C5102.5,1489.3,5102.3,1492,5101.9,1494.3z M5081.2,1480.5c-0.1-5.3-2-9.5-5.7-12.7s-8.3-4.8-13.6-4.8
				c-5.1,0-9.4,1.5-12.8,4.6s-5.6,7.4-6.4,12.8L5081.2,1480.5L5081.2,1480.5z"/>
			<path class="st1" d="M5117.1,1466c3.3-6.3,7.7-11.2,13.3-14.7c5.6-3.4,11.9-5.1,18.8-5.1c6.1,0,11.4,1.2,15.9,3.7
				c4.6,2.4,8.2,5.5,10.9,9.2v-11.6h20.7v81.2H5176v-11.9c-2.6,3.8-6.3,7-10.9,9.4c-4.6,2.5-10,3.7-16,3.7c-6.8,0-13.1-1.7-18.7-5.3
				c-5.6-3.5-10.1-8.5-13.3-14.9c-3.3-6.4-4.9-13.8-4.9-22.1C5112.2,1479.7,5113.8,1472.4,5117.1,1466z M5173.2,1475.3
				c-2-3.6-4.6-6.3-7.9-8.2c-3.3-1.9-6.9-2.9-10.7-2.9c-3.8,0-7.3,0.9-10.6,2.8c-3.2,1.9-5.8,4.6-7.8,8.1c-2,3.6-3,7.8-3,12.7
				s1,9.2,3,12.8c2,3.7,4.6,6.5,7.9,8.4c3.3,2,6.8,2.9,10.5,2.9c3.8,0,7.4-0.9,10.7-2.9c3.3-1.9,6-4.6,7.9-8.2
				c2-3.6,2.9-7.8,2.9-12.8C5176.1,1483.2,5175.1,1478.9,5173.2,1475.3z"/>
			<path class="st1" d="M5248.5,1507.9v-16.1l47.9-68.6h23.9v66.8h12.9v17.9h-12.9v20.8h-20.5v-20.8L5248.5,1507.9L5248.5,1507.9z
				 M5301.1,1445.2l-30.1,44.9h30.1V1445.2z"/>
			<path class="st1" d="M5371,1507.2l-17.1,41.2h-13.2l9.5-41.2H5371z"/>
			<path class="st1" d="M5484.8,1432.7c8.2,4.2,14.5,10.2,18.9,18s6.7,16.8,6.7,27c0,10.3-2.2,19.2-6.7,26.9s-10.7,13.6-18.9,17.8
				c-8.2,4.2-17.6,6.3-28.4,6.3h-35.8v-102.3h35.8C5467.2,1426.4,5476.7,1428.5,5484.8,1432.7z M5480.7,1502.5
				c5.9-5.9,8.8-14.1,8.8-24.8c0-10.6-2.9-19-8.8-25s-14.2-9-24.9-9h-14.5v67.6h14.5C5466.5,1511.3,5474.8,1508.4,5480.7,1502.5z"/>
			<path class="st1" d="M5602.5,1447.5v81.2h-20.7v-10.3c-2.6,3.5-6.1,6.3-10.3,8.3c-4.2,2-8.9,3-13.8,3c-6.4,0-12-1.3-16.9-4
				s-8.7-6.6-11.5-11.9c-2.8-5.2-4.2-11.4-4.2-18.7v-47.6h20.5v44.7c0,6.4,1.6,11.4,4.8,14.9c3.2,3.5,7.6,5.2,13.2,5.2
				c5.7,0,10.1-1.7,13.3-5.2c3.2-3.5,4.8-8.4,4.8-14.9v-44.7H5602.5L5602.5,1447.5z"/>
			<path class="st1" d="M5654.2,1449.9c4.6-2.4,9.9-3.7,15.9-3.7c6.9,0,13.2,1.7,18.8,5.1c5.6,3.4,10.1,8.3,13.3,14.6
				c3.3,6.3,4.9,13.6,4.9,21.9s-1.6,15.7-4.9,22.1s-7.7,11.4-13.3,14.9c-5.6,3.5-11.9,5.3-18.8,5.3c-6.1,0-11.4-1.2-15.9-3.6
				s-8.2-5.5-10.9-9.3v11.6h-20.5v-108.5h20.5v39.1C5645.9,1455.5,5649.5,1452.3,5654.2,1449.9z M5683.2,1475.2
				c-2-3.6-4.6-6.3-7.9-8.1c-3.3-1.9-6.8-2.8-10.6-2.8c-3.7,0-7.2,1-10.5,2.9s-5.9,4.7-7.9,8.3c-2,3.6-3,7.9-3,12.7
				c0,4.9,1,9.1,3,12.7s4.6,6.4,7.9,8.3s6.8,2.9,10.5,2.9c3.8,0,7.4-1,10.6-2.9c3.3-2,5.9-4.7,7.9-8.4c2-3.6,3-7.9,3-12.9
				C5686.2,1483,5685.2,1478.7,5683.2,1475.2z"/>
			<path class="st1" d="M5721.7,1466c3.3-6.3,7.7-11.2,13.3-14.7c5.6-3.4,11.9-5.1,18.8-5.1c6.1,0,11.4,1.2,15.9,3.7
				c4.5,2.4,8.2,5.5,10.9,9.2v-11.6h20.7v81.2h-20.7v-11.9c-2.6,3.8-6.3,7-10.9,9.4c-4.6,2.5-10,3.7-16.1,3.7
				c-6.8,0-13.1-1.7-18.7-5.3c-5.6-3.5-10.1-8.5-13.3-14.9c-3.3-6.4-4.9-13.8-4.9-22.1C5716.8,1479.7,5718.5,1472.4,5721.7,1466z
				 M5777.8,1475.3c-2-3.6-4.6-6.3-7.9-8.2c-3.3-1.9-6.9-2.9-10.7-2.9c-3.8,0-7.3,0.9-10.6,2.8c-3.2,1.9-5.8,4.6-7.8,8.1
				c-2,3.6-3,7.8-3,12.7s1,9.2,3,12.8c2,3.7,4.6,6.5,7.9,8.4c3.3,2,6.8,2.9,10.5,2.9c3.8,0,7.4-0.9,10.7-2.9c3.3-1.9,6-4.6,7.9-8.2
				c2-3.6,2.9-7.8,2.9-12.8C5780.7,1483.2,5779.8,1478.9,5777.8,1475.3z"/>
			<path class="st1" d="M5822.9,1434.4c-2.4-2.3-3.6-5.2-3.6-8.6s1.2-6.3,3.6-8.6c2.4-2.3,5.4-3.4,9-3.4s6.6,1.2,9,3.4
				c2.4,2.3,3.6,5.2,3.6,8.6s-1.2,6.3-3.6,8.6c-2.4,2.3-5.4,3.5-9,3.5S5825.3,1436.7,5822.9,1434.4z M5842,1447.5v81.2h-20.5v-81.2
				H5842z"/>
			<path class="st1" d="M5959.6,1467.8v17.3h-62.2v-17.3H5959.6z"/>
			<path class="st1" d="M6037.7,1426.4v63.3c0,6.9,1.8,12.2,5.4,15.9c3.6,3.7,8.7,5.5,15.3,5.5c6.6,0,11.8-1.8,15.4-5.5
				s5.4-9,5.4-15.9v-63.3h20.7v63.2c0,8.7-1.9,16-5.6,22.1c-3.8,6-8.8,10.5-15.1,13.6c-6.3,3-13.3,4.5-21,4.5
				c-7.6,0-14.6-1.5-20.7-4.5c-6.2-3-11.1-7.6-14.7-13.6s-5.4-13.4-5.4-22.1v-63.2H6037.7z"/>
			<path class="st1" d="M6182.4,1509.3h-40.7l-6.7,19.5h-21.6l36.8-102.5h23.9l36.8,102.5h-21.7L6182.4,1509.3z M6176.8,1492.8
				L6162,1450l-14.8,42.8H6176.8z"/>
			<path class="st1" d="M6245.1,1443v25.7h34.4v16.3h-34.4v27.1h38.8v16.7h-59.4v-102.5h59.4v16.7L6245.1,1443L6245.1,1443z"/>
		</g>
		<g>
			<path class="st0" d="M666.3,1450.2c-14.9-0.4-27.4,11.5-27.8,26.4c-0.4,15.3,11.4,27.7,26.6,28.1c15,0.4,27.4-11.6,27.8-27
				C693.3,1463.1,681.1,1450.6,666.3,1450.2z"/>
			<path class="st0" d="M566.5,1399.2v198.1h198.1v-198.1H566.5z M708.8,1509.4c-5.6,10.3-12.9,19.6-20,28.9
				c-7.6,9.9-14.9,20-20.8,31.1c-1.2,2.2-3.5,2.3-4.6,0.3c-8.6-16.4-20.4-30.7-31.1-45.7c-6.1-8.6-11.6-17.6-15.4-27.7
				c-7.6-20.2-2-43.5,14.4-57.7c10.4-9.1,22.6-13.4,36.3-12.9c14.4,0.5,26.4,6.4,36,17c7.2,7.8,11.5,17.1,13.3,27.7
				c0.5,2.7,0.8,5.5,0.5,7.7C717.6,1489.5,714.1,1499.7,708.8,1509.4z"/>
		</g>
	</g>
</g>
<g>
	<g>
		<path d="M7272,1775.7c-1-21.4-1.9-42.8-3-66.2c-40.7,0-81,0-123.2,0c-0.7-11-1.3-20.1-2-30.6c-9.4,0-18.6,0-29,0
			c0,19.5,0,38.8,0,59.7c9,0.8,18.2,1.6,28.5,2.5c0,9.8,0,19,0,30.3c-19.6,0-39,0-59.4,0c-1,11.2-1.8,20.3-2.9,32.2
			c-11.3,0-21.9,0-32.4,0c0,0,0.6,0.4,0.6,0.4c0.5-6.9,1.3-13.9,1.4-20.8c0.1-40,0.4-80.1-0.3-120.1c-0.2-12.4,3.5-20,16.2-20
			c9.5,0,19,2.8,28.4,2.9c26.4,0.4,52.7,0.2,79.8,0.2c0.8,11.3,1.5,20.5,2.2,29.7c21.5,0,41.3,0,61.1,0c0-10.4,0-19,0-28.3
			c-10.2-1-19.5-1.9-28.3-2.7c-4.5-29.1-2.2-31.9,24-31.9c16.5,0,33,0,49.6,0c26.4,0,52.8,0,79.9,0c0.9,12.4,1.6,22.2,2.4,32.4
			c10.6,0.7,19.3,1.3,28.8,2c0.9,10,1.7,19.2,2.5,29.1c10.1,0.8,19.3,1.6,29,2.4c0.7,10.5,1.4,19.7,2.1,30.7c21.1,0,40.4,0,59.6,0
			c0,11.2,0,20.4,0,29.4c-10.3,0.8-19,1.5-28.3,2.3c0,10.3,0,19.4,0,30.7c20.8,0,40.1,0,60.4,0c0.9,12.2,1.6,22.2,2.3,32.2l0.6-0.5
			c-20.8,0-41.6,0-63.5,0c0,10.2,0,18.8,0,29.7c9,0.6,18.2,1.1,28.7,1.8c0,9.8,0,18.9,0,29.1c-61.7,0-122.9,0-186,0
			c0-30.4,0-60,0-93.5c-11.5,1.7-20.7,3.1-30,4.4L7272,1775.7z M7299.8,1678.9c0.9,9.2,1.7,18.4,2.7,28.6c9.7,0,18.7,0,28.9,0
			c0-9.9,0-18.9,0-30.3c-11.4,0.8-21.8,1.5-32.2,2.2c0.8-10.3,1.6-20.7,2.5-32.1c-11.5,0-20.6,0-30.5,0c0,10.1,0,19.1,0,28.9
			C7281.3,1677.2,7290.5,1678.1,7299.8,1678.9z M7425.7,1833.4c0-31.9,0-61.5,0-93.4c-28.8,0-56.6-0.2-84.4,0.3
			c-2.9,0.1-8.2,4.9-8.3,7.6c-0.6,28.4-0.4,56.7-0.4,85.4C7365,1833.4,7394.6,1833.4,7425.7,1833.4z"/>
		<path d="M7018.3,1235.5c10,0,20.1,0,31.3,0c0-30.4,0-60,0-91.6c-9.8-0.7-19.5-1.4-30.6-2.2c-0.6-10.6-1.2-20.5-1.8-31.5
			c-9.6-0.6-18.2-1.2-28.7-1.8c0-9.1,0-18.2,0-28.9c29.9,0,60.6,0,93.4,0c0,20.1,0,40.1,0,61.8c11.1,0.8,20.3,1.5,30.3,2.3
			c1.1,10.9,2.1,21.4,3.2,32c-10.4-0.6-20.8-1.1-31.8-1.7c0,11.4,0,20.5,0,30c10.3,0,19.3,0,29,0c0.8-10.4,1.5-19.6,2.2-28.8
			c8.8-0.6,17.6-1.3,28.5-2c0.8-8.9,1.5-18,2.5-29.3c8.9-0.6,18-1.2,29-1.9c0.6-10.4,1.2-20.2,1.9-31.5c9.9-0.7,19.1-1.4,29.8-2.1
			c0.8-9.4,1.5-18.6,2.4-29c30.1,0,59.7,0,90.9,0c0,9,0,18.1,0,29.3c-19.1,0-38.4,0-61.1,0c1.1,13.8,2,25.4,2.9,37
			c-10.8-1-21.6-2-34.1-3.2c0.6,12.6,1,21.6,1.4,30.2c11.2,0,20.1,0,28.9,0c1.3-10.2,2.4-18.7,3.5-27.3c9.1-0.9,18.1-1.9,28.8-3
			c0,22.6,0,42.7,0,62.8l0.6-0.5c-9.9,0.5-19.7,1-30.2,1.5c-0.9,10.4-1.7,19.5-2.5,29c-21.7,0-42.2,0-62.8,0c0-9.3,0-18.6,0-28.6
			c-10.6,0-19.7,0-29,0c0,10.5,0,19.6,0,30.4c10.8-0.9,20.2-1.6,29.5-2.3c-0.8,12.3-1.5,24.6-2.3,36.9l0.3-0.3c-9.2-1-18.4-2-27.7-3
			c0,22.6,0,41.8,0,63.3c20.9,0,40.6,0,60.2,0c1.4,11.5,2.5,20.8,3.6,30c-52.2,0-104.4,0-159.2,0c0,22.1,0,41.9,0,62.6
			c-12.4,0.7-22.4,1.3-32.3,1.8c0,0,0.6,0.6,0.6,0.6c0-21,0-42,0-63.5c-12.5-0.8-21.8-1.4-31-2c0,0,0.5,0.5,0.5,0.5
			c0-10.3,0-20.7,0.1-31l-0.6,0.5c20.5,0,41.1,0,63.7,0c-1.1-22.7-2-42.1-2.9-61.5c11.6,0.1,23.2,0.3,34.8,0.4c0,19.9,0,39.8,0,59.2
			c11.2,0,20.2,0,28.8,0c0-20.9,0-40.2,0-61.4c-10.8,1-20,1.8-29.2,2.6c-1.6-37-1.6-37-31-31.7c-1,10.2-2.1,20.7-3.1,31.2
			c-10.2,0.1-20.4,0.1-30.6,0.2c0.2-11.7,0.3-23.4,0.5-35L7018.3,1235.5z"/>
		<path d="M7330.8,1331c52,0,103.9,0,156.9,0c1,10.4,2,19.6,3,29.8c20.2,0,39.6,0,60.4,0c0.7-9.6,1.4-18.8,2.2-29
			c9.4,0,18.1,0,28.4,0c0,40.4,0,81.2,0,123.5c-8.7,0.6-17.4,1.2-27.7,1.9c0,9,0,18.1,0,29.2c8.3,0.6,17.5,1.3,28,2.1
			c0,30.7,0,60.7,0,92.2c-9.4,0.8-18.6,1.5-28.7,2.4c0,9.5,0,18.2,0,28.8c9,0.6,18.2,1.3,28.7,2.1c0,62.3,0,124.2,0,188.2
			c-9.7,0.5-19.6,1-29.5,1.5l0.5,0.6c0-31.3,0-62.6,0-94.2c-12.7-1-21.8-1.7-31-2.4c0-11.1,0-20.4,0-29.8c9.8-0.4,19.7-0.9,29.1-1.3
			c0-11,0-19.6,0-30.4c-10.5,0.6-19.8,1.1-29.1,1.7c0-32.1,0-64.2,0-96.4c10.8-0.8,19.5-1.4,29.1-2.2c0-10.2,0-19.3,0-29.1
			c-10.3,0-19.4,0-29,0c-0.9,10.5-1.7,19.6-2.7,30.9c-20.8,0-40.2,0-60.3,0c-1,11.3-1.8,20.4-2.5,29.3c-10.8,0-19.8,0-29,0
			c-0.7-10.3-1.2-19.1-1.9-28.4c-10.3-1-19.5-1.8-29.1-2.7c-0.8-10.3-1.5-19.5-2.3-29.2c-10.8-1-19.9-1.8-28.9-2.5
			c0-10.6,0-19.2,0-29.7c51.7,0,102.3,0,155.6,0c0-21.7,0-41.7,0-61.3c11.9-1.1,21.1-2,30.2-2.8c0-10.7,0-19.4,0-28.9
			c-52.1,0-103.1,0-156.1,0c0,20.8,0,40.2,0,60.2c-11,0-20.1,0-31.5,0c0-31.6,0-61.8,0-93.5c-12.5,0-22.6,0-32.7,0
			c0.2-10.3,0.4-20.7,0.6-31L7330.8,1331z"/>
		<path d="M6987.9,1174.5c9.3,0,18.5,0,30.4,0c0,21.2,0,41.1,0,61c0,0,0.5-0.6,0.5-0.6c-3,0.4-6.1,1.2-9.1,1.3
			c-24.2,0.9-24.3,0.9-22.9,25c0.2,3,1.1,6,1.6,9.1c-10.8-0.6-21.5-1.3-33.9-2c0.6,12.6,1,21.5,1.4,31.8c12.4,0,22.4,0,32.4,0
			c-0.2,10.3-0.4,20.6-0.6,31l0.6-0.5c-10.5,0-20.9,0-31.3,0c-1.9,11.4-3.4,20.5-4.8,29.5c-9,1.2-18.1,2.3-27.4,3.5
			c0,9.9,0,18.9,0,28.4c10.3,0,19.3,0,31,0c-1.4-11.9-2.7-22.1-3.9-32.3c12.1,0.6,24.3,1.2,36.4,1.8l-0.5-0.5c0,20.7,0,41.3,0,62.8
			c11.2,1,21.1,1.8,31,2.6c0,0-0.6-0.6-0.6-0.6c-0.5,30.6-1.1,61.1-1.6,91.4c-12.6,0-20.5,0-30.3,0c0-20.7,0-40,0-59.4
			c-21.9,0-41.7,0-62.1,0c0,20.5,0,39.4,0,58.4c0,0.1,0.4-0.5,0.4-0.5c-10.7,0.7-21.4,1.4-32.1,2c0-9.7,0-19.4,0-30.5
			c-12,0-21.2,0-30.5,0c0-9.8,0-19.7,0-30.2c11.2-0.7,20.4-1.2,29.1-1.8c0-11,0-20,0-29.3c-10.2-0.7-18.8-1.4-28.6-2.1
			c0-11.6,0-22.1,0-32.6l-0.6,0.6c9.7,0.4,19.5,0.9,29.4,1.3c0-11.9,0-20.9,0-30.6c-10.6-0.6-20-1.2-29.3-1.8l0.5,0.4
			c0-9.4,0-18.8,0-30.2c19.7,0,39.1,0,60.9,0c0-53,0-104.1,0-156.7c11.7,0,21.1,0,30.4,0l-0.4-0.5c1,9.8,2,19.5,3,30.2
			c9.9,0,19,0,28.9,0c1.1-10.6,2-20.4,3-30.2L6987.9,1174.5z"/>
		<path d="M6891.9,1078.9c0,74,0,145.7,0,219c-72.4,0-144.3,0-217.6,0c0-72.7,0-145.4,0-219
			C6747,1078.9,6818.5,1078.9,6891.9,1078.9z M6859.9,1267c0-53.3,0-104.9,0-156.3c-52.4,0-103.3,0-154.2,0c0,52.8,0,104,0,156.3
			C6757.2,1267,6807.7,1267,6859.9,1267z"/>
		<path d="M6674.1,1772.8c73.3,0,144.7,0,217.2,0c0,72.5,0,144,0,216.8c-72.3,0-144.2,0-217.2,0
			C6674.1,1917.7,6674.1,1846.3,6674.1,1772.8z M6859.9,1958.7c0-53.1,0-103.6,0-154.5c-52,0-102.5,0-153.8,0
			c0,52.1,0,103.1,0,154.5C6758,1958.7,6808.5,1958.7,6859.9,1958.7z"/>
		<path d="M7582.3,1079.1c0,73.9,0,146,0,219.3c-72.4,0-143.7,0-216.6,0c0-73.1,0-145.6,0-219.3
			C7437.9,1079.1,7509.3,1079.1,7582.3,1079.1z M7551.7,1110.4c-52.6,0-103.5,0-154.7,0c0,52.9,0,104.5,0,156.1
			c52.3,0,103.3,0,154.7,0C7551.7,1214.1,7551.7,1163.4,7551.7,1110.4z"/>
		<path d="M7083.6,1929.5c-10,0-20.1,0-32.2,0c0,19.9,0,39.2,0,60c-42.9,0-83.8,0-126.3,0c0-8.5,0-17.6,0-28.5
			c8.7-0.6,17.8-1.3,28.9-2c0-19.9,0-39.3,0-60.7c10.9-0.9,20-1.7,30.8-2.6c1.2-10.6,2.4-20.9,3.6-31.3l-0.7,0.7
			c9.7,0,19.5,0,29.1,0c0-11.7,0-20.3,0-31c-10.4,0-19.7,0-29.1,0l0.6,0.6c0-10.3-0.1-20.7-0.1-31c0,0-0.5,0.4-0.5,0.4
			c20.5,0,40.9,0,61.4,0c0,0-0.6-0.4-0.6-0.4c0,30.1,0,60.1,0,91.9c14.2,0,24.6,0,35.1,0l-0.5-0.4c0,11.6,0,23.3,0,34.9
			L7083.6,1929.5z"/>
		<path d="M7329.4,1931.6c21.2-1.4,42.5-2.7,64.7-4.1c1.1,12.2,1.9,21.4,2.7,31.5c9.7,0,18.3,0,28.8,0c0.6-9.4,1.2-18.6,1.9-29
			c9.7-0.8,18.9-1.6,28.9-2.5c0.9-9.9,1.7-19.1,2.7-29.4c41.2,0,81.5,0,123,0c0,20.2,0,39.6,0,60.7c-9.3,0.7-18.4,1.4-28.8,2.1
			c-0.6,9.3-1.2,18-1.9,28.4c-9,0-18.1,0-30,0c0-18.9,0-38.8,0-59.6c-11.5,0-20.1,0-30.9,0c-0.8,9.3-1.6,18.4-2.5,29.1
			c-9.5,0.7-18.7,1.4-29.1,2.1c-0.7,9.8-1.4,19-2.2,29.1c-41.2,0-81.5,0-122.5,0c-1.5-20.1-3-39.4-4.5-58.7L7329.4,1931.6z"/>
		<path d="M6766.8,1582.2c-9.4,0-18.7,0-30.4,0c0-33,0-64.3,0-95.5l-0.6,0.6c9.9,0,19.8,0,29.7,0c0-11.7,0-20.8,0-31
			c-10.8,0-20.3,0-29.7,0l0.6,0.6c0-9.9,0-19.8,0-30.7c10.3-0.9,19.4-1.6,29.5-2.5c0.7-9.9,1.3-19.1,2.1-32c21.5,0,42.7,0,63.8,0
			c0,0-0.5-0.3-0.5-0.3c-0.5,6.2-1.2,12.4-1.4,18.7c-0.8,25.7-1.5,51.5-2.2,77.2c-9.2,0-18.3,0-31,0c0,23,0,44,0,65.1l0.6-0.6
			c-9.6-0.4-19.3-0.9-31.1-1.4c0,12.7,0,22.6,0,32.5L6766.8,1582.2z"/>
		<path d="M7113.6,1895.5c30.3,0,60.6,0,92.3,0c1-9.6,2-18.8,3.1-29c9.3,0,17.9,0,28.7,0c0.7,8.9,1.5,18.1,2.4,28.9
			c9.2,0.9,18.3,1.7,28.8,2.7c0,9.7,0,18.8,0,30.1c-19.5,0-38.9,0-59.7,0c-1.1,11-2,20.1-3,30.5c-19.9,0-39.2,0-60.4,0
			c-0.6-9.1-1.2-18.3-2-29.1c-10.4,0-20.2,0-30.1,0l0.5,0.5c0-11.7,0-23.4,0-35.1L7113.6,1895.5z"/>
		<path d="M7271.7,1775.2c-0.9,8.6-1.8,17.3-2.7,26.9c-9.3,0.6-18.1,1.2-28.9,1.8c-0.6,9.1-1.2,18.2-1.9,28.9c-9.6,0-18.6,0-29.2,0
			c-0.9-9.2-1.8-18.4-2.7-28.5c-9.8-0.8-19-1.6-30.4-2.5c0-17.6-0.6-34.6,0.5-51.5c0.2-3.7,6.3-9.7,9.9-9.9
			c16.9-1.1,33.9-0.5,51.9-0.5c0.6,10.9,1.1,19.6,1.6,28.9c10.8,2.3,21.5,4.5,32.3,6.8C7272,1775.7,7271.7,1775.2,7271.7,1775.2z"/>
		<path d="M6797.2,1708.1c-9.4,0.5-18.7,0.9-29.1,1.4c-0.8,10-1.5,19.2-2.2,29.3c-30.4,0-60,0-91.2,0c0-9,0-18.1,0-29.6
			c19.3,0,39.1,0,60.8,0c0-21.7,0-41,0-63c11.7,0.6,21.5,1,31.3,1.5l-0.5-0.6c0.5,9.8,1.1,19.6,1.6,29.7c11,0.6,20.1,1.1,30.4,1.7
			c-0.6,11.4-1.1,20.8-1.6,30.1L6797.2,1708.1z"/>
		<path d="M7083.6,1895.5c0-19.5,0-39.1,0-60c9.5-0.8,18.7-1.5,29-2.3c0.6-9.4,1.1-18.1,1.8-28.4c9,0,18.1,0,29.2,0
			c0.5,8.4,1.1,17.6,1.8,28.3c9.6,0.7,18.8,1.4,29.1,2.2c0,9.9,0,19,0,30.1c-20.2,0-39.6,0-60.9,0c0,11.4,0,20.8,0,30.1
			c0,0,0.5-0.6,0.5-0.6c-10.3,0-20.7,0.1-31,0.1C7083.1,1895.1,7083.6,1895.5,7083.6,1895.5z"/>
		<path d="M6674.3,1519.7c11,0,19.6,0,29.4,0c0,42.1,0,83,0,125.2c-9.9,0-19,0-29.4,0C6674.3,1603.1,6674.3,1562.1,6674.3,1519.7z"
			/>
		<path d="M6736.4,1486.7c-20.2,0-40.3,0-61.9,0c0-30.7,0-60.7,0-92.1c9.3,0,18.4,0,29.9,0c0,19.7,0,39.6,0,60.6
			c12.2,0.6,22.1,1.1,32,1.7l-0.6-0.6c0,10.3,0,20.7,0,31L6736.4,1486.7z"/>
		<path d="M6766.8,1647.7c0-21.8,0-43.6,0-65.5c0,0-0.5,0.6-0.5,0.6c9.9-0.7,19.9-1.4,31.1-2.1c0-10.3,0-19.6,0-28.9
			c0,0-0.6,0.6-0.6,0.6c10.4-0.2,20.7-0.3,31.1-0.5c0,19.9,0,39.8,0,60.2c-10.2,0.7-19.4,1.4-28.7,2c-0.9,11.6-1.6,21.4-2.4,31.3
			c-11.6,0.6-21,1.2-30.5,1.7L6766.8,1647.7z"/>
		<path d="M6988.3,1803.6c-20.6,0-41.2,0-65,0c0-23,0-44.1,0-65.1l-0.5,0.6c9.9,0.6,19.8,1.2,30.8,1.8c0.8,9.9,1.5,19,2.2,29.1
			c10.4,1.1,19.9,2.1,29.9,3.1c0.7,11.2,1.3,21.1,2,31L6988.3,1803.6z"/>
		<path d="M7270,1204.9c20,0,40,0,61.2,0c0,11.2,0,20.2,0,30.2c-9.9,0.8-19,1.6-29,2.4c-0.6,11.6-1.2,22.1-1.8,32.6l0.7-0.8
			c-9.8,0.6-19.6,1.2-29.5,1.8l0.4,0.4c-0.5-22.4-0.9-44.8-1.4-67.1L7270,1204.9z"/>
		<path d="M6923.3,1738.5c-20,0-40,0-60.9,0c0-10.7,0-20.6,0-30.5l-0.6,0.6c9.8,0,19.6,0,30.5,0c0-12.3,0-21.7,0-31
			c10.3,0,20.7,0.1,31,0.1c-0.2,20.5-0.3,40.9-0.5,61.4C6922.8,1739.1,6923.3,1738.5,6923.3,1738.5z"/>
		<path d="M7552.5,1803.5c0,9.4,0,18.8,0,29.6c10.2,0.7,19.4,1.4,29.6,2.1c0,9.9,0,18.9,0,29.1c-20.2,0-39.4,0-59.6,0
			c0-20.8,0-40.8,0-60.7c0,0-0.6,0.5-0.6,0.5c10.3,0,20.7,0,31,0L7552.5,1803.5z"/>
		<path d="M6988.4,1864.4c-20.8,0-41.6,0-63.6,0c0-9.5,0-18.1,0-29.8c21,0,42.3,0,63.6,0c0,0-0.6-0.6-0.6-0.6c0,10.3,0,20.7,0,31
			L6988.4,1864.4z"/>
		<path d="M7113.6,1929.5c0,19.5,0,39.1,0,60c-10.5,0-19.5,0-30,0c0-20,0-40,0-60c0,0-0.5,0.4-0.5,0.4c10.3,0,20.7,0,31,0.1
			C7114.1,1930,7113.6,1929.5,7113.6,1929.5z"/>
		<path d="M6707.1,1359.7c19.3,1.2,38.7,2.3,58.9,3.5c0,9.5,0,18.2,0,28.5c-19.4,0-38.6,0-61.3,0c0.9-10.6,1.8-21.4,2.7-32.3
			L6707.1,1359.7z"/>
		<path d="M7300.4,1270.2c9.7-0.8,19.5-1.5,30.4-2.4c0,22.5,0,42.8,0,63.1c0,0,0.7-0.6,0.7-0.6c-10.4,0.2-20.7,0.4-31.1,0.5
			c0.2-20.5,0.4-41,0.6-61.5C7301.1,1269.4,7300.4,1270.2,7300.4,1270.2z"/>
		<path d="M6833.7,1359.6c-11.1,0.8-22.2,1.7-34.5,2.6c0-11.1,0-19.7,0-29.9c9.2,0,18.3,0,28.1,0c1.9,8.7,4,18.2,6,27.6
			L6833.7,1359.6z"/>
		<path d="M6707.3,1359.4c-10.5,1-21,2-33,3.2c0-11.4,0-20.5,0-30.8c9.7,0,18.8,0,28.6,0c1.4,9.7,2.7,18.9,4.1,27.9
			C6707.1,1359.7,6707.3,1359.4,6707.3,1359.4z"/>
		<path d="M6953.6,1174.5c0.8-9.9,1.6-19.8,2.4-30.7c10,0,19.2,0,29.3,0c0.9,10.9,1.7,20.8,2.6,30.7c0,0,0.3-0.5,0.3-0.5
			c-11.7,0-23.3,0-35,0L6953.6,1174.5z"/>
		<path d="M7329.7,1931.3c-8.5-1.4-17-2.8-27-4.5c0-8.7,0-17.8,0-28.5c8.7,0,17.8,0,30.2,0c-1.2,11.4-2.3,22.3-3.5,33.3
			C7329.4,1931.6,7329.7,1931.3,7329.7,1931.3z"/>
		<path d="M6827.1,1708c1,9.8,2.1,19.5,3.3,30.7c-11.8,0-20.9,0-31.2,0c-0.7-10.6-1.3-20.6-2-30.6c0,0-0.4,0.5-0.4,0.5
			c10.3,0,20.7,0,31,0L6827.1,1708z"/>
		<path d="M6862.4,1708c-11.7,0-23.5,0-35.2-0.1c0,0,0.7,0.7,0.7,0.7c1.2-10.1,2.3-20.3,3.6-31c11.2,0,21,0,30.9,0
			c-0.2,10.3-0.4,20.7-0.6,31L6862.4,1708z"/>
		<path d="M6833.4,1359.8c9.7,0.5,19.3,1,29,1.5c0,0-0.5-0.4-0.5-0.4c0,10.3,0,20.7-0.1,31c0,0,0.6-0.6,0.6-0.6
			c-10.3,0.1-20.6,0.1-31,0.2c0,0,0.5,0.3,0.5,0.3c0.6-10.7,1.2-21.4,1.9-32.2C6833.7,1359.6,6833.4,1359.8,6833.4,1359.8z"/>
		<path d="M6924.6,1078.9c10,0,18.7,0,28.8,0c0,9.4,0,18.6,0,29c-9.4,0-18.5,0-28.8,0C6924.6,1098.5,6924.6,1089.9,6924.6,1078.9z"
			/>
		<path d="M7240.1,1989.3c0-9.3,0-18.3,0-28.3c9.9,0,19,0,29,0c0,9.5,0,18.1,0,28.3C7260,1989.3,7250.6,1989.3,7240.1,1989.3z"/>
		<path class="st3" d="M7425.7,1833.4c-31.1,0-60.7,0-93,0c0-28.7-0.2-57,0.4-85.4c0.1-2.7,5.3-7.6,8.3-7.6
			c27.8-0.6,55.6-0.3,84.4-0.3C7425.7,1771.9,7425.7,1801.5,7425.7,1833.4z M7365.4,1772.7c0,10.2,0,19.2,0,29.2
			c10.3,0,19.2,0,29.1,0c0-10.2,0-19.2,0-29.2C7384.4,1772.7,7375.4,1772.7,7365.4,1772.7z"/>
		<path class="st3" d="M7299.7,1679c-9.2-0.9-18.3-1.8-28.5-2.8c0-9.8,0-18.8,0-28.9c9.9,0,18.9,0,30.5,0
			c-0.9,11.4-1.7,21.7-2.5,32.1L7299.7,1679z"/>
		<path class="st3" d="M7299.2,1679.4c10.4-0.7,20.7-1.4,32.2-2.2c0,11.4,0,20.4,0,30.3c-10.2,0-19.2,0-28.9,0
			c-1-10.3-1.8-19.4-2.7-28.6C7299.7,1679,7299.2,1679.4,7299.2,1679.4z"/>
		<path class="st3" d="M7018.8,1426.4c-9.9-0.8-19.8-1.7-31-2.6c0-21.5,0-42.2,0-62.8c9.2,0.6,18.5,1.2,31,2
			C7018.8,1384.4,7018.8,1405.4,7018.8,1426.4z"/>
		<path class="st3" d="M7082.9,1270.2c9.2-0.8,18.5-1.6,29.2-2.6c0,21.2,0,40.5,0,61.4c-8.6,0-17.6,0-28.8,0c0-19.4,0-39.3,0-59.2
			C7083.3,1269.8,7082.9,1270.2,7082.9,1270.2z"/>
		<path class="st3" d="M6988.2,1361.3c-12.1-0.6-24.3-1.2-36.4-1.8c0,0,0.4,0.3,0.4,0.3c1.5-9,3-18.1,4.9-29.5c10.3,0,20.8,0,31.3,0
			C6988.2,1340.7,6988.2,1351,6988.2,1361.3z"/>
		<path class="st3" d="M7522,1647.7c9.3-0.5,18.5-1.1,29.1-1.7c0,10.8,0,19.4,0,30.4c-9.4,0.4-19.3,0.9-29.1,1.3
			c0,0,0.5,0.5,0.5,0.5c0-10.3-0.1-20.7-0.1-31C7522.4,1647.2,7522,1647.7,7522,1647.7z"/>
		<path class="st3" d="M7300.5,1330.9c10.4-0.2,20.7-0.4,31.1-0.5c-0.2,10.3-0.4,20.7-0.6,31c0,0,0.6-0.5,0.6-0.5
			c-10.3,0-20.7,0-31-0.1l0.6,0.6c0-10.3,0-20.7,0-31L7300.5,1330.9z"/>
		<path class="st3" d="M6831.4,1391.4c10.3-0.1,20.6-0.1,31-0.2c0,10.5,0,21,0,32.6c9.7,0.7,18.4,1.3,28.6,2.1c0,9.3,0,18.3,0,29.3
			c-8.8,0.5-17.9,1.1-29.1,1.8c0,10.5,0,20.3,0,30.2l0.6-0.5c-11.7,0-23.4,0-35.1,0.1l0.5,0.5c0.7-25.7,1.4-51.5,2.2-77.2
			C6830.1,1403.9,6830.9,1397.7,6831.4,1391.4z"/>
		<path class="st3" d="M6953.3,1174c11.7,0,23.3,0,35,0c-1,9.8-1.9,19.5-3,30.2c-9.9,0-19,0-28.9,0
			C6955.2,1193.5,6954.2,1183.7,6953.3,1174z"/>
		<path class="st3" d="M6861.7,1391.9c0-10.3,0-20.7,0.1-31c9.3,0.6,18.7,1.1,29.3,1.8c0,9.6,0,18.7,0,30.6
			C6881.2,1392.8,6871.5,1392.3,6861.7,1391.9z"/>
		<path class="st3" d="M6951.8,1359.5c1.2,10.2,2.5,20.5,3.9,32.3c-11.7,0-20.6,0-31,0c0-9.5,0-18.5,0-28.4
			c9.3-1.2,18.4-2.3,27.4-3.5C6952.1,1359.8,6951.8,1359.5,6951.8,1359.5z"/>
		<path class="st3" d="M6861.8,1487.2c9.3,0,18.6,0,30.5,0c0,11.1,0,20.8,0,30.5c0,0,0.5-0.5,0.5-0.5c-9.8,0.5-19.7,1-30.5,1.5
			c0-12.1,0-22.1,0-32L6861.8,1487.2z"/>
		<path class="st3" d="M6859.9,1267c-52.2,0-102.7,0-154.2,0c0-52.3,0-103.5,0-156.3c50.9,0,101.8,0,154.2,0
			C6859.9,1162.1,6859.9,1213.7,6859.9,1267z M6828.3,1235.3c0-31,0-61,0-91c-31.6,0-61.6,0-91.2,0c0,31.2,0,60.8,0,91
			C6768.1,1235.3,6797.7,1235.3,6828.3,1235.3z"/>
		<path class="st3" d="M6859.9,1958.7c-51.4,0-101.9,0-153.8,0c0-51.5,0-102.4,0-154.5c51.3,0,101.8,0,153.8,0
			C6859.9,1855.1,6859.9,1905.7,6859.9,1958.7z M6828.8,1835.9c-31.9,0-62,0-92,0c0,31.2,0,60.9,0,91.3c31,0,61,0,92,0
			C6828.8,1896.2,6828.8,1866.7,6828.8,1835.9z"/>
		<path class="st3" d="M7114.1,1930c-10.3,0-20.7,0-31-0.1c0-11.6,0-23.3,0-34.9c10.3,0,20.7-0.1,31-0.1
			C7114.1,1906.7,7114.1,1918.4,7114.1,1930z"/>
		<path class="st3" d="M6987.7,1865.1c0-10.3,0-20.7,0-31c9.3,0,18.6,0,29.1,0c0,10.7,0,19.3,0,31
			C7007.2,1865.1,6997.4,1865.1,6987.7,1865.1z"/>
		<path class="st3" d="M6827.8,1551.9c-10.4,0.2-20.7,0.3-31.1,0.5c0-21,0-42,0-65c12.6,0,21.8,0,31,0c0,0-0.5-0.5-0.6-0.5
			c0,21.8,0,43.7,0,65.5C6827.2,1552.3,6827.8,1551.9,6827.8,1551.9z"/>
		<path class="st3" d="M6797.4,1551.7c0,9.3,0,18.6,0,28.9c-11.2,0.8-21.1,1.5-31.1,2.1c0-9.9,0-19.7,0-32.5
			C6778.1,1550.9,6787.7,1551.3,6797.4,1551.7z"/>
		<path class="st3" d="M6735.8,1487.3c0-10.3,0-20.7,0-31c9.4,0,18.9,0,29.7,0c0,10.2,0,19.3,0,31
			C6755.6,1487.3,6745.7,1487.3,6735.8,1487.3z"/>
		<path class="st3" d="M6923.3,1677.7c-10.3,0-20.7-0.1-31-0.1c0,0,0.5,0.6,0.5,0.6c0-10.3,0-20.7,0-31l-0.5,0.5
			c9.8-0.5,19.6-1,30.4-1.5c0,12.3,0,22.2,0,32.1L6923.3,1677.7z"/>
		<path class="st3" d="M6861.8,1708.6c0.2-10.3,0.4-20.7,0.6-31c0,0-0.5,0.5-0.5,0.5c10.3,0,20.7,0,31,0l-0.5-0.6c0,9.4,0,18.8,0,31
			C6881.4,1708.6,6871.6,1708.6,6861.8,1708.6z"/>
		<path d="M7209.1,1360.9c9.3,0.6,18.6,1.3,28.9,2c0.6,9.5,1.2,18.2,1.9,28.4c20.3,0,40.7,0,61.1,0c0,20.8,0,41.6,0,63.6
			c10.7,0.8,19.3,1.4,29.7,2.2c0,40.6,0,81.4,0,123.4c-19.7,0-39,0-59.5,0c0-10,0-19.1,0-29.1c10.1-0.8,19.3-1.5,29.2-2.3
			c0-10,0-18.7,0-29.5c-9.6-0.6-18.7-1.2-29.3-1.9c-0.7-9.6-1.3-18.8-2-29.2c-9.9-0.7-19.1-1.4-29.1-2.2c0-9.5,0-18.2,0-28.9
			c8.9-0.7,18-1.4,28.6-2.2c0-9.4,0-18.4,0-29c-19.4,0-38.8,0-59.2,0c-1,5.1-2.1,10.4-4.1,19.9c-9.5-8.3-17.2-15-25-21.8l-0.5,0.4
			c8.1,0,16.3,0,29.1,0C7209.1,1402.9,7209.1,1381.9,7209.1,1360.9z"/>
		<path d="M7028.6,1637.7c1.4-9.2,1.5-13,2.7-16.6c7.1-21.9,8.7-42.5,1.2-66c-12.7-39.8,8.3-84.9,44-106.8
			c36.9-22.6,85.8-19.2,117.3,8.3c34.6,30.1,45.5,75,28.1,115.6c-17.3,40.4-57.9,67.4-100.2,60.2
			C7090.9,1627.1,7061.4,1622.5,7028.6,1637.7z M7060.3,1604.2c15.7,3,33.6,5.9,51.3,9.9c35.7,8,72.9-9,90.1-41.5
			c17.2-32.6,10.3-73.2-16.6-97.7c-28.3-25.8-68.8-29.3-100.3-8.6c-31.3,20.5-44.1,58.2-33.4,93.5
			C7056,1574.6,7057.7,1590.4,7060.3,1604.2z"/>
		<path d="M6922.7,1678.2c0-9.9,0-19.8,0-32.1c-10.9,0.6-20.7,1.1-30.4,1.5c0.1-11.6,0.3-23.2,0.4-34.7l-0.5,0.5
			c30.3,0,60.6,0,92.8,0c0,21,0,41.3,0,64.7C6964,1678.2,6943.3,1678.2,6922.7,1678.2z"/>
		<path d="M6827.2,1552.3c0-21.8,0-43.7,0-65.5c11.7,0,23.4,0,35.1-0.1c0,9.9,0,19.8,0,32c10.8-0.5,20.6-1,30.5-1.5
			c0,10.1,0,20.2,0,31.6C6869.9,1550.1,6848.5,1551.2,6827.2,1552.3z"/>
		<path d="M7180.5,1424.5c-3.1,0.2-6.6,1.4-9.3,0.5c-42.4-14.3-81.2-7.6-119.1,21.4c-0.5-7.7-0.9-13.4-1.5-21.8
			c26.2,5.6,37.6-4.2,31.4-30.3c32,0,61.6,0,91.1,0c2.3,10.6,4.6,20.6,6.9,30.7C7180,1424.9,7180.5,1424.5,7180.5,1424.5z"/>
		<path d="M6988.2,1551.9c-21.1-0.9-42.2-1.9-63.9-2.9c0-12,0-22.6,0-33.2c0-0.1-0.4,0.5-0.3,0.4c20,1.2,40,2.5,61.3,3.9
			c0.8,11,1.6,21.6,2.4,32.1L6988.2,1551.9z"/>
		<path d="M7486.3,1648.8c-19.2-1.4-38.3-2.7-58.5-4.2c0-10.2,0-19.9,0-30.7c20.2,0,39.4,0,62.1,0c-1.4,12.4-2.7,23.8-4,35.2
			C7486,1649.2,7486.3,1648.8,7486.3,1648.8z"/>
		<path d="M7427.8,1455.1c0-9.7,0-18.3,0-28.5c19.8,0,39.5,0,60.1,0c0,9.7,0,18.7,0,28.5C7467.3,1455.1,7448.1,1455.1,7427.8,1455.1
			z"/>
		<path d="M7522.4,1647.2c0,10.3,0.1,20.7,0.1,31c-9.9,0-19.8,0-30.4,0c-2.1-10.8-3.9-20.1-5.7-29.4c-0.1,0-0.4,0.4-0.4,0.4
			C7498,1648.5,7510.2,1647.9,7522.4,1647.2z"/>
		<path d="M7300.5,1360.8c10.3,0,20.7,0,31,0.1c0,9.8,0,19.6,0,32.3c-10.7-0.5-20.8-0.9-31-1.4
			C7300.5,1381.5,7300.5,1371.2,7300.5,1360.8z"/>
		<path d="M6892.7,1612.9c-9.5,0-18.9,0-29.9,0c0-10.2,0-19.3,0-29.8c9,0,18.1,0,29.4,0c0,10.4,0,20.4,0,30.3
			C6892.2,1613.5,6892.7,1612.9,6892.7,1612.9z"/>
		<path d="M6892.8,1678.1c-10.3,0-20.7,0-31,0c0-9.9,0-19.8,0-31c11.3,0,21.1,0,31,0C6892.8,1657.5,6892.8,1667.8,6892.8,1678.1z"/>
		<path d="M6987.8,1552.3c28.6-4.7,32.2-1.1,28,28.8c-5.3,0.2-10.8,0.7-16.4,0.6c-3.6,0-7.3-0.8-13.1-1.5c0.6-10,1.2-19.2,1.8-28.4
			C6988.2,1551.9,6987.8,1552.3,6987.8,1552.3z"/>
		<path d="M7365.4,1772.7c10,0,19,0,29.1,0c0,10,0,19,0,29.2c-9.9,0-18.9,0-29.1,0C7365.4,1791.9,7365.4,1782.9,7365.4,1772.7z"/>
		<path d="M7173.2,1271.3c10.4-1.3,20.7-2.7,32.9-4.2c0,11.7,0,20.7,0,31.1c-9.4,0-18.5,0-28.5,0c-1.3-9.1-2.7-18.2-4.1-27.2
			C7173.5,1271,7173.2,1271.3,7173.2,1271.3z"/>
		<path d="M7301,1330.4c0,10.3,0,20.7,0,31c-9.4,0-18.8,0-29.5,0c0-9.9,0-19,0-31C7281.3,1330.4,7291.2,1330.4,7301,1330.4z"/>
		<path d="M7271.6,1271.2c-0.8,8.7-1.7,17.3-2.6,27.1c-9.4,0-18.5,0-28.7,0c0-9.7,0-18.8,0-31.2c11.4,1.6,21.5,3,31.7,4.4
			C7272,1271.5,7271.6,1271.2,7271.6,1271.2z"/>
		<path d="M6987.7,1300.4c0-10.3,0-20.7-0.1-31c10.3,0,20.7,0,31,0.1c-0.5,9.2-1,18.3-1.6,29
			C7007,1299.1,6997.4,1299.7,6987.7,1300.4z"/>
		<path d="M6828.3,1235.3c-30.6,0-60.2,0-91.2,0c0-30.2,0-59.7,0-91c29.6,0,59.6,0,91.2,0
			C6828.3,1174.3,6828.3,1204.3,6828.3,1235.3z"/>
		<path d="M6828.8,1835.9c0,30.8,0,60.4,0,91.3c-31,0-61,0-92,0c0-30.5,0-60.1,0-91.3C6766.8,1835.9,6796.9,1835.9,6828.8,1835.9z"
			/>
		<path d="M7427.3,1234.9c0-30.9,0-59.9,0-90.6c30.7,0,61.1,0,92.6,0c0,30.3,0,59.7,0,90.6
			C7489.1,1234.9,7459.1,1234.9,7427.3,1234.9z"/>
		<path class="st3" d="M7060.3,1604.2c-2.7-13.9-4.3-29.6-8.8-44.4c-10.8-35.3,2.1-73,33.4-93.5c31.5-20.7,72-17.2,100.3,8.6
			c26.9,24.5,33.8,65.1,16.6,97.7c-17.2,32.5-54.5,49.5-90.1,41.5C7093.9,1610.2,7076,1607.2,7060.3,1604.2z M7159.7,1580.2
			c3.4-2.5,11.1-7.2,17.2-13.6c1.6-1.6-0.9-10.8-3.6-12.1c-6.8-3.3-19.1-7.9-21.5-5.2c-11.6,13.2-20.8,6-29.1-1.7
			c-8.3-7.8-22.1-13.5-12.3-30.9c3-5.4-4.1-17.1-7.8-25.4c-0.7-1.7-8.9-2.6-10-1.2c-4.9,6.8-8.8,14.4-12.6,21.9
			c-0.7,1.4,0.1,3.8,0.4,5.6C7085.5,1543.9,7127.6,1579.7,7159.7,1580.2z"/>
		<path d="M7159.7,1580.2c-32-0.5-74.1-36.4-79.2-62.5c-0.4-1.9-1.2-4.2-0.4-5.6c3.8-7.5,7.6-15.2,12.6-21.9c1-1.4,9.2-0.5,10,1.2
			c3.7,8.3,10.8,20,7.8,25.4c-9.8,17.4,4,23.1,12.3,30.9c8.3,7.7,17.5,14.9,29.1,1.7c2.4-2.7,14.8,1.9,21.5,5.2
			c2.7,1.3,5.1,10.5,3.6,12.1C7170.8,1573,7163,1577.7,7159.7,1580.2z"/>
		<rect x="6624.6" y="1049.7" class="st4" width="994.6" height="964.2"/>
	</g>
	<g>
		<path class="st0" d="M7630.8,2025.3H6613.1v-987h1017.7V2025.3z M6626.6,2011.7h990.7v-960h-990.7V2011.7z"/>
	</g>
</g>
</svg>
