<?xml version="1.0" encoding="utf-8"?>
<!-- Generator: Adobe Illustrator 27.0.0, SVG Export Plug-In . SVG Version: 6.00 Build 0)  -->
<svg version="1.1" id="Layer_1" xmlns="http://www.w3.org/2000/svg" xmlns:xlink="http://www.w3.org/1999/xlink" x="0px" y="0px"
	 viewBox="0 0 720 81.7" style="enable-background:new 0 0 720 81.7;" xml:space="preserve">
<style type="text/css">
	.st0{fill:#32A849;}
	.st1{fill:#FFFFFF;}
</style>
<rect x="356.4" y="-286.9" transform="matrix(-1.836970e-16 1 -1 -1.836970e-16 433.0536 -286.9464)" class="st0" width="7.2" height="720"/>
<rect x="356.4" y="-281.9" transform="matrix(-1.836970e-16 1 -1 -1.836970e-16 438.0536 -281.9464)" width="7.2" height="720"/>
<g>
	<g>
		<g>
			<g>
				<path d="M41.5,35.2h-1.8v1.8H38v-1.8h-1.8v-1.6H38v-1.9h1.7v1.9h1.8V35.2z"/>
				<path d="M45.4,36.7c0.4,0,0.6-0.2,0.8-0.5s0.2-0.9,0.2-1.6c-0.2,0.2-0.4,0.4-0.6,0.5c-0.3,0.1-0.6,0.2-0.9,0.2
					c-0.4,0-0.8-0.1-1.2-0.3c-0.3-0.2-0.6-0.5-0.8-0.8c-0.2-0.4-0.3-0.8-0.3-1.3c0-0.5,0.1-1,0.3-1.3c0.2-0.4,0.5-0.7,0.9-0.9
					c0.4-0.2,0.9-0.3,1.4-0.3c1,0,1.7,0.3,2.1,1c0.4,0.6,0.6,1.6,0.6,2.8c0,0.9-0.1,1.6-0.2,2.2c-0.2,0.6-0.4,1-0.8,1.3
					s-0.9,0.5-1.6,0.5c-0.5,0-1-0.1-1.3-0.3c-0.4-0.2-0.7-0.5-0.9-0.8c-0.2-0.3-0.3-0.7-0.3-1.1h1.6C44.6,36.4,44.9,36.7,45.4,36.7z
					 M46,33.6c0.2-0.2,0.3-0.4,0.3-0.7c0-0.3-0.1-0.6-0.3-0.8c-0.2-0.2-0.4-0.3-0.7-0.3s-0.5,0.1-0.7,0.3c-0.2,0.2-0.3,0.4-0.3,0.8
					c0,0.3,0.1,0.5,0.3,0.7c0.2,0.2,0.4,0.3,0.8,0.3C45.6,33.9,45.8,33.8,46,33.6z"/>
				<path d="M53.8,31.8l-2.6,6.2h-1.8L52,32h-3.2v-1.5h5V31.8z"/>
				<path d="M54.3,32.1v-1.7h2.9v7.6h-1.8v-5.9H54.3z"/>
				<path d="M65.9,32h-3.2v1.4c0.1-0.2,0.3-0.3,0.6-0.4s0.5-0.1,0.8-0.1c0.5,0,1,0.1,1.3,0.4c0.3,0.2,0.6,0.5,0.8,0.9
					c0.2,0.4,0.2,0.8,0.2,1.2c0,0.8-0.2,1.5-0.7,1.9c-0.5,0.5-1.1,0.7-1.9,0.7c-0.6,0-1-0.1-1.4-0.3c-0.4-0.2-0.7-0.5-0.9-0.8
					c-0.2-0.3-0.3-0.7-0.4-1.2h1.7c0,0.2,0.1,0.4,0.3,0.5s0.4,0.2,0.7,0.2c0.3,0,0.6-0.1,0.7-0.3c0.2-0.2,0.2-0.5,0.2-0.8
					c0-0.3-0.1-0.6-0.2-0.8c-0.2-0.2-0.4-0.3-0.7-0.3c-0.2,0-0.4,0.1-0.6,0.2c-0.2,0.1-0.3,0.3-0.3,0.5h-1.7v-4.5h4.8V32z"/>
				<path d="M67.6,36.4c0.7-0.6,1.2-1,1.6-1.4c0.4-0.4,0.7-0.7,1-1.1c0.3-0.4,0.4-0.8,0.4-1.2c0-0.3-0.1-0.5-0.2-0.7
					c-0.1-0.2-0.3-0.2-0.6-0.2c-0.3,0-0.5,0.1-0.6,0.3C69,32.3,69,32.6,69,32.9h-1.7c0-0.6,0.1-1.1,0.4-1.5s0.6-0.7,0.9-0.9
					c0.4-0.2,0.8-0.3,1.3-0.3c0.8,0,1.4,0.2,1.9,0.6c0.4,0.4,0.6,1,0.6,1.7c0,0.7-0.3,1.4-0.8,2.1c-0.5,0.6-1.1,1.3-1.9,1.9h2.8V38
					h-5.2v-1.3C67.5,36.5,67.6,36.4,67.6,36.4z"/>
				<path d="M75.3,32.1v-1.7h2.9v7.6h-1.8v-5.9H75.3z"/>
				<path d="M84.7,32h-3.2v1.4c0.1-0.2,0.3-0.3,0.6-0.4s0.5-0.1,0.8-0.1c0.5,0,1,0.1,1.3,0.4c0.3,0.2,0.6,0.5,0.8,0.9
					c0.2,0.4,0.2,0.8,0.2,1.2c0,0.8-0.2,1.5-0.7,1.9c-0.5,0.5-1.1,0.7-1.9,0.7c-0.6,0-1-0.1-1.4-0.3c-0.4-0.2-0.7-0.5-0.9-0.8
					c-0.2-0.3-0.3-0.7-0.4-1.2h1.7c0,0.2,0.1,0.4,0.3,0.5s0.4,0.2,0.7,0.2c0.3,0,0.6-0.1,0.7-0.3c0.2-0.2,0.2-0.5,0.2-0.8
					c0-0.3-0.1-0.6-0.2-0.8c-0.2-0.2-0.4-0.3-0.7-0.3c-0.2,0-0.4,0.1-0.6,0.2c-0.2,0.1-0.3,0.3-0.3,0.5h-1.7v-4.5h4.8V32z"/>
				<path d="M86.4,36.4c0.7-0.6,1.2-1,1.6-1.4c0.4-0.4,0.7-0.7,1-1.1c0.3-0.4,0.4-0.8,0.4-1.2c0-0.3-0.1-0.5-0.2-0.7
					c-0.1-0.2-0.3-0.2-0.6-0.2c-0.3,0-0.5,0.1-0.6,0.3c-0.1,0.2-0.2,0.5-0.2,0.8H86c0-0.6,0.1-1.1,0.4-1.5s0.6-0.7,0.9-0.9
					c0.4-0.2,0.8-0.3,1.3-0.3c0.8,0,1.4,0.2,1.9,0.6c0.4,0.4,0.6,1,0.6,1.7c0,0.7-0.3,1.4-0.8,2.1c-0.5,0.6-1.1,1.3-1.9,1.9h2.8V38
					h-5.2v-1.3C86.3,36.5,86.4,36.4,86.4,36.4z"/>
				<path d="M94.5,32.4c0-0.4,0.1-0.7,0.3-1c0.2-0.3,0.5-0.6,0.9-0.7s0.9-0.3,1.5-0.3c0.6,0,1.1,0.1,1.4,0.3s0.7,0.4,0.9,0.7
					c0.2,0.3,0.3,0.6,0.3,1c0,0.4-0.1,0.7-0.3,1c-0.2,0.3-0.4,0.5-0.7,0.7c0.4,0.2,0.7,0.4,0.9,0.7c0.2,0.3,0.3,0.7,0.3,1.1
					c0,0.5-0.1,0.9-0.4,1.3c-0.2,0.4-0.6,0.6-1,0.8c-0.4,0.2-0.9,0.3-1.4,0.3s-1-0.1-1.4-0.3c-0.4-0.2-0.8-0.5-1-0.8
					c-0.2-0.4-0.4-0.8-0.4-1.3c0-0.4,0.1-0.8,0.3-1.1c0.2-0.3,0.5-0.6,0.9-0.7C94.8,33.6,94.5,33.1,94.5,32.4z M96.4,35
					c-0.2,0.2-0.3,0.4-0.3,0.7c0,0.3,0.1,0.5,0.3,0.7c0.2,0.2,0.5,0.3,0.8,0.3c0.3,0,0.6-0.1,0.8-0.3c0.2-0.2,0.3-0.4,0.3-0.7
					c0-0.3-0.1-0.5-0.3-0.7s-0.5-0.3-0.8-0.3C96.8,34.8,96.6,34.9,96.4,35z M97.8,32c-0.2-0.2-0.4-0.2-0.6-0.2
					c-0.3,0-0.5,0.1-0.6,0.2c-0.2,0.2-0.2,0.4-0.2,0.7c0,0.3,0.1,0.5,0.2,0.6c0.2,0.2,0.4,0.2,0.6,0.2c0.3,0,0.5-0.1,0.6-0.2
					c0.2-0.2,0.2-0.4,0.2-0.6C98,32.4,98,32.1,97.8,32z"/>
				<path d="M105.8,31.8l-2.6,6.2h-1.8L104,32h-3.2v-1.5h5V31.8z"/>
				<path d="M106.8,36.4c0.7-0.6,1.2-1,1.6-1.4c0.4-0.4,0.7-0.7,1-1.1c0.3-0.4,0.4-0.8,0.4-1.2c0-0.3-0.1-0.5-0.2-0.7
					c-0.1-0.2-0.3-0.2-0.6-0.2c-0.3,0-0.5,0.1-0.6,0.3c-0.1,0.2-0.2,0.5-0.2,0.8h-1.7c0-0.6,0.1-1.1,0.4-1.5s0.6-0.7,0.9-0.9
					c0.4-0.2,0.8-0.3,1.3-0.3c0.8,0,1.4,0.2,1.9,0.6c0.4,0.4,0.6,1,0.6,1.7c0,0.7-0.3,1.4-0.8,2.1c-0.5,0.6-1.1,1.3-1.9,1.9h2.8V38
					h-5.2v-1.3C106.7,36.5,106.8,36.4,106.8,36.4z"/>
				<path d="M117.8,32h-3.2v1.4c0.1-0.2,0.3-0.3,0.6-0.4s0.5-0.1,0.8-0.1c0.5,0,1,0.1,1.3,0.4c0.3,0.2,0.6,0.5,0.8,0.9
					c0.2,0.4,0.2,0.8,0.2,1.2c0,0.8-0.2,1.5-0.7,1.9c-0.5,0.5-1.1,0.7-1.9,0.7c-0.6,0-1-0.1-1.4-0.3c-0.4-0.2-0.7-0.5-0.9-0.8
					c-0.2-0.3-0.3-0.7-0.4-1.2h1.7c0,0.2,0.1,0.4,0.3,0.5s0.4,0.2,0.7,0.2c0.3,0,0.6-0.1,0.7-0.3c0.2-0.2,0.2-0.5,0.2-0.8
					c0-0.3-0.1-0.6-0.2-0.8c-0.2-0.2-0.4-0.3-0.7-0.3c-0.2,0-0.4,0.1-0.6,0.2c-0.2,0.1-0.3,0.3-0.3,0.5h-1.7v-4.5h4.8V32z"/>
			</g>
			<g>
				<g>
					<rect x="15.5" y="28.3" class="st0" width="13.3" height="13.3"/>
					<g>
						<path class="st1" d="M26.5,37.5c0,0.1,0,0.3-0.1,0.4l-1.2,1.2c-0.1,0.1-0.1,0.1-0.2,0.2c-0.1,0-0.2,0.1-0.3,0.1c0,0,0,0-0.1,0
							c0,0-0.1,0-0.1,0c-0.1,0-0.3,0-0.6-0.1c-0.3,0-0.6-0.1-1-0.3c-0.4-0.2-0.8-0.4-1.3-0.7c-0.5-0.3-1-0.7-1.5-1.3
							c-0.4-0.4-0.8-0.8-1.1-1.2c-0.3-0.4-0.5-0.7-0.7-1.1c-0.2-0.3-0.3-0.6-0.4-0.9c-0.1-0.3-0.1-0.5-0.2-0.7c0-0.2,0-0.3,0-0.5
							c0-0.1,0-0.2,0-0.2c0-0.1,0-0.2,0.1-0.3c0-0.1,0.1-0.2,0.2-0.2l1.2-1.2c0.1-0.1,0.2-0.1,0.3-0.1c0.1,0,0.2,0,0.2,0.1
							c0.1,0,0.1,0.1,0.2,0.2l1,1.9c0.1,0.1,0.1,0.2,0,0.3c0,0.1-0.1,0.2-0.2,0.3l-0.5,0.5c0,0,0,0,0,0.1c0,0,0,0.1,0,0.1
							c0,0.1,0.1,0.3,0.2,0.4c0.1,0.1,0.2,0.3,0.3,0.5c0.2,0.2,0.4,0.5,0.7,0.7c0.3,0.3,0.5,0.5,0.7,0.7c0.2,0.2,0.4,0.3,0.5,0.3
							c0.1,0.1,0.3,0.1,0.3,0.1l0.1,0c0,0,0,0,0.1,0c0,0,0,0,0.1,0l0.5-0.5c0.1-0.1,0.2-0.1,0.4-0.1c0.1,0,0.2,0,0.2,0.1h0l1.8,1.1
							C26.4,37.3,26.5,37.4,26.5,37.5L26.5,37.5z"/>
					</g>
				</g>
			</g>
		</g>
		<g>
			<g>
				<g>
					<path d="M145.4,31.6c0.5-0.7,1.2-1,2.2-1c1,0,1.8,0.3,2.2,1c0.5,0.7,0.7,1.6,0.7,2.8c0,1.2-0.2,2.1-0.7,2.8
						c-0.5,0.7-1.2,1-2.2,1c-1,0-1.8-0.3-2.2-1c-0.5-0.7-0.7-1.6-0.7-2.8C144.7,33.2,145,32.3,145.4,31.6z M148.6,32.8
						c-0.2-0.4-0.5-0.6-0.9-0.6s-0.8,0.2-0.9,0.6c-0.2,0.4-0.2,0.9-0.2,1.6c0,0.5,0,0.9,0.1,1.2c0.1,0.3,0.2,0.6,0.3,0.7
						c0.2,0.2,0.4,0.3,0.8,0.3s0.6-0.1,0.8-0.3s0.3-0.4,0.3-0.7c0.1-0.3,0.1-0.7,0.1-1.2C148.8,33.7,148.8,33.2,148.6,32.8z"/>
					<path d="M151.5,36.9v-1.4l3.3-4.7h2v4.6h0.9v1.5h-0.9v1.3H155v-1.3H151.5z M155.2,32.8l-1.7,2.6h1.7V32.8z"/>
					<path d="M159.3,31.1c0.5-0.4,1.1-0.6,1.9-0.6c0.5,0,1,0.1,1.3,0.3c0.4,0.2,0.7,0.4,0.8,0.7s0.3,0.7,0.3,1
						c0,0.5-0.1,0.8-0.3,1.1c-0.2,0.3-0.5,0.5-0.8,0.6v0c0.4,0.1,0.7,0.3,0.9,0.7c0.2,0.3,0.3,0.7,0.3,1.2c0,0.4-0.1,0.8-0.3,1.1
						c-0.2,0.3-0.5,0.6-0.9,0.8c-0.4,0.2-0.8,0.3-1.3,0.3c-0.8,0-1.5-0.2-2-0.6s-0.8-1-0.8-1.8h1.7c0,0.3,0.1,0.5,0.3,0.7
						s0.4,0.3,0.7,0.3c0.3,0,0.5-0.1,0.6-0.2c0.1-0.2,0.2-0.4,0.2-0.6c0-0.3-0.1-0.6-0.3-0.7c-0.2-0.1-0.5-0.2-1-0.2h-0.3v-1.4h0.3
						c0.4,0,0.6-0.1,0.9-0.2c0.2-0.1,0.3-0.3,0.3-0.6c0-0.2-0.1-0.4-0.2-0.6c-0.1-0.1-0.3-0.2-0.6-0.2c-0.3,0-0.5,0.1-0.6,0.2
						c-0.1,0.2-0.2,0.4-0.2,0.6h-1.7C158.6,32.1,158.9,31.5,159.3,31.1z"/>
					<path d="M171.9,32l-2.6,6.2h-1.8l2.6-6.1h-3.2v-1.5h5V32z"/>
					<path d="M177.9,32.3h-3.2v1.4c0.1-0.2,0.3-0.3,0.6-0.4s0.5-0.1,0.8-0.1c0.5,0,1,0.1,1.3,0.4c0.3,0.2,0.6,0.5,0.8,0.9
						c0.2,0.4,0.2,0.8,0.2,1.2c0,0.8-0.2,1.5-0.7,1.9c-0.5,0.5-1.1,0.7-1.9,0.7c-0.6,0-1-0.1-1.4-0.3c-0.4-0.2-0.7-0.5-0.9-0.8
						c-0.2-0.3-0.3-0.7-0.4-1.2h1.7c0,0.2,0.1,0.4,0.3,0.5s0.4,0.2,0.7,0.2c0.3,0,0.6-0.1,0.7-0.3c0.2-0.2,0.2-0.5,0.2-0.8
						c0-0.3-0.1-0.6-0.2-0.8c-0.2-0.2-0.4-0.3-0.7-0.3c-0.2,0-0.4,0.1-0.6,0.2c-0.2,0.1-0.3,0.3-0.3,0.5h-1.7v-4.5h4.8V32.3z"/>
					<path d="M182.8,32.2c-0.1-0.1-0.3-0.2-0.6-0.2c-0.4,0-0.7,0.2-0.9,0.5c-0.2,0.3-0.3,0.9-0.3,1.6c0.2-0.2,0.4-0.4,0.7-0.6
						c0.3-0.1,0.6-0.2,0.9-0.2c0.7,0,1.2,0.2,1.6,0.6c0.4,0.4,0.6,1,0.6,1.8c0,0.5-0.1,0.9-0.3,1.3s-0.5,0.7-0.9,0.9
						c-0.4,0.2-0.9,0.3-1.4,0.3c-1.1,0-1.8-0.3-2.2-1c-0.4-0.7-0.6-1.6-0.6-2.9c0-1.3,0.2-2.3,0.7-2.9c0.4-0.6,1.1-1,2.1-1
						c0.5,0,1,0.1,1.3,0.3s0.6,0.5,0.8,0.8c0.2,0.3,0.3,0.7,0.3,1.1h-1.7C183,32.5,182.9,32.3,182.8,32.2z M181.5,35
						c-0.2,0.2-0.3,0.4-0.3,0.8c0,0.3,0.1,0.6,0.3,0.8c0.2,0.2,0.4,0.3,0.8,0.3c0.3,0,0.5-0.1,0.7-0.3c0.2-0.2,0.3-0.4,0.3-0.8
						c0-0.3-0.1-0.6-0.3-0.8s-0.4-0.3-0.7-0.3C181.9,34.8,181.7,34.8,181.5,35z"/>
					<path d="M188.2,36.9v-1.4l3.3-4.7h2v4.6h0.9v1.5h-0.9v1.3h-1.8v-1.3H188.2z M191.8,32.8l-1.7,2.6h1.7V32.8z"/>
					<path d="M195.9,31.1c0.5-0.4,1.1-0.6,1.9-0.6c0.5,0,1,0.1,1.3,0.3c0.4,0.2,0.7,0.4,0.8,0.7s0.3,0.7,0.3,1
						c0,0.5-0.1,0.8-0.3,1.1c-0.2,0.3-0.5,0.5-0.8,0.6v0c0.4,0.1,0.7,0.3,0.9,0.7c0.2,0.3,0.3,0.7,0.3,1.2c0,0.4-0.1,0.8-0.3,1.1
						c-0.2,0.3-0.5,0.6-0.9,0.8c-0.4,0.2-0.8,0.3-1.3,0.3c-0.8,0-1.5-0.2-2-0.6s-0.8-1-0.8-1.8h1.7c0,0.3,0.1,0.5,0.3,0.7
						s0.4,0.3,0.7,0.3c0.3,0,0.5-0.1,0.6-0.2c0.1-0.2,0.2-0.4,0.2-0.6c0-0.3-0.1-0.6-0.3-0.7c-0.2-0.1-0.5-0.2-1-0.2H197v-1.4h0.3
						c0.4,0,0.6-0.1,0.9-0.2c0.2-0.1,0.3-0.3,0.3-0.6c0-0.2-0.1-0.4-0.2-0.6c-0.1-0.1-0.3-0.2-0.6-0.2c-0.3,0-0.5,0.1-0.6,0.2
						c-0.1,0.2-0.2,0.4-0.2,0.6h-1.7C195.3,32.1,195.5,31.5,195.9,31.1z"/>
					<path d="M206.8,32.3h-3.2v1.4c0.1-0.2,0.3-0.3,0.6-0.4s0.5-0.1,0.8-0.1c0.5,0,1,0.1,1.3,0.4c0.3,0.2,0.6,0.5,0.8,0.9
						c0.2,0.4,0.2,0.8,0.2,1.2c0,0.8-0.2,1.5-0.7,1.9c-0.5,0.5-1.1,0.7-1.9,0.7c-0.6,0-1-0.1-1.4-0.3c-0.4-0.2-0.7-0.5-0.9-0.8
						c-0.2-0.3-0.3-0.7-0.4-1.2h1.7c0,0.2,0.1,0.4,0.3,0.5s0.4,0.2,0.7,0.2c0.3,0,0.6-0.1,0.7-0.3c0.2-0.2,0.2-0.5,0.2-0.8
						c0-0.3-0.1-0.6-0.2-0.8c-0.2-0.2-0.4-0.3-0.7-0.3c-0.2,0-0.4,0.1-0.6,0.2c-0.2,0.1-0.3,0.3-0.3,0.5h-1.7v-4.5h4.8V32.3z"/>
				</g>
			</g>
			<g>
				<g>
					<g>
						<rect x="126.2" y="28.3" class="st0" width="13.3" height="13.3"/>
					</g>
					<g>
						<path class="st1" d="M132.8,38.9c-1.1,0-2.2,0-3.3,0c-0.3,0-0.4-0.1-0.4-0.4c0-0.4,0-0.7,0-1.1c0-0.5,0.2-0.9,0.5-1.3
							c0.4-0.7,0.8-1.4,1.3-2.1c0.1-0.1,0.1-0.2,0.1-0.3c0-0.1,0-0.3,0-0.4c0-0.2,0.1-0.4,0.4-0.4c0.1,0,0.3,0,0.4,0
							c0.2,0,0.3,0.1,0.3,0.3c0,0.3,0.2,0.4,0.4,0.4c0.2,0,0.5,0,0.7,0c0.3,0,0.4-0.1,0.4-0.4c0-0.2,0.2-0.3,0.4-0.3
							c0.1,0,0.3,0,0.4,0c0.2,0,0.4,0.1,0.4,0.4c0,0.1,0,0.3,0,0.4c0,0.1,0,0.2,0.1,0.3c0.4,0.7,0.8,1.4,1.3,2.1
							c0.3,0.5,0.5,1,0.5,1.6c0,0.2,0,0.5,0,0.7c0,0.3-0.1,0.4-0.4,0.4C135.1,38.9,133.9,38.9,132.8,38.9
							C132.8,38.9,132.8,38.9,132.8,38.9z M131.2,36.5c0,0.9,0.7,1.6,1.6,1.6c0.9,0,1.6-0.7,1.6-1.6c0-0.9-0.7-1.6-1.6-1.6
							C131.9,34.9,131.2,35.6,131.2,36.5z"/>
						<path class="st1" d="M132.8,31c1.2,0,2.3,0.1,3.4,0.5c0.6,0.2,1,0.6,1.2,1.2c0.1,0.2,0.1,0.3,0.1,0.5c0,0.2,0,0.2-0.2,0.3
							c-0.6,0.1-1.2,0.1-1.8-0.2c-0.1,0-0.1-0.1-0.2-0.1c-0.2-0.1-0.3-0.1-0.3-0.3c0-0.2-0.2-0.3-0.3-0.4c-0.3-0.2-0.6-0.2-1-0.2
							c-0.7-0.1-1.5-0.1-2.2,0c-0.3,0-0.5,0.1-0.8,0.2c-0.2,0.1-0.4,0.2-0.4,0.5c0,0-0.1,0.1-0.1,0.1c-0.7,0.4-1.4,0.5-2.2,0.3
							c-0.2,0-0.2-0.1-0.2-0.3c0.1-0.3,0.1-0.5,0.3-0.8c0.2-0.4,0.6-0.7,1-0.9C130.5,31.2,131.6,31,132.8,31z"/>
						<path class="st1" d="M129,34.8c-0.2,0-0.3,0-0.5-0.1c-0.2,0-0.4-0.2-0.4-0.4c0-0.1,0-0.3,0-0.4c0-0.2,0-0.2,0.2-0.2
							c0.2,0,0.4,0.1,0.6,0.1c0.5,0,1-0.1,1.4-0.3c0.2-0.1,0.2,0,0.2,0.2c0,0.6-0.3,1-1,1.1C129.3,34.7,129.2,34.7,129,34.8z"/>
						<path class="st1" d="M136.7,34.7c-0.3,0-0.7,0-1-0.2c-0.4-0.2-0.5-0.6-0.5-0.9c0-0.1,0.1-0.2,0.2-0.1c0.2,0.1,0.5,0.2,0.7,0.2
							c0.4,0.1,0.9,0.1,1.3,0c0.2,0,0.2,0,0.2,0.2c0,0.1,0,0.2,0,0.3c-0.1,0.3-0.2,0.5-0.5,0.5C137,34.7,136.8,34.7,136.7,34.7z"/>
						<path class="st1" d="M133.7,36.5c0,0.5-0.4,0.9-0.9,0.9c-0.5,0-0.9-0.4-0.9-0.9c0-0.5,0.4-0.9,0.9-0.9
							C133.3,35.6,133.7,36,133.7,36.5z"/>
						<path class="st1" d="M132.8,35.5c-0.2,0-0.3-0.1-0.3-0.3c0-0.2,0.1-0.3,0.3-0.3c0.2,0,0.3,0.1,0.3,0.3
							C133.1,35.4,133,35.5,132.8,35.5z"/>
						<path class="st1" d="M131.9,35.9c-0.2,0-0.3-0.1-0.3-0.3c0-0.2,0.1-0.3,0.3-0.3c0.2,0,0.3,0.1,0.3,0.3
							C132.2,35.7,132.1,35.9,131.9,35.9z"/>
						<path class="st1" d="M131.8,36.5c0,0.2-0.1,0.3-0.3,0.3c-0.2,0-0.3-0.1-0.3-0.3c0-0.2,0.1-0.3,0.3-0.3
							C131.7,36.2,131.8,36.3,131.8,36.5z"/>
						<path class="st1" d="M132.8,37.4c0.2,0,0.3,0.1,0.3,0.3c0,0.2-0.1,0.3-0.3,0.3c-0.2,0-0.3-0.1-0.3-0.3
							C132.5,37.6,132.6,37.4,132.8,37.4z"/>
						<path class="st1" d="M133.7,35.3c0.2,0,0.3,0.1,0.3,0.3c0,0.2-0.1,0.3-0.3,0.3c-0.2,0-0.3-0.1-0.3-0.3
							C133.4,35.4,133.5,35.3,133.7,35.3z"/>
						<path class="st1" d="M134,36.8c-0.2,0-0.3-0.1-0.3-0.3c0-0.2,0.1-0.3,0.3-0.3c0.2,0,0.3,0.1,0.3,0.3
							C134.3,36.6,134.2,36.8,134,36.8z"/>
						<path class="st1" d="M133.7,37.1c0.2,0,0.3,0.1,0.3,0.3c0,0.2-0.1,0.3-0.3,0.3c-0.2,0-0.3-0.1-0.3-0.3
							C133.4,37.2,133.5,37.1,133.7,37.1z"/>
						<path class="st1" d="M131.6,37.3c0-0.2,0.1-0.3,0.3-0.3c0.2,0,0.3,0.1,0.3,0.3c0,0.2-0.1,0.3-0.3,0.3
							C131.8,37.6,131.6,37.5,131.6,37.3z"/>
					</g>
				</g>
			</g>
		</g>
		<g>
			<g>
				<g>
					<g>
						<rect x="215.5" y="28.3" class="st0" width="13.3" height="13.3"/>
						<g>
							<path id="Icon_00000147922584784040626780000003892039608146136709_" class="st1" d="M225.6,33.1c-0.1-0.7-0.4-1.3-0.9-1.9
								c-0.6-0.7-1.5-1.1-2.4-1.1c-0.9,0-1.7,0.3-2.4,0.9c-1.1,0.9-1.5,2.5-1,3.9c0.3,0.7,0.6,1.3,1,1.9c0.7,1,1.5,2,2.1,3.1
								c0.1,0.1,0.2,0.1,0.3,0c0.4-0.7,0.9-1.4,1.4-2.1c0.5-0.6,1-1.2,1.3-1.9c0.4-0.6,0.6-1.3,0.6-2.1
								C225.6,33.4,225.6,33.3,225.6,33.1z M222.1,35.4c-1,0-1.8-0.9-1.8-1.9c0-1,0.9-1.8,1.9-1.8c1,0,1.8,0.9,1.8,1.8
								C223.9,34.6,223.1,35.4,222.1,35.4z"/>
						</g>
					</g>
				</g>
			</g>
			<g>
				<g>
					<path d="M246.6,31.5l-1.9,7.3h-2.1l-1.2-4.8l-1.2,4.8H238l-1.8-7.3h1.9l1,5.3l1.3-5.3h2l1.2,5.3l1.1-5.3H246.6z"/>
					<path d="M247.4,34.3c0.2-0.4,0.5-0.8,0.9-1c0.4-0.2,0.8-0.4,1.3-0.4c0.4,0,0.8,0.1,1.1,0.2c0.3,0.2,0.5,0.4,0.7,0.7V33h1.8v5.8
						h-1.8V38c-0.2,0.3-0.4,0.5-0.7,0.7c-0.3,0.2-0.7,0.2-1.1,0.2c-0.5,0-0.9-0.1-1.3-0.4c-0.4-0.2-0.7-0.6-0.9-1
						c-0.2-0.5-0.3-1-0.3-1.6C247.1,35.3,247.2,34.8,247.4,34.3z M251.1,34.8c-0.2-0.3-0.5-0.4-0.9-0.4c-0.4,0-0.7,0.1-0.9,0.4
						c-0.2,0.3-0.4,0.6-0.4,1c0,0.4,0.1,0.8,0.4,1.1c0.2,0.3,0.5,0.4,0.9,0.4c0.4,0,0.7-0.1,0.9-0.4s0.4-0.6,0.4-1
						C251.4,35.5,251.3,35.1,251.1,34.8z"/>
					<path d="M257.1,33.2c0.3-0.2,0.7-0.3,1-0.3v1.9h-0.5c-0.4,0-0.8,0.1-1,0.3s-0.3,0.5-0.3,1v2.7h-1.8V33h1.8v1
						C256.5,33.6,256.8,33.4,257.1,33.2z"/>
					<path d="M264.4,36.3h-4c0,0.4,0.1,0.6,0.3,0.8s0.5,0.3,0.8,0.3c0.4,0,0.8-0.2,0.9-0.6h1.9c-0.1,0.4-0.3,0.7-0.5,1
						s-0.6,0.5-0.9,0.7c-0.4,0.2-0.8,0.3-1.3,0.3c-0.6,0-1.1-0.1-1.5-0.4s-0.8-0.6-1-1c-0.2-0.5-0.4-1-0.4-1.6
						c0-0.6,0.1-1.1,0.4-1.6c0.2-0.4,0.6-0.8,1-1s1-0.4,1.5-0.4c0.6,0,1.1,0.1,1.5,0.4s0.8,0.6,1,1c0.2,0.4,0.4,0.9,0.4,1.5
						C264.4,36,264.4,36.1,264.4,36.3z M262.6,35.3c0-0.3-0.1-0.5-0.3-0.7s-0.5-0.3-0.8-0.3c-0.3,0-0.5,0.1-0.8,0.3
						c-0.2,0.2-0.3,0.4-0.4,0.7H262.6z"/>
					<path d="M270.5,33.6c0.4,0.4,0.6,1,0.6,1.8v3.4h-1.8v-3.1c0-0.4-0.1-0.7-0.3-0.9c-0.2-0.2-0.5-0.3-0.8-0.3
						c-0.3,0-0.6,0.1-0.8,0.3c-0.2,0.2-0.3,0.5-0.3,0.9v3.1h-1.8v-7.7h1.8v2.7c0.2-0.3,0.4-0.5,0.7-0.6c0.3-0.2,0.7-0.2,1-0.2
						C269.6,32.9,270.1,33.2,270.5,33.6z"/>
					<path d="M273.4,38.5c-0.5-0.2-0.8-0.6-1.1-1c-0.3-0.5-0.4-1-0.4-1.6c0-0.6,0.1-1.1,0.4-1.6s0.6-0.8,1.1-1
						c0.5-0.2,1-0.4,1.5-0.4s1.1,0.1,1.5,0.4c0.5,0.2,0.8,0.6,1.1,1c0.3,0.5,0.4,1,0.4,1.6c0,0.6-0.1,1.1-0.4,1.6
						c-0.3,0.5-0.6,0.8-1.1,1c-0.5,0.2-1,0.4-1.5,0.4S273.9,38.8,273.4,38.5z M275.8,37c0.2-0.2,0.4-0.6,0.4-1.1s-0.1-0.8-0.3-1.1
						s-0.5-0.4-0.9-0.4c-0.3,0-0.6,0.1-0.9,0.4c-0.2,0.2-0.3,0.6-0.3,1.1c0,0.5,0.1,0.8,0.3,1.1c0.2,0.2,0.5,0.4,0.8,0.4
						C275.3,37.3,275.6,37.2,275.8,37z"/>
					<path d="M284.7,33v5.8h-1.8V38c-0.2,0.3-0.4,0.5-0.7,0.6c-0.3,0.2-0.6,0.2-1,0.2c-0.4,0-0.8-0.1-1.2-0.3
						c-0.3-0.2-0.6-0.5-0.8-0.9s-0.3-0.8-0.3-1.3V33h1.8v3.1c0,0.4,0.1,0.7,0.3,0.9c0.2,0.2,0.5,0.3,0.8,0.3c0.3,0,0.6-0.1,0.8-0.3
						c0.2-0.2,0.3-0.5,0.3-0.9V33H284.7z"/>
					<path d="M287,38.6c-0.4-0.2-0.7-0.4-0.9-0.7s-0.4-0.6-0.4-1h1.8c0,0.2,0.1,0.4,0.3,0.5c0.2,0.1,0.4,0.2,0.6,0.2
						c0.2,0,0.4,0,0.5-0.1c0.1-0.1,0.2-0.2,0.2-0.3c0-0.2-0.1-0.3-0.3-0.4c-0.2-0.1-0.5-0.2-0.8-0.3c-0.4-0.1-0.8-0.2-1-0.3
						c-0.3-0.1-0.5-0.3-0.7-0.5c-0.2-0.2-0.3-0.5-0.3-0.9c0-0.3,0.1-0.6,0.3-0.9c0.2-0.3,0.5-0.5,0.8-0.6s0.8-0.2,1.3-0.2
						c0.7,0,1.3,0.2,1.7,0.5c0.4,0.4,0.7,0.8,0.7,1.4H289c0-0.2-0.1-0.4-0.3-0.5c-0.1-0.1-0.3-0.2-0.6-0.2c-0.2,0-0.4,0-0.5,0.1
						c-0.1,0.1-0.2,0.2-0.2,0.3c0,0.2,0.1,0.3,0.3,0.4c0.2,0.1,0.5,0.2,0.8,0.2c0.4,0.1,0.8,0.2,1,0.3c0.3,0.1,0.5,0.3,0.7,0.5
						c0.2,0.2,0.3,0.6,0.3,1c0,0.3-0.1,0.6-0.3,0.9c-0.2,0.3-0.5,0.5-0.8,0.6s-0.8,0.2-1.2,0.2C287.8,38.9,287.4,38.8,287,38.6z"/>
					<path d="M297.2,36.3h-4c0,0.4,0.1,0.6,0.3,0.8s0.5,0.3,0.8,0.3c0.4,0,0.8-0.2,0.9-0.6h1.9c-0.1,0.4-0.3,0.7-0.5,1
						s-0.6,0.5-0.9,0.7c-0.4,0.2-0.8,0.3-1.3,0.3c-0.6,0-1.1-0.1-1.5-0.4s-0.8-0.6-1-1c-0.2-0.5-0.4-1-0.4-1.6
						c0-0.6,0.1-1.1,0.4-1.6c0.2-0.4,0.6-0.8,1-1s1-0.4,1.5-0.4c0.6,0,1.1,0.1,1.5,0.4s0.8,0.6,1,1c0.2,0.4,0.4,0.9,0.4,1.5
						C297.2,36,297.2,36.1,297.2,36.3z M295.4,35.3c0-0.3-0.1-0.5-0.3-0.7s-0.5-0.3-0.8-0.3c-0.3,0-0.5,0.1-0.8,0.3
						c-0.2,0.2-0.3,0.4-0.4,0.7H295.4z"/>
					<path d="M306.9,38.8h-1.8l-3-4.5v4.5h-1.8v-7.3h1.8l3,4.5v-4.5h1.8V38.8z"/>
					<path d="M309.3,38.5c-0.5-0.2-0.8-0.6-1.1-1c-0.3-0.5-0.4-1-0.4-1.6c0-0.6,0.1-1.1,0.4-1.6s0.6-0.8,1.1-1
						c0.5-0.2,1-0.4,1.5-0.4s1.1,0.1,1.5,0.4c0.5,0.2,0.8,0.6,1.1,1c0.3,0.5,0.4,1,0.4,1.6c0,0.6-0.1,1.1-0.4,1.6
						c-0.3,0.5-0.6,0.8-1.1,1c-0.5,0.2-1,0.4-1.5,0.4S309.7,38.8,309.3,38.5z M311.7,37c0.2-0.2,0.4-0.6,0.4-1.1s-0.1-0.8-0.3-1.1
						s-0.5-0.4-0.9-0.4c-0.3,0-0.6,0.1-0.9,0.4c-0.2,0.2-0.3,0.6-0.3,1.1c0,0.5,0.1,0.8,0.3,1.1c0.2,0.2,0.5,0.4,0.8,0.4
						C311.1,37.3,311.4,37.2,311.7,37z"/>
					<path d="M314.8,38.6c-0.2-0.2-0.3-0.4-0.3-0.7c0-0.3,0.1-0.5,0.3-0.7c0.2-0.2,0.5-0.3,0.8-0.3c0.3,0,0.6,0.1,0.8,0.3
						c0.2,0.2,0.3,0.4,0.3,0.7c0,0.3-0.1,0.5-0.3,0.7c-0.2,0.2-0.4,0.3-0.8,0.3C315.3,38.9,315,38.8,314.8,38.6z"/>
					<path d="M317.3,32.9v-1.7h2.9v7.6h-1.8v-5.9H317.3z"/>
					<path d="M323.5,37.2l-1.2,3h-1.1l0.6-3H323.5z"/>
					<path d="M332,35c-0.2,0.3-0.5,0.6-0.9,0.8c-0.4,0.2-0.9,0.3-1.5,0.3h-1.1v2.6h-1.8v-7.3h2.9c0.6,0,1.1,0.1,1.5,0.3
						c0.4,0.2,0.7,0.5,0.9,0.8c0.2,0.4,0.3,0.8,0.3,1.2C332.3,34.3,332.2,34.7,332,35z M330.3,34.5c0.2-0.2,0.2-0.4,0.2-0.7
						s-0.1-0.5-0.2-0.7s-0.4-0.2-0.8-0.2h-1v1.8h1C329.9,34.8,330.1,34.7,330.3,34.5z"/>
					<path d="M335,31.1v7.7h-1.8v-7.7H335z"/>
					<path d="M337.4,38.5c-0.5-0.2-0.8-0.6-1.1-1c-0.3-0.5-0.4-1-0.4-1.6c0-0.6,0.1-1.1,0.4-1.6s0.6-0.8,1.1-1
						c0.5-0.2,1-0.4,1.5-0.4s1.1,0.1,1.5,0.4c0.5,0.2,0.8,0.6,1.1,1c0.3,0.5,0.4,1,0.4,1.6c0,0.6-0.1,1.1-0.4,1.6
						c-0.3,0.5-0.6,0.8-1.1,1c-0.5,0.2-1,0.4-1.5,0.4S337.9,38.8,337.4,38.5z M339.8,37c0.2-0.2,0.4-0.6,0.4-1.1s-0.1-0.8-0.3-1.1
						s-0.5-0.4-0.9-0.4c-0.3,0-0.6,0.1-0.9,0.4c-0.2,0.2-0.3,0.6-0.3,1.1c0,0.5,0.1,0.8,0.3,1.1c0.2,0.2,0.5,0.4,0.8,0.4
						C339.3,37.3,339.6,37.2,339.8,37z"/>
					<path d="M346.2,37.3v1.5h-0.9c-0.6,0-1.1-0.2-1.5-0.5c-0.4-0.3-0.5-0.8-0.5-1.5v-2.3h-0.7V33h0.7v-1.4h1.8V33h1.2v1.5H345v2.3
						c0,0.2,0,0.3,0.1,0.4s0.2,0.1,0.4,0.1H346.2z"/>
					<path d="M355.9,38.8h-1.8l-3-4.5v4.5h-1.8v-7.3h1.8l3,4.5v-4.5h1.8V38.8z"/>
					<path d="M358.3,38.5c-0.5-0.2-0.8-0.6-1.1-1c-0.3-0.5-0.4-1-0.4-1.6c0-0.6,0.1-1.1,0.4-1.6c0.3-0.5,0.6-0.8,1.1-1
						s1-0.4,1.5-0.4s1.1,0.1,1.5,0.4c0.5,0.2,0.8,0.6,1.1,1c0.3,0.5,0.4,1,0.4,1.6c0,0.6-0.1,1.1-0.4,1.6s-0.6,0.8-1.1,1
						c-0.5,0.2-1,0.4-1.5,0.4S358.7,38.8,358.3,38.5z M360.7,37c0.2-0.2,0.4-0.6,0.4-1.1s-0.1-0.8-0.3-1.1c-0.2-0.2-0.5-0.4-0.9-0.4
						c-0.3,0-0.6,0.1-0.9,0.4s-0.3,0.6-0.3,1.1c0,0.5,0.1,0.8,0.3,1.1c0.2,0.2,0.5,0.4,0.8,0.4S360.4,37.2,360.7,37z"/>
					<path d="M363.8,38.6c-0.2-0.2-0.3-0.4-0.3-0.7c0-0.3,0.1-0.5,0.3-0.7c0.2-0.2,0.5-0.3,0.8-0.3c0.3,0,0.6,0.1,0.8,0.3
						c0.2,0.2,0.3,0.4,0.3,0.7c0,0.3-0.1,0.5-0.3,0.7c-0.2,0.2-0.4,0.3-0.8,0.3C364.3,38.9,364,38.8,363.8,38.6z"/>
					<path d="M369,37.1c0.7-0.6,1.2-1,1.6-1.4c0.4-0.4,0.7-0.7,1-1.1c0.3-0.4,0.4-0.8,0.4-1.2c0-0.3-0.1-0.5-0.2-0.7
						c-0.1-0.2-0.3-0.2-0.6-0.2c-0.3,0-0.5,0.1-0.6,0.3c-0.1,0.2-0.2,0.5-0.2,0.8h-1.7c0-0.6,0.1-1.1,0.4-1.5
						c0.2-0.4,0.6-0.7,0.9-0.9c0.4-0.2,0.8-0.3,1.3-0.3c0.8,0,1.4,0.2,1.9,0.6c0.4,0.4,0.6,1,0.6,1.7c0,0.7-0.3,1.4-0.8,2.1
						c-0.5,0.6-1.1,1.3-1.9,1.9h2.8v1.4h-5.2v-1.3C368.9,37.2,369,37.1,369,37.1z"/>
					<path d="M374.7,37.4V36l3.3-4.7h2v4.6h0.9v1.5h-0.9v1.3h-1.8v-1.3H374.7z M378.3,33.3l-1.7,2.6h1.7V33.3z"/>
					<path d="M386.5,32.5l-2.6,6.2h-1.8l2.6-6.1h-3.2v-1.5h5V32.5z"/>
					<path d="M391.9,34.4v1.5h-4.6v-1.5H391.9z"/>
					<path d="M393.5,37.1c0.7-0.6,1.2-1,1.6-1.4c0.4-0.4,0.7-0.7,1-1.1c0.3-0.4,0.4-0.8,0.4-1.2c0-0.3-0.1-0.5-0.2-0.7
						c-0.1-0.2-0.3-0.2-0.6-0.2c-0.3,0-0.5,0.1-0.6,0.3c-0.1,0.2-0.2,0.5-0.2,0.8h-1.7c0-0.6,0.1-1.1,0.4-1.5
						c0.2-0.4,0.6-0.7,0.9-0.9c0.4-0.2,0.8-0.3,1.3-0.3c0.8,0,1.4,0.2,1.9,0.6c0.4,0.4,0.6,1,0.6,1.7c0,0.7-0.3,1.4-0.8,2.1
						c-0.5,0.6-1.1,1.3-1.9,1.9h2.8v1.4h-5.2v-1.3C393.4,37.2,393.5,37.1,393.5,37.1z"/>
					<path d="M399.4,33.1c0-0.4,0.1-0.7,0.3-1c0.2-0.3,0.5-0.6,0.9-0.7s0.9-0.3,1.5-0.3s1.1,0.1,1.4,0.3s0.7,0.4,0.9,0.7
						c0.2,0.3,0.3,0.6,0.3,1s-0.1,0.7-0.3,1c-0.2,0.3-0.4,0.5-0.7,0.7c0.4,0.2,0.7,0.4,0.9,0.7c0.2,0.3,0.3,0.7,0.3,1.1
						c0,0.5-0.1,0.9-0.4,1.3s-0.6,0.6-1,0.8c-0.4,0.2-0.9,0.3-1.4,0.3c-0.5,0-1-0.1-1.4-0.3c-0.4-0.2-0.8-0.5-1-0.8
						s-0.4-0.8-0.4-1.3c0-0.4,0.1-0.8,0.3-1.1c0.2-0.3,0.5-0.6,0.9-0.7C399.8,34.4,399.4,33.8,399.4,33.1z M401.3,35.8
						c-0.2,0.2-0.3,0.4-0.3,0.7c0,0.3,0.1,0.5,0.3,0.7c0.2,0.2,0.5,0.3,0.8,0.3s0.6-0.1,0.8-0.3c0.2-0.2,0.3-0.4,0.3-0.7
						c0-0.3-0.1-0.5-0.3-0.7s-0.5-0.3-0.8-0.3C401.7,35.5,401.5,35.6,401.3,35.8z M402.7,32.7c-0.2-0.2-0.4-0.2-0.6-0.2
						c-0.3,0-0.5,0.1-0.6,0.2c-0.2,0.2-0.2,0.4-0.2,0.7c0,0.3,0.1,0.5,0.2,0.6c0.2,0.2,0.4,0.2,0.6,0.2s0.5-0.1,0.6-0.2
						c0.2-0.2,0.2-0.4,0.2-0.6C403,33.1,402.9,32.9,402.7,32.7z"/>
					<path d="M408.8,37.4c0.4,0,0.6-0.2,0.8-0.5c0.2-0.3,0.2-0.9,0.2-1.6c-0.2,0.2-0.4,0.4-0.6,0.5c-0.3,0.1-0.6,0.2-0.9,0.2
						c-0.4,0-0.8-0.1-1.2-0.3c-0.3-0.2-0.6-0.5-0.8-0.8s-0.3-0.8-0.3-1.3c0-0.5,0.1-1,0.3-1.3c0.2-0.4,0.5-0.7,0.9-0.9
						c0.4-0.2,0.9-0.3,1.4-0.3c1,0,1.7,0.3,2.1,1c0.4,0.6,0.6,1.6,0.6,2.8c0,0.9-0.1,1.6-0.2,2.2c-0.2,0.6-0.4,1-0.8,1.3
						s-0.9,0.5-1.6,0.5c-0.5,0-1-0.1-1.3-0.3s-0.7-0.5-0.9-0.8c-0.2-0.3-0.3-0.7-0.3-1.1h1.6C407.9,37.1,408.2,37.4,408.8,37.4z
						 M409.4,34.3c0.2-0.2,0.3-0.4,0.3-0.7c0-0.3-0.1-0.6-0.3-0.8c-0.2-0.2-0.4-0.3-0.7-0.3s-0.5,0.1-0.7,0.3
						c-0.2,0.2-0.3,0.4-0.3,0.8c0,0.3,0.1,0.5,0.3,0.7c0.2,0.2,0.4,0.3,0.8,0.3C409,34.6,409.2,34.5,409.4,34.3z"/>
					<path d="M414.4,37.2l-1.2,3h-1.1l0.6-3H414.4z"/>
					<path d="M422.2,37.5h-2.7l-0.4,1.3h-1.9l2.6-7.3h2.1l2.6,7.3h-1.9L422.2,37.5z M421.7,36.1l-0.9-2.7l-0.9,2.7H421.7z"/>
					<path d="M427.1,31.1v7.7h-1.8v-7.7H427.1z"/>
					<path d="M435.7,40l-0.9-1.3c-0.3,0.1-0.5,0.1-0.8,0.1c-0.7,0-1.3-0.2-1.9-0.5c-0.6-0.3-1-0.8-1.4-1.3c-0.3-0.6-0.5-1.2-0.5-1.9
						s0.2-1.4,0.5-1.9c0.3-0.6,0.8-1,1.4-1.3c0.6-0.3,1.2-0.5,1.9-0.5c0.7,0,1.3,0.2,1.9,0.5c0.6,0.3,1,0.8,1.3,1.3
						c0.3,0.6,0.5,1.2,0.5,1.9c0,0.6-0.1,1.2-0.4,1.7c-0.3,0.5-0.6,0.9-1.1,1.3l1.6,1.9H435.7z M432.6,36.7c0.3,0.4,0.8,0.6,1.4,0.6
						c0.6,0,1-0.2,1.4-0.6s0.5-0.9,0.5-1.5c0-0.6-0.2-1.2-0.5-1.5S434.6,33,434,33c-0.6,0-1.1,0.2-1.4,0.6c-0.3,0.4-0.5,0.9-0.5,1.5
						C432.1,35.8,432.2,36.3,432.6,36.7z"/>
					<path d="M444.5,33v5.8h-1.8V38c-0.2,0.3-0.4,0.5-0.7,0.6c-0.3,0.2-0.6,0.2-1,0.2c-0.4,0-0.8-0.1-1.2-0.3s-0.6-0.5-0.8-0.9
						s-0.3-0.8-0.3-1.3V33h1.8v3.1c0,0.4,0.1,0.7,0.3,0.9c0.2,0.2,0.5,0.3,0.8,0.3c0.3,0,0.6-0.1,0.8-0.3c0.2-0.2,0.3-0.5,0.3-0.9
						V33H444.5z"/>
					<path d="M446.7,38.6c-0.4-0.2-0.7-0.4-0.9-0.7c-0.2-0.3-0.4-0.6-0.4-1h1.8c0,0.2,0.1,0.4,0.3,0.5c0.2,0.1,0.4,0.2,0.6,0.2
						c0.2,0,0.4,0,0.5-0.1c0.1-0.1,0.2-0.2,0.2-0.3c0-0.2-0.1-0.3-0.3-0.4c-0.2-0.1-0.5-0.2-0.8-0.3c-0.4-0.1-0.8-0.2-1-0.3
						c-0.3-0.1-0.5-0.3-0.7-0.5c-0.2-0.2-0.3-0.5-0.3-0.9c0-0.3,0.1-0.6,0.3-0.9s0.5-0.5,0.8-0.6s0.8-0.2,1.3-0.2
						c0.7,0,1.3,0.2,1.7,0.5c0.4,0.4,0.7,0.8,0.7,1.4h-1.6c0-0.2-0.1-0.4-0.3-0.5c-0.1-0.1-0.3-0.2-0.6-0.2c-0.2,0-0.4,0-0.5,0.1
						c-0.1,0.1-0.2,0.2-0.2,0.3c0,0.2,0.1,0.3,0.3,0.4c0.2,0.1,0.5,0.2,0.8,0.2c0.4,0.1,0.8,0.2,1,0.3c0.3,0.1,0.5,0.3,0.7,0.5
						c0.2,0.2,0.3,0.6,0.3,1c0,0.3-0.1,0.6-0.3,0.9s-0.5,0.5-0.8,0.6s-0.8,0.2-1.2,0.2C447.6,38.9,447.1,38.8,446.7,38.6z"/>
					<path d="M451.5,34.3c0.2-0.4,0.5-0.8,0.9-1s0.8-0.4,1.3-0.4c0.4,0,0.8,0.1,1.1,0.2s0.5,0.4,0.7,0.7V33h1.8v5.8h-1.8V38
						c-0.2,0.3-0.4,0.5-0.7,0.7c-0.3,0.2-0.7,0.2-1.1,0.2c-0.5,0-0.9-0.1-1.3-0.4c-0.4-0.2-0.7-0.6-0.9-1s-0.3-1-0.3-1.6
						C451.2,35.3,451.3,34.8,451.5,34.3z M455.1,34.8c-0.2-0.3-0.5-0.4-0.9-0.4c-0.4,0-0.7,0.1-0.9,0.4c-0.2,0.3-0.4,0.6-0.4,1
						c0,0.4,0.1,0.8,0.4,1.1c0.2,0.3,0.5,0.4,0.9,0.4c0.4,0,0.7-0.1,0.9-0.4c0.2-0.3,0.4-0.6,0.4-1
						C455.5,35.5,455.4,35.1,455.1,34.8z"/>
					<path d="M458.7,32.1c-0.2-0.2-0.3-0.4-0.3-0.7c0-0.3,0.1-0.5,0.3-0.7s0.5-0.3,0.8-0.3c0.3,0,0.6,0.1,0.8,0.3s0.3,0.4,0.3,0.7
						c0,0.3-0.1,0.5-0.3,0.7c-0.2,0.2-0.4,0.3-0.8,0.3C459.2,32.4,458.9,32.3,458.7,32.1z M460.3,33v5.8h-1.8V33H460.3z"/>
					<path d="M462.6,38.6c-0.4-0.2-0.7-0.4-0.9-0.7c-0.2-0.3-0.4-0.6-0.4-1h1.8c0,0.2,0.1,0.4,0.3,0.5c0.2,0.1,0.4,0.2,0.6,0.2
						c0.2,0,0.4,0,0.5-0.1c0.1-0.1,0.2-0.2,0.2-0.3c0-0.2-0.1-0.3-0.3-0.4c-0.2-0.1-0.5-0.2-0.8-0.3c-0.4-0.1-0.8-0.2-1-0.3
						c-0.3-0.1-0.5-0.3-0.7-0.5c-0.2-0.2-0.3-0.5-0.3-0.9c0-0.3,0.1-0.6,0.3-0.9s0.5-0.5,0.8-0.6s0.8-0.2,1.3-0.2
						c0.7,0,1.3,0.2,1.7,0.5c0.4,0.4,0.7,0.8,0.7,1.4h-1.6c0-0.2-0.1-0.4-0.3-0.5c-0.1-0.1-0.3-0.2-0.6-0.2c-0.2,0-0.4,0-0.5,0.1
						c-0.1,0.1-0.2,0.2-0.2,0.3c0,0.2,0.1,0.3,0.3,0.4c0.2,0.1,0.5,0.2,0.8,0.2c0.4,0.1,0.8,0.2,1,0.3c0.3,0.1,0.5,0.3,0.7,0.5
						c0.2,0.2,0.3,0.6,0.3,1c0,0.3-0.1,0.6-0.3,0.9s-0.5,0.5-0.8,0.6s-0.8,0.2-1.2,0.2C463.5,38.9,463,38.8,462.6,38.6z"/>
					<path d="M471.4,31.5v7.3h-1.8v-7.3H471.4z"/>
					<path d="M477.8,33.6c0.4,0.4,0.6,1,0.6,1.8v3.4h-1.8v-3.1c0-0.4-0.1-0.7-0.3-0.9c-0.2-0.2-0.5-0.3-0.8-0.3s-0.6,0.1-0.8,0.3
						c-0.2,0.2-0.3,0.5-0.3,0.9v3.1h-1.8V33h1.8v0.8c0.2-0.3,0.4-0.5,0.7-0.6c0.3-0.1,0.6-0.2,1-0.2
						C476.9,32.9,477.4,33.2,477.8,33.6z"/>
					<path d="M479.7,34.3c0.2-0.4,0.5-0.8,0.9-1s0.8-0.4,1.3-0.4c0.4,0,0.7,0.1,1,0.2c0.3,0.2,0.6,0.4,0.7,0.6v-2.7h1.8v7.7h-1.8V38
						c-0.2,0.3-0.4,0.5-0.7,0.7s-0.7,0.2-1.1,0.2c-0.5,0-0.9-0.1-1.3-0.4c-0.4-0.2-0.7-0.6-0.9-1s-0.3-1-0.3-1.6
						C479.3,35.3,479.4,34.8,479.7,34.3z M483.3,34.8c-0.2-0.3-0.5-0.4-0.9-0.4c-0.4,0-0.7,0.1-0.9,0.4c-0.2,0.3-0.4,0.6-0.4,1
						c0,0.4,0.1,0.8,0.4,1.1c0.2,0.3,0.5,0.4,0.9,0.4c0.4,0,0.7-0.1,0.9-0.4c0.2-0.3,0.4-0.6,0.4-1
						C483.7,35.5,483.5,35.1,483.3,34.8z"/>
					<path d="M492.5,33v5.8h-1.8V38c-0.2,0.3-0.4,0.5-0.7,0.6c-0.3,0.2-0.6,0.2-1,0.2c-0.4,0-0.8-0.1-1.2-0.3s-0.6-0.5-0.8-0.9
						s-0.3-0.8-0.3-1.3V33h1.8v3.1c0,0.4,0.1,0.7,0.3,0.9c0.2,0.2,0.5,0.3,0.8,0.3c0.3,0,0.6-0.1,0.8-0.3c0.2-0.2,0.3-0.5,0.3-0.9
						V33H492.5z"/>
					<path d="M494.7,38.6c-0.4-0.2-0.7-0.4-0.9-0.7c-0.2-0.3-0.4-0.6-0.4-1h1.8c0,0.2,0.1,0.4,0.3,0.5c0.2,0.1,0.4,0.2,0.6,0.2
						c0.2,0,0.4,0,0.5-0.1c0.1-0.1,0.2-0.2,0.2-0.3c0-0.2-0.1-0.3-0.3-0.4c-0.2-0.1-0.5-0.2-0.8-0.3c-0.4-0.1-0.8-0.2-1-0.3
						c-0.3-0.1-0.5-0.3-0.7-0.5c-0.2-0.2-0.3-0.5-0.3-0.9c0-0.3,0.1-0.6,0.3-0.9s0.5-0.5,0.8-0.6s0.8-0.2,1.3-0.2
						c0.7,0,1.3,0.2,1.7,0.5c0.4,0.4,0.7,0.8,0.7,1.4h-1.6c0-0.2-0.1-0.4-0.3-0.5c-0.1-0.1-0.3-0.2-0.6-0.2c-0.2,0-0.4,0-0.5,0.1
						c-0.1,0.1-0.2,0.2-0.2,0.3c0,0.2,0.1,0.3,0.3,0.4c0.2,0.1,0.5,0.2,0.8,0.2c0.4,0.1,0.8,0.2,1,0.3c0.3,0.1,0.5,0.3,0.7,0.5
						c0.2,0.2,0.3,0.6,0.3,1c0,0.3-0.1,0.6-0.3,0.9s-0.5,0.5-0.8,0.6s-0.8,0.2-1.2,0.2C495.6,38.9,495.1,38.8,494.7,38.6z"/>
					<path d="M502.8,37.3v1.5h-0.9c-0.6,0-1.1-0.2-1.5-0.5c-0.4-0.3-0.5-0.8-0.5-1.5v-2.3h-0.7V33h0.7v-1.4h1.8V33h1.2v1.5h-1.2v2.3
						c0,0.2,0,0.3,0.1,0.4s0.2,0.1,0.4,0.1H502.8z"/>
					<path d="M506.3,33.2c0.3-0.2,0.7-0.3,1-0.3v1.9h-0.5c-0.4,0-0.8,0.1-1,0.3s-0.3,0.5-0.3,1v2.7h-1.8V33h1.8v1
						C505.7,33.6,506,33.4,506.3,33.2z"/>
					<path d="M508.3,32.1c-0.2-0.2-0.3-0.4-0.3-0.7c0-0.3,0.1-0.5,0.3-0.7s0.5-0.3,0.8-0.3c0.3,0,0.6,0.1,0.8,0.3s0.3,0.4,0.3,0.7
						c0,0.3-0.1,0.5-0.3,0.7c-0.2,0.2-0.4,0.3-0.8,0.3C508.8,32.4,508.5,32.3,508.3,32.1z M510,33v5.8h-1.8V33H510z"/>
					<path d="M511.2,34.3c0.2-0.4,0.5-0.8,0.9-1s0.8-0.4,1.3-0.4c0.4,0,0.8,0.1,1.1,0.2s0.5,0.4,0.7,0.7V33h1.8v5.8h-1.8V38
						c-0.2,0.3-0.4,0.5-0.7,0.7c-0.3,0.2-0.7,0.2-1.1,0.2c-0.5,0-0.9-0.1-1.3-0.4c-0.4-0.2-0.7-0.6-0.9-1s-0.3-1-0.3-1.6
						C510.9,35.3,511,34.8,511.2,34.3z M514.9,34.8c-0.2-0.3-0.5-0.4-0.9-0.4c-0.4,0-0.7,0.1-0.9,0.4c-0.2,0.3-0.4,0.6-0.4,1
						c0,0.4,0.1,0.8,0.4,1.1c0.2,0.3,0.5,0.4,0.9,0.4c0.4,0,0.7-0.1,0.9-0.4c0.2-0.3,0.4-0.6,0.4-1
						C515.2,35.5,515.1,35.1,514.9,34.8z"/>
					<path d="M520.1,31.1v7.7h-1.8v-7.7H520.1z"/>
					<path d="M528.1,37.5h-2.7l-0.4,1.3h-1.9l2.6-7.3h2.1l2.6,7.3h-1.9L528.1,37.5z M527.6,36.1l-0.9-2.7l-0.9,2.7H527.6z"/>
					<path d="M533.8,33.2c0.3-0.2,0.7-0.3,1-0.3v1.9h-0.5c-0.4,0-0.8,0.1-1,0.3s-0.3,0.5-0.3,1v2.7h-1.8V33h1.8v1
						C533.2,33.6,533.4,33.4,533.8,33.2z"/>
					<path d="M541.1,36.3h-4c0,0.4,0.1,0.6,0.3,0.8s0.5,0.3,0.8,0.3c0.4,0,0.8-0.2,0.9-0.6h1.9c-0.1,0.4-0.3,0.7-0.5,1
						c-0.3,0.3-0.6,0.5-1,0.7c-0.4,0.2-0.8,0.3-1.3,0.3c-0.6,0-1.1-0.1-1.5-0.4c-0.4-0.2-0.8-0.6-1-1s-0.4-1-0.4-1.6
						c0-0.6,0.1-1.1,0.4-1.6c0.2-0.4,0.6-0.8,1-1c0.4-0.2,1-0.4,1.5-0.4c0.6,0,1.1,0.1,1.5,0.4c0.4,0.2,0.8,0.6,1,1
						c0.2,0.4,0.4,0.9,0.4,1.5C541.1,36,541.1,36.1,541.1,36.3z M539.3,35.3c0-0.3-0.1-0.5-0.3-0.7c-0.2-0.2-0.5-0.3-0.8-0.3
						c-0.3,0-0.5,0.1-0.8,0.3c-0.2,0.2-0.3,0.4-0.4,0.7H539.3z"/>
					<path d="M542,34.3c0.2-0.4,0.5-0.8,0.9-1s0.8-0.4,1.3-0.4c0.4,0,0.8,0.1,1.1,0.2s0.5,0.4,0.7,0.7V33h1.8v5.8H546V38
						c-0.2,0.3-0.4,0.5-0.7,0.7c-0.3,0.2-0.7,0.2-1.1,0.2c-0.5,0-0.9-0.1-1.3-0.4c-0.4-0.2-0.7-0.6-0.9-1s-0.3-1-0.3-1.6
						C541.7,35.3,541.8,34.8,542,34.3z M545.7,34.8c-0.2-0.3-0.5-0.4-0.9-0.4c-0.4,0-0.7,0.1-0.9,0.4c-0.2,0.3-0.4,0.6-0.4,1
						c0,0.4,0.1,0.8,0.4,1.1c0.2,0.3,0.5,0.4,0.9,0.4c0.4,0,0.7-0.1,0.9-0.4c0.2-0.3,0.4-0.6,0.4-1C546,35.5,545.9,35.1,545.7,34.8z
						"/>
					<path d="M551.2,37.4V36l3.3-4.7h2v4.6h0.9v1.5h-0.9v1.3h-1.8v-1.3H551.2z M554.8,33.3l-1.7,2.6h1.7V33.3z"/>
					<path d="M560.2,37.2l-1.2,3h-1.1l0.6-3H560.2z"/>
					<path d="M568.2,32c0.6,0.3,1,0.7,1.3,1.3c0.3,0.6,0.5,1.2,0.5,1.9c0,0.7-0.2,1.3-0.5,1.9c-0.3,0.6-0.8,1-1.3,1.3
						c-0.6,0.3-1.2,0.5-2,0.5h-2.7v-7.3h2.7C567,31.5,567.7,31.7,568.2,32z M567.7,36.7c0.4-0.4,0.6-0.9,0.6-1.6
						c0-0.7-0.2-1.2-0.6-1.6c-0.4-0.4-0.9-0.6-1.6-0.6h-0.8v4.2h0.8C566.8,37.3,567.3,37.1,567.7,36.7z"/>
					<path d="M576.8,33v5.8H575V38c-0.2,0.3-0.4,0.5-0.7,0.6c-0.3,0.2-0.6,0.2-1,0.2c-0.4,0-0.8-0.1-1.2-0.3s-0.6-0.5-0.8-0.9
						s-0.3-0.8-0.3-1.3V33h1.8v3.1c0,0.4,0.1,0.7,0.3,0.9c0.2,0.2,0.5,0.3,0.8,0.3c0.3,0,0.6-0.1,0.8-0.3c0.2-0.2,0.3-0.5,0.3-0.9
						V33H576.8z"/>
					<path d="M580.5,33.2c0.3-0.2,0.7-0.2,1.1-0.2c0.5,0,0.9,0.1,1.3,0.4s0.7,0.6,0.9,1c0.2,0.5,0.3,1,0.3,1.6
						c0,0.6-0.1,1.1-0.3,1.6c-0.2,0.5-0.5,0.8-0.9,1c-0.4,0.2-0.8,0.4-1.3,0.4c-0.4,0-0.8-0.1-1.1-0.2c-0.3-0.2-0.5-0.4-0.7-0.6v0.8
						H578v-7.7h1.8v2.7C580,33.5,580.2,33.3,580.5,33.2z M582,34.8c-0.2-0.3-0.5-0.4-0.9-0.4c-0.4,0-0.7,0.1-0.9,0.4
						c-0.2,0.3-0.4,0.6-0.4,1c0,0.4,0.1,0.8,0.4,1c0.2,0.3,0.5,0.4,0.9,0.4c0.4,0,0.7-0.1,0.9-0.4c0.2-0.3,0.4-0.6,0.4-1.1
						C582.4,35.4,582.2,35.1,582,34.8z"/>
					<path d="M585.1,34.3c0.2-0.4,0.5-0.8,0.9-1s0.8-0.4,1.3-0.4c0.4,0,0.8,0.1,1.1,0.2s0.5,0.4,0.7,0.7V33h1.8v5.8h-1.8V38
						c-0.2,0.3-0.4,0.5-0.7,0.7c-0.3,0.2-0.7,0.2-1.1,0.2c-0.5,0-0.9-0.1-1.3-0.4c-0.4-0.2-0.7-0.6-0.9-1s-0.3-1-0.3-1.6
						C584.7,35.3,584.9,34.8,585.1,34.3z M588.7,34.8c-0.2-0.3-0.5-0.4-0.9-0.4c-0.4,0-0.7,0.1-0.9,0.4c-0.2,0.3-0.4,0.6-0.4,1
						c0,0.4,0.1,0.8,0.4,1.1c0.2,0.3,0.5,0.4,0.9,0.4c0.4,0,0.7-0.1,0.9-0.4c0.2-0.3,0.4-0.6,0.4-1C589.1,35.5,589,35.1,588.7,34.8z
						"/>
					<path d="M592.3,32.1c-0.2-0.2-0.3-0.4-0.3-0.7c0-0.3,0.1-0.5,0.3-0.7s0.5-0.3,0.8-0.3c0.3,0,0.6,0.1,0.8,0.3s0.3,0.4,0.3,0.7
						c0,0.3-0.1,0.5-0.3,0.7c-0.2,0.2-0.4,0.3-0.8,0.3C592.7,32.4,592.5,32.3,592.3,32.1z M593.9,33v5.8h-1.8V33H593.9z"/>
					<path d="M601.9,34.4v1.5h-4.6v-1.5H601.9z"/>
					<path d="M607.4,31.5v4.4c0,0.4,0.1,0.8,0.3,1c0.2,0.2,0.5,0.4,0.9,0.4s0.7-0.1,1-0.4c0.2-0.2,0.3-0.6,0.3-1v-4.4h1.8v4.3
						c0,0.7-0.1,1.2-0.4,1.7c-0.3,0.5-0.6,0.8-1.1,1c-0.5,0.2-1,0.3-1.6,0.3s-1.1-0.1-1.5-0.3s-0.8-0.6-1.1-1s-0.4-1-0.4-1.7v-4.3
						H607.4z"/>
					<path d="M617.5,37.5h-2.7l-0.4,1.3h-1.9l2.6-7.3h2.1l2.6,7.3h-1.9L617.5,37.5z M617,36.1l-0.9-2.7l-0.9,2.7H617z"/>
					<path d="M622.4,32.9v1.5h2.4v1.4h-2.4v1.6h2.7v1.4h-4.5v-7.3h4.5v1.4H622.4z"/>
				</g>
			</g>
		</g>
	</g>
	<g>
		<g>
			<g>
				<defs>
					<rect id="SVGID_1_" x="647.2" y="9.1" width="57" height="55.2"/>
				</defs>
				<clipPath id="SVGID_00000134213310511996977210000004594833318351181978_">
					<use xlink:href="#SVGID_1_"  style="overflow:visible;"/>
				</clipPath>
			</g>
			<g>
				<path class="st0" d="M704.5,64.6h-57.6V8.8h57.6V64.6z M647.5,64h56.3V9.4h-56.3V64z"/>
			</g>
		</g>
		<g>
			<path d="M683.9,50.4c-0.1-1.2-0.1-2.5-0.2-3.8c-2.3,0-4.7,0-7.1,0c0-0.6-0.1-1.2-0.1-1.8c-0.6,0-1.1,0-1.7,0c0,1.1,0,2.2,0,3.4
				c0.5,0,1.1,0.1,1.6,0.1c0,0.6,0,1.1,0,1.7c-1.1,0-2.3,0-3.4,0c-0.1,0.6-0.1,1.2-0.2,1.8c-0.6,0-1.3,0-1.9,0c0,0,0,0,0,0
				c0-0.4,0.1-0.8,0.1-1.2c0-2.3,0-4.6,0-6.9c0-0.7,0.2-1.1,0.9-1.1c0.5,0,1.1,0.2,1.6,0.2c1.5,0,3,0,4.6,0c0,0.6,0.1,1.2,0.1,1.7
				c1.2,0,2.4,0,3.5,0c0-0.6,0-1.1,0-1.6c-0.3,0-0.6-0.1-0.8-0.1c-0.3,0-0.6-0.1-0.8-0.1c-0.3-1.7-0.1-1.8,1.4-1.8
				c0.9,0,1.9,0,2.8,0c1.5,0,3,0,4.6,0c0.1,0.7,0.1,1.3,0.1,1.9c0.6,0,1.1,0.1,1.7,0.1c0.1,0.6,0.1,1.1,0.1,1.7
				c0.6,0,1.1,0.1,1.7,0.1c0,0.6,0.1,1.1,0.1,1.8c1.2,0,2.3,0,3.4,0c0,0.6,0,1.2,0,1.7c-0.6,0-1.1,0.1-1.6,0.1c0,0.6,0,1.1,0,1.8
				c1.2,0,2.3,0,3.5,0c0.1,0.7,0.1,1.3,0.1,1.8l0,0c-1.2,0-2.4,0-3.6,0c0,0.6,0,1.1,0,1.7c0.5,0,1,0.1,1.6,0.1c0,0.6,0,1.1,0,1.7
				c-3.5,0-7,0-10.7,0c0-1.8,0-3.5,0-5.4C684.9,50.2,684.4,50.3,683.9,50.4L683.9,50.4z M685.5,44.9c0.1,0.5,0.1,1.1,0.2,1.6
				c0.6,0,1.1,0,1.7,0c0-0.6,0-1.1,0-1.7C686.7,44.8,686.1,44.9,685.5,44.9c0-0.6,0.1-1.2,0.1-1.8c-0.7,0-1.2,0-1.7,0
				c0,0.6,0,1.1,0,1.7C684.4,44.8,685,44.8,685.5,44.9z M687.4,53.7c1.9,0,3.6,0,5.3,0c0-1.8,0-3.5,0-5.3c-1.6,0-3.1,0-4.7,0
				c-0.2,0-0.6,0.3-0.6,0.5C687.4,50.5,687.4,52.1,687.4,53.7z"/>
			<path d="M682.1,14.5c0.5-0.1,1-0.1,1.7-0.2c0,1.3,0,2.4,0,3.6c0,0,0,0,0,0c-0.6,0-1.1,0.1-1.7,0.1c-0.1,0.6-0.1,1.1-0.1,1.7
				c-1.2,0-2.4,0-3.6,0c0-0.5,0-1.1,0-1.6c-0.6,0-1.1,0-1.7,0c0,0.6,0,1.1,0,1.7c0.6,0,1.2-0.1,1.7-0.1c0,0.7-0.1,1.4-0.1,2.1l0,0
				c-0.5-0.1-1.1-0.1-1.6-0.2c0,1.2,0,2.3,0,3.4c1.2,0,2.3,0,3.5,0c0.1,0.7,0.1,1.2,0.2,1.7c-3,0-6,0-9.1,0c0,1.3,0,2.4,0,3.6
				c-0.7,0-1.3,0.1-1.9,0.1l0,0c0-1.2,0-2.4,0-3.6c-0.7,0-1.2-0.1-1.8-0.1l0,0c0-0.6,0-1.2,0-1.8l0,0c1.2,0,2.4,0,3.5,0
				c0-1.2,0-2.2,0-3.4c-0.6,0-1.2,0.1-1.8,0.1c0-0.7,0-1.3,0-2l0,0c0.6,0,1.1,0,1.8,0c0-1.8,0-3.5,0-5.2c-0.6,0-1.1-0.1-1.8-0.1
				c0-0.6-0.1-1.2-0.1-1.8c-0.6,0-1-0.1-1.6-0.1c0-0.5,0-1,0-1.7c1.7,0,3.5,0,5.4,0c0,1.2,0,2.3,0,3.5c0.6,0,1.2,0.1,1.7,0.1
				c0.1,0.6,0.1,1.2,0.2,1.8c-0.6,0-1.2-0.1-1.8-0.1c0,0.7,0,1.2,0,1.7c0.6,0,1.1,0,1.7,0c0-0.6,0.1-1.1,0.1-1.7
				c0.5,0,1-0.1,1.6-0.1c0-0.5,0.1-1,0.1-1.7c0.5,0,1-0.1,1.7-0.1c0-0.6,0.1-1.2,0.1-1.8c0.6,0,1.1-0.1,1.7-0.1
				c0-0.5,0.1-1.1,0.1-1.7c1.7,0,3.4,0,5.2,0c0,0.5,0,1,0,1.7c-1.1,0-2.2,0-3.5,0C682.1,13.2,682.1,13.8,682.1,14.5
				c-0.6,0-1.2-0.1-1.9-0.2c0,0.7,0.1,1.2,0.1,1.7c0.6,0,1.2,0,1.7,0C682,15.5,682.1,15,682.1,14.5z M673.1,21.6
				c-0.1-2.1-0.1-2.1-1.8-1.8c0,0.5,0,1.1,0,1.6C672,21.5,672.5,21.6,673.1,21.6c0,1,0,2.1,0,3.2c0.6,0,1.1,0,1.6,0
				c0-1.1,0-2.2,0-3.3C674.1,21.6,673.6,21.6,673.1,21.6z"/>
			<path d="M687.3,24.9c3,0,6,0,9,0c0.1,0.6,0.1,1.1,0.2,1.7c1.2,0,2.3,0,3.5,0c0-0.6,0.1-1.1,0.1-1.7c0.5,0,1,0,1.6,0
				c0,2.3,0,4.7,0,7.1c-0.5,0-1,0.1-1.6,0.1c0,0.5,0,1,0,1.7c0.5,0,1,0.1,1.6,0.1c0,1.8,0,3.5,0,5.3c-0.5,0-1.1,0.1-1.6,0.1
				c0,0.5,0,1,0,1.7c0.5,0,1,0.1,1.6,0.1c0,3.6,0,7.1,0,10.8c-0.6,0-1.1,0.1-1.7,0.1l0,0c0-1.8,0-3.6,0-5.4
				c-0.7-0.1-1.3-0.1-1.8-0.1c0-0.6,0-1.2,0-1.7c0.6,0,1.1-0.1,1.7-0.1c0-0.6,0-1.1,0-1.7c-0.6,0-1.1,0.1-1.7,0.1c0-1.8,0-3.7,0-5.5
				c0.6,0,1.1-0.1,1.7-0.1c0-0.6,0-1.1,0-1.7c-0.6,0-1.1,0-1.7,0c-0.1,0.6-0.1,1.1-0.2,1.8c-1.2,0-2.3,0-3.5,0
				c-0.1,0.6-0.1,1.2-0.1,1.7c-0.6,0-1.1,0-1.7,0c0-0.6-0.1-1.1-0.1-1.6c-0.6-0.1-1.1-0.1-1.7-0.2c0-0.6-0.1-1.1-0.1-1.7
				c-0.6-0.1-1.1-0.1-1.7-0.1c0-0.6,0-1.1,0-1.7c3,0,5.9,0,8.9,0c0-1.2,0-2.4,0-3.5c0.7-0.1,1.2-0.1,1.7-0.2c0-0.6,0-1.1,0-1.7
				c-3,0-5.9,0-9,0c0,1.2,0,2.3,0,3.5c-0.6,0-1.2,0-1.8,0c0-1.8,0-3.5,0-5.4c-0.7,0-1.3,0-1.9,0C687.3,26.1,687.3,25.5,687.3,24.9
				C687.3,24.9,687.3,24.9,687.3,24.9z"/>
			<path d="M660.4,26.7c0-0.5,0-1.1,0-1.7c1.1,0,2.2,0,3.5,0c0-3,0-5.8,0-8.8c0.7,0,1.2,0,1.7,0l0,0c0.1,0.6,0.1,1.1,0.2,1.7
				c0.6,0,1.1,0,1.7,0c0.1-0.6,0.1-1.2,0.2-1.7l0,0c0.5,0,1.1,0,1.7,0c0,1.2,0,2.4,0,3.5c0,0,0,0,0,0c-0.2,0-0.3,0.1-0.5,0.1
				c-1.4,0.1-1.4,0.1-1.3,1.4c0,0.2,0.1,0.3,0.1,0.5c-0.6,0-1.2-0.1-1.9-0.1c0,0.6,0.1,1.1,0.1,1.6c0.7,0,1.3,0,1.9,0
				c0,0.6,0,1.2,0,1.8l0,0c-0.6,0-1.2,0-1.8,0c-0.1,0.7-0.2,1.2-0.3,1.7c-0.5,0.1-1,0.1-1.6,0.2c0,0.6,0,1.1,0,1.6
				c0.6,0,1.1,0,1.8,0c-0.1-0.7-0.2-1.3-0.2-1.9c0.7,0,1.4,0.1,2.1,0.1l0,0c0,1.2,0,2.4,0,3.6c0.6,0.1,1.2,0.1,1.8,0.2c0,0,0,0,0,0
				c0,1.8-0.1,3.5-0.1,5.2c-0.7,0-1.2,0-1.7,0c0-1.2,0-2.3,0-3.4c-1.3,0-2.4,0-3.6,0c0,1.2,0,2.3,0,3.3c0,0,0,0,0,0
				c-0.6,0-1.2,0.1-1.8,0.1c0-0.6,0-1.1,0-1.8c-0.7,0-1.2,0-1.8,0c0-0.6,0-1.1,0-1.7c0.6,0,1.2-0.1,1.7-0.1c0-0.6,0-1.1,0-1.7
				c-0.6,0-1.1-0.1-1.6-0.1c0-0.7,0-1.3,0-1.9l0,0c0.6,0,1.1,0.1,1.7,0.1c0-0.7,0-1.2,0-1.8C661.5,26.7,660.9,26.7,660.4,26.7
				C660.4,26.6,660.4,26.7,660.4,26.7z"/>
			<path d="M662.1,50.3c0,4.2,0,8.3,0,12.4c-4.2,0-8.3,0-12.5,0c0-4.1,0-8.2,0-12.4C653.8,50.3,657.9,50.3,662.1,50.3z M651.4,60.9
				c3,0,5.9,0,8.8,0c0-3,0-5.9,0-8.9c-3,0-5.9,0-8.8,0C651.4,55,651.4,57.9,651.4,60.9z"/>
			<path d="M649.6,23c0-4.1,0-8.2,0-12.3c4.2,0,8.3,0,12.4,0c0,4.1,0,8.2,0,12.3C658,23,653.8,23,649.6,23z M651.4,21.5
				c3,0,5.9,0,8.8,0c0-3,0-6,0-9c-3,0-5.9,0-8.8,0C651.4,15.5,651.4,18.5,651.4,21.5z"/>
			<path d="M701.7,10.7c0,4.2,0,8.2,0,12.4c-4.2,0-8.2,0-12.4,0c0-4.1,0-8.2,0-12.4C693.4,10.7,697.5,10.7,701.7,10.7z M691,21.4
				c3,0,6,0,8.9,0c0-3,0-6,0-8.9c-3,0-5.9,0-8.9,0C691,15.5,691,18.4,691,21.4z"/>
			<path d="M667.6,53.8c0-0.6,0-1.2,0-1.8c0,0,0,0,0,0c1.2,0,2.3,0,3.5,0c0,0,0,0,0,0c0,1.7,0,3.4,0,5.3c0.8,0,1.4,0,2,0l0,0
				c0,0.7,0,1.3,0,2l0,0c-0.6,0-1.2,0-1.8,0c0,1.1,0,2.2,0,3.4c-2.5,0-4.8,0-7.2,0c0-0.5,0-1,0-1.6c0.5,0,1-0.1,1.7-0.1
				c0-1.1,0-2.3,0-3.5c0.6-0.1,1.1-0.1,1.8-0.1c0.1-0.6,0.1-1.2,0.2-1.8l0,0c0.6,0,1.1,0,1.7,0c0-0.7,0-1.2,0-1.8
				C668.7,53.8,668.1,53.8,667.6,53.8L667.6,53.8z"/>
			<path d="M687.2,59.4c1.2-0.1,2.4-0.2,3.7-0.2c0.1,0.7,0.1,1.2,0.2,1.8c0.6,0,1.1,0,1.7,0c0-0.5,0.1-1.1,0.1-1.7
				c0.6,0,1.1-0.1,1.7-0.1c0.1-0.6,0.1-1.1,0.2-1.7c2.4,0,4.7,0,7.1,0c0,1.2,0,2.3,0,3.5c-0.5,0-1.1,0.1-1.7,0.1
				c0,0.5-0.1,1-0.1,1.6c-0.5,0-1,0-1.7,0c0-1.1,0-2.2,0-3.4c-0.7,0-1.2,0-1.8,0c0,0.5-0.1,1.1-0.1,1.7c-0.5,0-1.1,0.1-1.7,0.1
				c0,0.6-0.1,1.1-0.1,1.7c-2.4,0-4.7,0-7,0C687.4,61.6,687.3,60.5,687.2,59.4L687.2,59.4z"/>
			<path d="M655,28.3c1.2,0,2.5,0.1,3.7,0.1l0,0c0,0.4-0.1,0.7-0.1,1.1c0,1.5-0.1,3-0.1,4.4c-0.5,0-1.1,0-1.8,0c0,1.3,0,2.5,0,3.7
				l0,0c-0.6,0-1.1,0-1.8-0.1c0,0.7,0,1.3,0,1.9l0,0c-0.5,0-1.1,0-1.7,0c0-1.9,0-3.7,0-5.5l0,0c0.6,0,1.1,0,1.7,0c0-0.7,0-1.2,0-1.8
				c-0.6,0-1.2,0-1.7,0l0,0c0-0.6,0-1.1,0-1.8c0.6,0,1.1-0.1,1.7-0.1C654.9,29.6,655,28.9,655,28.3L655,28.3z"/>
			<path d="M674.8,57.3c1.7,0,3.5,0,5.3,0c0.1-0.6,0.1-1.1,0.2-1.7c0.5,0,1,0,1.6,0c0,0.5,0.1,1,0.1,1.7c0.5,0,1.1,0.1,1.6,0.2
				c0,0.6,0,1.1,0,1.7c-1.1,0-2.2,0-3.4,0c-0.1,0.6-0.1,1.2-0.2,1.7c-1.1,0-2.3,0-3.5,0c0-0.5-0.1-1-0.1-1.7c-0.6,0-1.2,0-1.7,0l0,0
				C674.9,58.6,674.9,57.9,674.8,57.3L674.8,57.3z"/>
			<path d="M683.9,50.4c0,0.5-0.1,1-0.2,1.6c-0.5,0-1,0.1-1.6,0.1c0,0.5-0.1,1-0.1,1.7c-0.5,0-1,0-1.7,0c0-0.5-0.1-1-0.1-1.6
				c-0.6,0-1.1-0.1-1.8-0.1c0-1,0-2,0-2.9c0-0.2,0.3-0.6,0.6-0.6c1-0.1,1.9,0,3,0c0.1,0.6,0.1,1.2,0.1,1.7
				C682.7,50.2,683.3,50.3,683.9,50.4C683.9,50.4,683.9,50.4,683.9,50.4z"/>
			<path d="M656.7,46.6c-0.5,0-1.1,0.1-1.7,0.1c0,0.6-0.1,1.1-0.1,1.7c-1.7,0-3.4,0-5.2,0c0-0.5,0-1,0-1.7c1.1,0,2.2,0,3.5,0
				c0-1.2,0-2.4,0-3.6c0.7,0,1.2,0.1,1.8,0.1l0,0c0,0.6,0.1,1.1,0.1,1.7c0.6,0,1.2,0.1,1.7,0.1C656.7,45.5,656.7,46,656.7,46.6
				L656.7,46.6z"/>
			<path d="M673.1,57.3c0-1.1,0-2.2,0-3.4c0.5,0,1.1-0.1,1.7-0.1c0-0.5,0.1-1,0.1-1.6c0.5,0,1,0,1.7,0c0,0.5,0.1,1,0.1,1.6
				c0.6,0,1.1,0.1,1.7,0.1c0,0.6,0,1.1,0,1.7c-1.2,0-2.3,0-3.5,0c0,0.7,0,1.2,0,1.7c0,0,0,0,0,0C674.3,57.3,673.7,57.3,673.1,57.3
				L673.1,57.3z"/>
			<path d="M651.3,43c-0.6,0-1.1,0-1.7,0c0-2.4,0-4.7,0-7.2c0.5,0,1.1,0,1.7,0C651.3,38.1,651.3,40.5,651.3,43z"/>
			<path d="M653.2,33.9c-1.2,0-2.3,0-3.6,0c0-1.8,0-3.5,0-5.3c0.5,0,1.1,0,1.7,0c0,1.1,0,2.3,0,3.5c0.7,0,1.3,0.1,1.8,0.1l0,0
				C653.2,32.7,653.2,33.3,653.2,33.9L653.2,33.9z"/>
			<path d="M654.9,43.1c0-1.3,0-2.5,0-3.8c0,0,0,0,0,0c0.6,0,1.1-0.1,1.8-0.1c0-0.6,0-1.1,0-1.7l0,0c0.6,0,1.2,0,1.8,0
				c0,1.1,0,2.3,0,3.5c-0.6,0-1.1,0.1-1.6,0.1c-0.1,0.7-0.1,1.2-0.1,1.8C656,43,655.5,43,654.9,43.1L654.9,43.1z"/>
			<path d="M667.6,52c-1.2,0-2.4,0-3.7,0c0-1.3,0-2.5,0-3.7l0,0c0.6,0,1.1,0.1,1.8,0.1c0,0.6,0.1,1.1,0.1,1.7
				c0.6,0.1,1.1,0.1,1.7,0.2C667.5,50.9,667.6,51.5,667.6,52L667.6,52z"/>
			<path d="M683.8,17.9c1.1,0,2.3,0,3.5,0c0,0.6,0,1.2,0,1.7c-0.6,0-1.1,0.1-1.7,0.1c0,0.7-0.1,1.3-0.1,1.9l0,0
				c-0.6,0-1.1,0.1-1.7,0.1l0,0C683.9,20.5,683.9,19.2,683.8,17.9L683.8,17.9z"/>
			<path d="M700,52c0,0.5,0,1.1,0,1.7c0.6,0,1.1,0.1,1.7,0.1c0,0.6,0,1.1,0,1.7c-1.2,0-2.3,0-3.4,0c0-1.2,0-2.3,0-3.5c0,0,0,0,0,0
				C698.8,52.1,699.4,52.1,700,52L700,52z"/>
			<path d="M663.9,48.3c-1.1,0-2.3,0-3.5,0c0-0.6,0-1.2,0-1.7l0,0c0.6,0,1.1,0,1.7,0c0-0.7,0-1.2,0-1.8c0.6,0,1.2,0,1.8,0
				C663.9,46,663.9,47.2,663.9,48.3L663.9,48.3z"/>
			<path d="M667.6,55.5c-1.2,0-2.4,0-3.7,0c0-0.5,0-1,0-1.7c1.2,0,2.4,0,3.6,0c0,0,0,0,0,0C667.6,54.4,667.6,55,667.6,55.5
				C667.6,55.6,667.6,55.5,667.6,55.5z"/>
			<path d="M655,28.3c-1.2,0.1-2.3,0.2-3.7,0.3c0.1-0.8,0.1-1.4,0.2-2c0,0,0,0,0,0c1.1,0.1,2.2,0.1,3.4,0.2
				C654.9,27.3,655,27.8,655,28.3C655,28.3,655,28.3,655,28.3z"/>
			<path d="M674.8,59.3c0,1.1,0,2.2,0,3.4c-0.6,0-1.1,0-1.7,0c0-1.1,0-2.3,0-3.4c0,0,0,0,0,0C673.7,59.3,674.3,59.3,674.8,59.3
				C674.9,59.3,674.8,59.3,674.8,59.3z"/>
			<path d="M685.5,21.7c0.6,0,1.1-0.1,1.7-0.1c0,1.2,0,2.3,0,3.4c0,0,0,0,0,0c-0.6,0-1.2,0-1.8,0C685.6,23.8,685.6,22.7,685.5,21.7
				C685.6,21.6,685.5,21.7,685.5,21.7z"/>
			<path d="M658.8,26.6c-0.6,0.1-1.3,0.1-2,0.2c0-0.6,0-1.1,0-1.7c0.5,0,1,0,1.6,0C658.5,25.5,658.6,26,658.8,26.6
				C658.7,26.6,658.8,26.6,658.8,26.6z"/>
			<path d="M651.5,26.6c-0.6,0.1-1.2,0.1-1.9,0.2c0-0.7,0-1.2,0-1.8c0.6,0,1.1,0,1.6,0C651.4,25.5,651.4,26.1,651.5,26.6
				C651.5,26.6,651.5,26.6,651.5,26.6z"/>
			<path d="M665.7,16.2c0-0.6,0.1-1.1,0.1-1.8c0.6,0,1.1,0,1.7,0c0.1,0.6,0.1,1.2,0.1,1.8c0,0,0,0,0,0
				C667,16.1,666.3,16.1,665.7,16.2C665.6,16.1,665.7,16.2,665.7,16.2z"/>
			<path d="M687.2,59.4c-0.5-0.1-1-0.2-1.5-0.3c0-0.5,0-1,0-1.6c0.5,0,1,0,1.7,0C687.3,58.1,687.3,58.7,687.2,59.4
				C687.2,59.4,687.2,59.4,687.2,59.4z"/>
			<path d="M658.4,46.5c0.1,0.6,0.1,1.1,0.2,1.8c-0.7,0-1.2,0-1.8,0c0-0.6-0.1-1.2-0.1-1.8c0,0,0,0,0,0
				C657.3,46.6,657.8,46.6,658.4,46.5L658.4,46.5z"/>
			<path d="M660.4,46.6c-0.7,0-1.3,0-2,0c0,0,0,0,0,0c0.1-0.6,0.1-1.2,0.2-1.8c0.6,0,1.2,0,1.8,0C660.4,45.4,660.4,46,660.4,46.6
				L660.4,46.6z"/>
			<path d="M658.7,28.4c0-0.6,0.1-1.2,0.1-1.8c0,0,0,0,0,0c0.6,0,1.1,0.1,1.7,0.1c0,0,0,0,0,0c0,0.6,0,1.2,0,1.8c0,0,0,0,0,0
				C659.8,28.4,659.2,28.4,658.7,28.4L658.7,28.4z"/>
			<path d="M664,10.7c0.6,0,1.1,0,1.6,0c0,0.5,0,1,0,1.6c-0.5,0-1,0-1.6,0C664,11.8,664,11.3,664,10.7z"/>
			<path d="M683.8,61.1c0,0.6,0,1.1,0,1.7c-0.6,0-1.1,0-1.7,0c0-0.6,0-1.1,0-1.7C682.6,61.1,683.2,61.1,683.8,61.1z"/>
			<path class="st1" d="M660.4,44.8c-0.6,0-1.1,0-1.8,0c-0.1,0.6-0.1,1.2-0.2,1.8c-0.6,0-1.2,0-1.8,0c0-0.5,0.1-1.1,0.1-1.7
				c-0.6,0-1.1-0.1-1.7-0.1c0-0.6-0.1-1.1-0.1-1.7c0.5,0,1.1-0.1,1.7-0.1c0-0.6,0.1-1.1,0.1-1.8c0.5,0,1.1-0.1,1.6-0.1
				c0-1.2,0-2.3,0-3.5l0,0c1.2-0.1,2.4-0.1,3.8-0.2c0-0.7,0-1.2,0-1.8l0,0c0.6,0,1.2-0.1,1.8-0.1c0,0.6,0,1.2,0,1.9
				c1.2,0.1,2.4,0.1,3.7,0.2c0,0.5-0.1,1.1-0.1,1.7c0.7,0,1.2,0,1.7,0c0.2-1.7,0-1.9-1.6-1.6c0-0.6-0.1-1.2-0.1-1.8
				c-1.2-0.1-2.4-0.2-3.5-0.2c0-1.1,0-2.2,0-3.3c1.2,0,2.3,0,3.6,0c0,1.1,0,2.2,0,3.4c0.6,0,1,0,1.7,0c0-1.7,0.1-3.5,0.1-5.2
				c0.6,0,1.1-0.1,1.9-0.1c0-1.2,0-2.3,0-3.6c3.1,0,6.1,0,9.1,0c0,0,0,0,0,0c0,1.2,0,2.4,0,3.7c-0.7,0-1.2,0-1.7,0
				c-0.1-0.6-0.3-1.2-0.4-1.8c-1.7,0-3.4,0-5.2,0c0.4,1.5-0.3,2.1-1.8,1.7c0,0.5,0.1,0.8,0.1,1.2c2.1-1.6,4.3-2,6.7-1.3
				c0.2,0.1,0.4,0,0.6,0c0.4,0.4,0.9,0.8,1.4,1.3c0.1-0.5,0.2-0.9,0.2-1.1c1.2,0,2.3,0,3.4,0c0,0.6,0,1.1,0,1.7
				c-0.6,0-1.1,0.1-1.6,0.1c0,0.6,0,1.1,0,1.7c0.6,0,1.1,0.1,1.7,0.1c0,0.6,0.1,1.1,0.1,1.7c0.6,0,1.1,0.1,1.7,0.1
				c0,0.6,0,1.1,0,1.7c-0.6,0-1.1,0.1-1.7,0.1c0,0.6,0,1.1,0,1.7c1.2,0,2.3,0,3.4,0c0-2.4,0-4.7,0-7.1c-0.6,0-1.1-0.1-1.7-0.1
				c0-1.3,0-2.5,0-3.6l0,0c0.6,0,1.2,0.1,1.8,0.1c0-0.7,0-1.3,0-1.9l0,0c0.6,0,1.2,0,1.9,0c0,1.8,0,3.5,0,5.4c0.7,0,1.2,0,1.8,0
				c0-1.1,0-2.3,0-3.5c3,0,6,0,9,0c0,0.5,0,1,0,1.7c-0.5,0-1.1,0.1-1.7,0.2c0,1.1,0,2.3,0,3.5c-3.1,0-6,0-8.9,0c0,0.6,0,1.1,0,1.7
				c0.5,0,1,0.1,1.7,0.1c0,0.6,0.1,1.1,0.1,1.7c0.6,0.1,1.1,0.1,1.7,0.2c0,0.5,0.1,1,0.1,1.6c0.5,0,1,0,1.7,0c0-0.5,0.1-1,0.1-1.7
				c1.2,0,2.3,0,3.5,0c0.1-0.6,0.1-1.2,0.2-1.8c0.6,0,1.1,0,1.7,0c0,0.6,0,1.1,0,1.7c-0.6,0-1.1,0.1-1.7,0.1c0,1.8,0,3.7,0,5.5l0,0
				c-0.7,0-1.4,0.1-2.1,0.1c0.1-0.7,0.1-1.3,0.2-2c-1.3,0-2.4,0-3.6,0c0,0.6,0,1.2,0,1.8c1.2,0.1,2.3,0.2,3.4,0.2
				c0.1,0.5,0.2,1.1,0.3,1.7c0.6,0,1.2,0,1.7,0l0,0c0,0.5,0,1.1,0,1.7c0.5,0,1.1,0.1,1.8,0.1c0,1.8,0,3.6,0,5.4c-0.6,0-1.2,0-1.8,0
				c0-0.6-0.1-1.1-0.1-1.8c-1.2,0-2.3,0-3.5,0c0-0.6,0-1.2,0-1.8c0.5,0,1-0.1,1.6-0.1c0-0.5,0-1,0-1.7c-1.1,0-2.2,0-3.4,0
				c0-0.6-0.1-1.2-0.1-1.8c-0.6,0-1.1-0.1-1.7-0.1c0-0.6-0.1-1.1-0.1-1.7c-0.5,0-1-0.1-1.7-0.1c0-0.6-0.1-1.1-0.1-1.9
				c-1.6,0-3.1,0-4.6,0c-0.9,0-1.9,0-2.8,0c-1.5,0-1.6,0.2-1.4,1.8c0.3,0,0.5,0.1,0.8,0.1c0.2,0,0.5,0,0.8,0.1c0,0.5,0,1,0,1.6
				c-1.1,0-2.3,0-3.5,0c0-0.5-0.1-1.1-0.1-1.7c-1.6,0-3.1,0-4.6,0c-0.5,0-1.1-0.2-1.6-0.2c-0.7,0-0.9,0.4-0.9,1.1c0,2.3,0,4.6,0,6.9
				c0,0.4-0.1,0.8-0.1,1.2c-1.2,0-2.3,0-3.5,0c0-0.6-0.1-1.1-0.1-1.8c-0.6-0.1-1.1-0.1-1.7-0.2c0-0.6-0.1-1.1-0.1-1.7
				c-0.6,0-1.2-0.1-1.8-0.1c0-1.2,0-2.3,0-3.5l0,0c1.2,0,2.4,0,3.6,0c0-1.3,0-2.5,0-3.7c-1.8,0-3.6,0-5.3,0c0-0.6,0-1.1,0-1.7
				c-0.6,0-1.2,0-1.7,0c0,0.6,0,1.1,0,1.7c0.6,0,1.2,0,1.7,0c0,0.7,0,1.3,0,2l0,0c-0.6,0-1.1,0-1.8,0
				C660.4,43.7,660.4,44.3,660.4,44.8L660.4,44.8z M669.8,42.4c0.6-0.1,0.8-0.1,1-0.2c1.3-0.4,2.5-0.5,3.9-0.1
				c3.2,0.8,6.4-1.5,6.8-4.8c0.4-3.3-1.9-6.2-5.3-6.5c-3.3-0.2-6.2,2.3-6.1,5.7C670.1,38.4,671,40.3,669.8,42.4z M696.3,30.4
				c-1.2,0-2.3,0-3.4,0c0,0.6,0,1.1,0,1.6c1.2,0,2.3,0,3.4,0C696.3,31.5,696.3,31,696.3,30.4z"/>
			<path class="st1" d="M687.4,53.7c0-1.6,0-3.2,0-4.8c0-0.2,0.4-0.5,0.6-0.5c1.5,0,3,0,4.7,0c0,1.8,0,3.5,0,5.3
				C691,53.7,689.2,53.7,687.4,53.7z M689.3,51.9c0.6,0,1.1,0,1.7,0c0-0.6,0-1.1,0-1.7c-0.6,0-1.1,0-1.7,0
				C689.3,50.8,689.3,51.4,689.3,51.9z"/>
			<path class="st1" d="M685.5,44.9c-0.5-0.1-1.1-0.1-1.6-0.2c0-0.6,0-1.1,0-1.7c0.6,0,1.1,0,1.7,0
				C685.6,43.7,685.5,44.3,685.5,44.9C685.5,44.9,685.5,44.9,685.5,44.9z"/>
			<path class="st1" d="M685.5,44.9c0.6,0,1.2-0.1,1.8-0.1c0,0.7,0,1.2,0,1.7c-0.6,0-1.1,0-1.7,0C685.6,45.9,685.6,45.4,685.5,44.9
				C685.5,44.9,685.5,44.9,685.5,44.9z"/>
			<path class="st1" d="M685.6,21.6c0,1.1,0,2.2,0,3.3l0,0c-0.6,0-1.1,0-1.7,0c0,0.7,0,1.2,0,1.8c0.6,0,1.2,0,1.7,0c0,0,0,0,0,0
				c0,0.6,0,1.2,0,1.8l0,0c-1.2,0-2.3,0-3.5,0c0-0.6-0.1-1.1-0.1-1.6c-0.6,0-1.1-0.1-1.7-0.1c0,0,0,0,0,0c-0.1-0.5-0.1-1.1-0.2-1.7
				c-1.1,0-2.3,0-3.5,0c0-1.2,0-2.2,0-3.4c0.5,0.1,1.1,0.1,1.6,0.2c0.1,0.4,0.2,0.9,0.2,1.3c0.6,0,1.1,0,1.6,0c0-0.5,0-1,0-1.6
				c-0.7,0.1-1.3,0.2-1.9,0.2c0-0.7,0.1-1.4,0.1-2.1l0,0c1.2,0,2.4,0,3.6,0c0-0.5,0.1-1.1,0.1-1.7c0.6,0,1.2-0.1,1.7-0.1
				c0,1.3,0.1,2.6,0.1,3.8c-0.6-0.1-1.2-0.2-1.8-0.3c0,0.6,0,1.1,0,1.6c0.6,0,1.1,0,1.6,0c0.1-0.5,0.1-0.9,0.2-1.3
				C684.5,21.7,685,21.6,685.6,21.6z"/>
			<path class="st1" d="M667.6,24.9c0-0.6,0-1.2,0-1.8l0,0c0.6,0,1.1-0.1,1.7-0.1c0-0.5,0.1-1,0.1-1.4c0,0,0,0,0,0
				c0.6,0,1.1-0.1,1.8-0.1c0,1.2,0,2.2,0,3.4C670,24.9,668.8,24.9,667.6,24.9z"/>
			<path class="st1" d="M669.4,30.4c-0.6,0-1.1-0.1-1.8-0.2c0-1.2,0-2.4,0-3.6c0.5,0,1.1,0.1,1.8,0.1
				C669.4,28,669.4,29.2,669.4,30.4z"/>
			<path class="st1" d="M673.1,21.7c0.5,0,1.1-0.1,1.7-0.1c0,1.1,0,2.2,0,3.3c-0.5,0-1,0-1.6,0C673.1,23.8,673.1,22.7,673.1,21.7
				L673.1,21.7z"/>
			<path class="st1" d="M673.1,21.6c-0.6,0-1.1-0.1-1.8-0.2c0-0.6,0-1.1,0-1.6C673,19.5,673,19.5,673.1,21.6
				C673.1,21.7,673.1,21.6,673.1,21.6z"/>
			<path class="st1" d="M665.6,26.6c0.1-0.5,0.2-1,0.3-1.7c0.6,0,1.2,0,1.8,0c0,0.6,0,1.2,0,1.8C666.9,26.6,666.2,26.6,665.6,26.6
				L665.6,26.6z"/>
			<path class="st1" d="M667.6,21.7c0-0.2-0.1-0.3-0.1-0.5c-0.1-1.4-0.1-1.4,1.3-1.4c0.2,0,0.3,0,0.5-0.1c0,0.7,0,1.3,0,2
				c0,0,0,0,0,0C668.8,21.6,668.2,21.6,667.6,21.7L667.6,21.7z"/>
			<path class="st1" d="M682.1,14.5c-0.1,0.5-0.1,1-0.2,1.6c-0.5,0-1,0-1.7,0c0-0.5,0-1-0.1-1.7C680.9,14.4,681.5,14.4,682.1,14.5
				C682.2,14.5,682.1,14.5,682.1,14.5z"/>
			<path class="st1" d="M678.4,19.6c-0.5,0-1.1,0.1-1.7,0.1c0-0.6,0-1.1,0-1.7c0.5,0,1.1,0,1.7,0C678.3,18.6,678.3,19.1,678.4,19.6
				C678.3,19.6,678.4,19.6,678.4,19.6z"/>
			<path class="st1" d="M674.9,16.2c0,0.5-0.1,1.1-0.1,1.7c-0.6,0-1.1,0-1.7,0c0-0.5,0-1.1,0-1.7C673.7,16.2,674.3,16.2,674.9,16.2
				C674.9,16.2,674.9,16.2,674.9,16.2z"/>
			<path class="st1" d="M698.3,43.1c0.5,0,1.1-0.1,1.7-0.1c0,0.6,0,1.1,0,1.7c-0.5,0-1.1,0.1-1.7,0.1c0,0,0,0,0,0
				C698.3,44.2,698.3,43.7,698.3,43.1L698.3,43.1z"/>
			<path class="st1" d="M685.5,24.9c0.6,0,1.2,0,1.8,0c0,0.6,0,1.2,0,1.8c0,0,0,0,0,0c-0.6,0-1.2,0-1.8,0l0,0
				C685.6,26.1,685.6,25.5,685.5,24.9C685.6,24.9,685.5,24.9,685.5,24.9z"/>
			<path class="st1" d="M658.6,28.4c0.6,0,1.2,0,1.8,0c0,0.6,0,1.2,0,1.9c0.6,0,1.1,0.1,1.6,0.1c0,0.5,0,1.1,0,1.7
				c-0.5,0-1,0.1-1.7,0.1c0,0.6,0,1.2,0,1.7c0,0,0,0,0,0c-0.7,0-1.3,0-2,0l0,0c0-1.5,0.1-3,0.1-4.4
				C658.6,29.1,658.6,28.7,658.6,28.4z"/>
			<path class="st1" d="M665.6,16.1c0.7,0,1.3,0,2,0c-0.1,0.6-0.1,1.1-0.2,1.7c-0.6,0-1.1,0-1.7,0C665.7,17.3,665.7,16.7,665.6,16.1
				z"/>
			<path class="st1" d="M660.4,33.9c0.5,0,1.1,0,1.8,0c0,0.6,0,1.2,0,1.8c0,0,0,0,0,0c-0.6,0-1.1,0.1-1.7,0.1
				C660.4,35,660.4,34.4,660.4,33.9L660.4,33.9z"/>
			<path class="st1" d="M660.4,28.4c0-0.6,0-1.2,0-1.8c0.5,0,1.1,0.1,1.7,0.1c0,0.6,0,1.1,0,1.8C661.5,28.5,660.9,28.4,660.4,28.4z"
				/>
			<path class="st1" d="M665.5,26.6c0.1,0.6,0.1,1.2,0.2,1.9c-0.7,0-1.2,0-1.8,0c0-0.5,0-1.1,0-1.6
				C664.5,26.7,665.1,26.7,665.5,26.6C665.6,26.6,665.5,26.6,665.5,26.6z"/>
			<path class="st1" d="M667.6,23.1c-0.6,0-1.1,0-1.9,0c0-0.5,0-1-0.1-1.6c0.7,0,1.3,0.1,1.9,0.1c0,0,0,0,0,0
				C667.6,22.1,667.6,22.6,667.6,23.1L667.6,23.1z"/>
			<path class="st1" d="M651.4,60.9c0-3,0-5.9,0-8.9c3,0,5.9,0,8.8,0c0,2.9,0,5.9,0,8.9C657.3,60.9,654.4,60.9,651.4,60.9z
				 M653.2,59.2c1.6,0,3.2,0,4.7,0c0.2,0,0.6-0.3,0.6-0.5c0.1-1.6,0-3.2,0-4.8c-1.9,0-3.6,0-5.3,0C653.2,55.6,653.2,57.3,653.2,59.2
				z"/>
			<path class="st1" d="M651.4,21.5c0-3,0-6,0-9c3,0,5.8,0,8.8,0c0,3,0,5.9,0,9C657.4,21.5,654.4,21.5,651.4,21.5z M658.5,19.7
				c0-1.8,0-3.5,0-5.3c-1.8,0-3.5,0-5.2,0c0,1.8,0,3.5,0,5.3C655,19.7,656.7,19.7,658.5,19.7z"/>
			<path class="st1" d="M691,21.4c0-3,0-5.9,0-8.9c3,0,5.9,0,8.9,0c0,3,0,5.9,0,8.9C697,21.4,694.1,21.4,691,21.4z M692.9,14.4
				c0,1.8,0,3.5,0,5.2c1.8,0,3.5,0,5.3,0c0-1.8,0-3.5,0-5.2C696.3,14.4,694.6,14.4,692.9,14.4z"/>
			<path class="st1" d="M674.9,59.3c-0.6,0-1.2,0-1.8,0c0-0.7,0-1.3,0-2c0.6,0,1.2,0,1.8,0C674.9,57.9,674.9,58.6,674.9,59.3z"/>
			<path class="st1" d="M667.6,55.6c0-0.6,0-1.2,0-1.8c0.5,0,1.1,0,1.7,0c0,0.6,0,1.1,0,1.8C668.7,55.6,668.2,55.6,667.6,55.6z"/>
			<path class="st1" d="M658.4,37.6c-0.6,0-1.2,0-1.8,0c0-1.2,0-2.4,0-3.7c0.7,0,1.3,0,1.8,0c0,0,0,0,0,0
				C658.4,35.1,658.4,36.4,658.4,37.6L658.4,37.6z"/>
			<path class="st1" d="M656.7,37.6c0,0.5,0,1.1,0,1.7c-0.6,0-1.2,0.1-1.8,0.1c0-0.6,0-1.1,0-1.9C655.6,37.5,656.1,37.6,656.7,37.6z
				"/>
			<path class="st1" d="M653.2,33.9c0-0.6,0-1.2,0-1.8c0.5,0,1.1,0,1.7,0c0,0.6,0,1.1,0,1.8C654.3,33.9,653.7,33.9,653.2,33.9z"/>
			<path class="st1" d="M663.9,44.8c-0.6,0-1.2,0-1.8,0c0,0,0,0,0,0c0-0.6,0-1.2,0-1.8l0,0c0.6,0,1.1-0.1,1.7-0.1
				C663.9,43.7,663.9,44.3,663.9,44.8L663.9,44.8z"/>
			<path class="st1" d="M660.4,46.6c0-0.6,0-1.2,0-1.8c0,0,0,0,0,0c0.6,0,1.2,0,1.8,0c0,0,0,0,0,0c0,0.5,0,1.1,0,1.8
				C661.5,46.6,660.9,46.6,660.4,46.6z"/>
			<path d="M680.3,26.6c0.5,0,1.1,0.1,1.7,0.1c0,0.5,0.1,1,0.1,1.6c1.2,0,2.3,0,3.5,0c0,1.2,0,2.4,0,3.6c0.6,0,1.1,0.1,1.7,0.1
				c0,2.3,0,4.7,0,7.1c-1.1,0-2.2,0-3.4,0c0-0.6,0-1.1,0-1.7c0.6,0,1.1-0.1,1.7-0.1c0-0.6,0-1.1,0-1.7c-0.5,0-1.1-0.1-1.7-0.1
				c0-0.6-0.1-1.1-0.1-1.7c-0.6,0-1.1-0.1-1.7-0.1c0-0.5,0-1,0-1.7c0.5,0,1-0.1,1.6-0.1c0-0.5,0-1.1,0-1.7c-1.1,0-2.2,0-3.4,0
				c-0.1,0.3-0.1,0.6-0.2,1.1c-0.5-0.5-1-0.9-1.4-1.3l0,0c0.5,0,0.9,0,1.7,0C680.3,29.1,680.3,27.8,680.3,26.6z"/>
			<path d="M669.8,42.4c1.3-2.1,0.3-4,0.3-5.9c-0.1-3.3,2.8-5.9,6.1-5.7c3.3,0.2,5.7,3.2,5.3,6.5c-0.4,3.3-3.6,5.6-6.8,4.8
				c-1.4-0.4-2.6-0.3-3.9,0.1C670.5,42.3,670.3,42.3,669.8,42.4z M671.8,40.6c0.9,0.2,1.9,0.3,2.9,0.6c2,0.5,4.2-0.5,5.2-2.4
				c1-1.9,0.6-4.2-0.9-5.6c-1.6-1.5-3.9-1.7-5.8-0.5c-1.8,1.2-2.6,3.4-1.9,5.5C671.6,39,671.6,39.8,671.8,40.6z"/>
			<path d="M663.9,44.8c0-0.6,0-1.1,0-1.8c-0.6,0-1.2,0.1-1.7,0.1c0-0.7,0-1.3,0-2l0,0c1.7,0,3.5,0,5.3,0c0,1.2,0,2.4,0,3.7
				C666.2,44.8,665.1,44.8,663.9,44.8z"/>
			<path d="M658.4,37.6c0-1.3,0-2.5,0-3.8c0.7,0,1.3,0,2,0c0,0.6,0,1.1,0,1.8c0.6,0,1.2-0.1,1.7-0.1c0,0.6,0,1.2,0,1.8
				C660.8,37.5,659.6,37.6,658.4,37.6z"/>
			<path d="M678.7,30.3c-0.2,0-0.4,0.1-0.6,0c-2.4-0.8-4.6-0.4-6.7,1.3c0-0.4-0.1-0.8-0.1-1.2c1.5,0.3,2.2-0.2,1.8-1.7
				c1.8,0,3.5,0,5.2,0C678.4,29.2,678.5,29.7,678.7,30.3C678.6,30.3,678.7,30.3,678.7,30.3z"/>
			<path d="M667.6,37.6c-1.2-0.1-2.4-0.1-3.7-0.2c0-0.7,0-1.3,0-1.9c0,0,0,0,0,0c1.1,0.1,2.3,0.1,3.5,0.2
				C667.5,36.4,667.6,37,667.6,37.6C667.6,37.6,667.6,37.6,667.6,37.6z"/>
			<path d="M696.2,43.2c-1.1-0.1-2.2-0.2-3.4-0.2c0-0.6,0-1.1,0-1.8c1.2,0,2.3,0,3.6,0C696.3,41.9,696.3,42.5,696.2,43.2
				C696.2,43.2,696.2,43.2,696.2,43.2z"/>
			<path d="M696.3,30.4c0,0.6,0,1.1,0,1.6c-1.2,0-2.3,0-3.4,0c0-0.5,0-1.1,0-1.6C694,30.4,695.1,30.4,696.3,30.4z"/>
			<path d="M698.3,43.1c0,0.6,0,1.2,0,1.8c-0.6,0-1.1,0-1.7,0c-0.1-0.6-0.2-1.2-0.3-1.7c0,0,0,0,0,0
				C696.9,43.1,697.6,43.1,698.3,43.1z"/>
			<path d="M685.5,26.6c0.6,0,1.2,0,1.8,0c0,0.6,0,1.1,0,1.9c-0.6,0-1.2-0.1-1.8-0.1C685.5,27.8,685.5,27.2,685.5,26.6z"/>
			<path d="M662.2,41.1c-0.5,0-1.1,0-1.7,0c0-0.6,0-1.1,0-1.7c0.5,0,1,0,1.7,0C662.1,40,662.1,40.6,662.2,41.1
				C662.1,41.1,662.2,41.1,662.2,41.1z"/>
			<path d="M662.2,44.8c-0.6,0-1.2,0-1.8,0c0-0.6,0-1.1,0-1.8c0.6,0,1.2,0,1.8,0C662.2,43.7,662.2,44.2,662.2,44.8z"/>
			<path d="M667.6,37.6c1.6-0.3,1.8-0.1,1.6,1.6c-0.5,0-1,0-1.7,0C667.6,38.6,667.6,38.1,667.6,37.6
				C667.6,37.6,667.6,37.6,667.6,37.6z"/>
			<path d="M689.3,51.9c0-0.6,0-1.1,0-1.7c0.6,0,1.1,0,1.7,0c0,0.6,0,1.1,0,1.7C690.4,51.9,689.9,51.9,689.3,51.9z"/>
			<path d="M685.6,24.9c0,0.6,0,1.2,0,1.8c-0.5,0-1.1,0-1.7,0c0-0.6,0-1.1,0-1.8C684.4,24.9,685,24.9,685.6,24.9z"/>
			<path d="M678.2,21.7c0.6-0.1,1.2-0.2,1.9-0.2c0,0.6,0,1,0,1.6c-0.5,0-1.1,0-1.6,0C678.4,22.6,678.3,22.2,678.2,21.7
				C678.3,21.7,678.2,21.7,678.2,21.7z"/>
			<path d="M683.9,21.7c0,0.4-0.1,0.8-0.2,1.3c-0.5,0-1.1,0-1.6,0c0-0.5,0-0.9,0-1.6C682.7,21.6,683.3,21.7,683.9,21.7
				C683.9,21.7,683.9,21.7,683.9,21.7z"/>
			<path d="M667.6,23.2c0-0.5,0-1,0-1.6c0.6,0,1.2,0,1.8,0c0,0.5-0.1,0.9-0.1,1.4C668.7,23.1,668.2,23.1,667.6,23.2z"/>
			<path d="M653.2,59.2c0-1.9,0-3.6,0-5.3c1.8,0,3.5,0,5.3,0c0,1.6,0,3.2,0,4.8c0,0.2-0.4,0.5-0.6,0.5
				C656.4,59.2,654.8,59.2,653.2,59.2z"/>
			<path d="M658.5,19.7c-1.8,0-3.5,0-5.2,0c0-1.7,0-3.5,0-5.3c1.7,0,3.4,0,5.2,0C658.5,16.2,658.5,17.9,658.5,19.7z"/>
			<path d="M692.9,14.4c1.8,0,3.5,0,5.3,0c0,1.8,0,3.4,0,5.2c-1.8,0-3.5,0-5.3,0C692.9,17.9,692.9,16.2,692.9,14.4z"/>
			<path class="st1" d="M671.8,40.6c-0.1-0.8-0.2-1.6-0.5-2.5c-0.7-2.1,0.1-4.3,1.9-5.5c1.8-1.2,4.1-1,5.8,0.5
				c1.5,1.4,1.9,3.7,0.9,5.6c-1,1.9-3.1,2.8-5.2,2.4C673.7,40.9,672.7,40.8,671.8,40.6z M677.5,39.2c0.2-0.1,0.6-0.4,1-0.8
				c0.1-0.1-0.1-0.6-0.2-0.7c-0.4-0.2-1.1-0.4-1.3-0.2c-0.6,0.7-1.1,0.2-1.5-0.1c-0.5-0.4-1.3-0.7-0.8-1.7c0.2-0.4-0.2-1-0.4-1.5
				c0-0.1-0.6-0.2-0.7-0.1c-0.3,0.4-0.5,0.8-0.7,1.3c0,0.1,0,0.1,0,0.2C673.1,37.1,675.6,39.2,677.5,39.2z"/>
			<path d="M677.5,39.2c-1.9,0-4.4-2.2-4.6-3.7c0-0.1,0-0.2,0-0.2c0.2-0.4,0.4-0.9,0.7-1.3c0.1-0.1,0.6,0,0.7,0.1
				c0.2,0.5,0.5,1.1,0.4,1.5c-0.5,1,0.3,1.3,0.8,1.7c0.4,0.4,0.9,0.8,1.5,0.1c0.2-0.2,0.9,0,1.3,0.2c0.2,0.1,0.3,0.6,0.2,0.7
				C678.1,38.8,677.7,39.1,677.5,39.2z"/>
		</g>
	</g>
</g>
</svg>
