<svg width="29" height="26" viewBox="0 0 29 26" fill="none" xmlns="http://www.w3.org/2000/svg">
<path d="M7.09007 19.7188C6.85548 19.6755 6.6678 19.6323 6.43321 19.5458C6.19862 19.4593 6.01095 19.416 5.82328 19.3295C5.40101 19.1565 5.02567 18.9403 4.65032 18.6808C3.89963 18.205 3.2897 17.5563 2.82052 16.7778C2.35134 16.0425 2.06983 15.1775 2.02291 14.3557C1.97599 13.9232 2.02291 13.534 2.06983 13.1014C2.11674 12.8852 2.16366 12.7122 2.21058 12.4959C2.2575 12.2797 2.35134 12.1067 2.39825 11.8904L2.44517 12.4959C2.44517 12.7122 2.49209 12.8852 2.53901 13.1014C2.58593 13.4907 2.67976 13.88 2.7736 14.226C2.96127 14.9612 3.24278 15.6532 3.66504 16.302C4.08731 16.9508 4.55649 17.5563 5.16642 18.1185C5.44793 18.378 5.77636 18.6375 6.10479 18.897C6.24554 19.0268 6.43321 19.1565 6.62089 19.2863L7.09007 19.7188ZM6.94931 21.2758C6.80856 21.3623 6.62089 21.4056 6.43321 21.4488C6.24554 21.4921 6.10479 21.5353 5.91711 21.5353C5.58869 21.5786 5.21334 21.6218 4.838 21.5786C4.13422 21.5353 3.38353 21.3623 2.7736 21.0596C2.11674 20.7568 1.55373 20.2811 1.17838 19.7188C0.990709 19.4593 0.803036 19.1565 0.662282 18.8538C0.615364 18.724 0.568446 18.551 0.521527 18.378C0.521527 18.2483 0.474609 18.1185 0.474609 17.9455C0.615364 18.0753 0.7092 18.205 0.803036 18.2915C0.943791 18.4213 1.03763 18.551 1.13146 18.6375C1.36605 18.8538 1.55373 19.07 1.78832 19.243C2.2575 19.6323 2.72668 19.9783 3.2897 20.2378C3.8058 20.4973 4.41573 20.7136 4.97875 20.8866C5.26026 20.9731 5.58869 21.0163 5.91711 21.1028C6.05787 21.1461 6.24554 21.1461 6.3863 21.1893C6.62089 21.2326 6.76164 21.2326 6.94931 21.2758ZM17.5528 0.25601C17.7874 0.299261 17.9751 0.385762 18.2097 0.472263C18.4443 0.558765 18.6319 0.645266 18.8196 0.731767C19.2419 0.94802 19.6172 1.16427 19.9926 1.42378C20.7432 1.94278 21.3532 2.63479 21.7754 3.41331C22.1977 4.19182 22.4323 5.05683 22.4323 5.87859C22.4323 6.3111 22.3854 6.70035 22.2915 7.13286C22.2446 7.34911 22.1977 7.52212 22.1039 7.73837C22.01 7.95462 21.9631 8.12762 21.8693 8.30063L21.8224 7.69512C21.8224 7.47887 21.8224 7.30586 21.7754 7.08961L21.6347 5.92184C21.4939 5.18658 21.2124 4.45132 20.8371 3.75931C20.4617 3.0673 19.9926 2.46179 19.4295 1.89953C19.148 1.59678 18.8196 1.33728 18.5381 1.03452C18.3973 0.90477 18.2097 0.775018 18.022 0.645266L17.5528 0.25601ZM21.6347 0.0830078C21.8224 0.126258 21.9631 0.169509 22.1039 0.25601C22.2446 0.299261 22.4323 0.385762 22.5731 0.472263C22.8546 0.645266 23.1361 0.818269 23.4176 1.03452C23.9337 1.46703 24.3559 1.98604 24.5905 2.59154C24.872 3.19705 24.9659 3.84581 24.872 4.49457C24.8251 4.79733 24.7313 5.10008 24.6375 5.40283C24.5905 5.53259 24.4967 5.70559 24.4498 5.83534C24.3559 5.96509 24.309 6.09484 24.1683 6.2246V5.35958C24.1683 5.05683 24.1214 4.79733 24.1214 4.53782C24.0275 3.97556 23.9337 3.45656 23.6991 2.9808C23.4645 2.46179 23.183 2.02929 22.8546 1.55353C22.6669 1.33728 22.4792 1.07777 22.2915 0.861519C22.1977 0.731767 22.1039 0.645266 21.9631 0.515514C21.8693 0.299261 21.7285 0.169509 21.6347 0.0830078Z" fill="#2A292D"/>
<path d="M4.22906 6.52807C3.29069 6.91732 2.96227 7.95534 3.38453 8.82035L9.29622 20.1953L12.5805 18.768L6.6688 7.34983C6.24654 6.48481 5.16742 6.09556 4.22906 6.52807ZM19.759 15.5674L23.2309 14.0537L16.4747 1.07849C16.0055 0.213474 14.8795 -0.175782 13.8942 0.256724C12.9558 0.689231 12.5336 1.72725 13.0027 2.63551L19.759 15.5674Z" fill="#38A73B"/>
<path d="M13.9378 0.213798C13.8439 0.257049 13.7501 0.300299 13.6562 0.3868C14.5477 0.170547 15.4861 0.559803 15.9083 1.33831L22.6645 14.3135L23.2745 14.054L16.5183 1.07881C16.0491 0.170548 14.923 -0.218708 13.9378 0.213798Z" fill="#2A292D"/>
<path d="M12.5769 18.7256L16.1896 17.1253L9.29265 3.89059C8.82347 2.98233 7.6036 2.54982 6.61832 2.98233C5.63303 3.41483 5.21077 4.53935 5.67995 5.44761L12.5769 18.7256Z" fill="#38A73B"/>
<path d="M6.62135 3.02539C6.52752 3.06864 6.43368 3.11189 6.33984 3.19839C7.23129 2.98214 8.26349 3.37139 8.68575 4.19315L12.9553 12.454L13.9875 13.0163L9.29569 3.93365C8.8265 2.98214 7.65355 2.59288 6.62135 3.02539Z" fill="#2A292D"/>
<path d="M15.6277 16.0859L19.2404 14.4856L12.3434 1.25095C11.8742 0.342687 10.6544 -0.0898195 9.6691 0.385937C8.68382 0.818444 8.26155 1.94296 8.73073 2.85122L15.6277 16.0859Z" fill="#38A73B"/>
<path d="M9.67128 0.343746C9.57744 0.386997 9.48361 0.473498 9.38977 0.516749C10.2812 0.300495 11.3134 0.689751 11.7357 1.51151L16.5682 10.8536L17.6004 11.4159L12.3456 1.25201C11.8764 0.300496 10.6566 -0.0887602 9.67128 0.343746ZM4.22877 6.52859C4.13494 6.57184 4.0411 6.61509 3.94727 6.70159C4.79179 6.48533 5.68324 6.87459 6.05858 7.6531L9.57744 14.4435L10.6096 15.0057L6.66852 7.3936C6.24625 6.48533 5.16714 6.09608 4.22877 6.52859Z" fill="#2A292D"/>
<path d="M28.0606 5.23044C26.7938 4.32218 24.7294 5.31694 23.6972 8.43099C22.9935 10.5935 22.8996 11.2423 21.3983 11.891L20.5537 10.2908C20.5537 10.2908 7.22898 16.2161 7.74508 17.1676C7.74508 17.1676 9.3403 21.7522 12.0616 23.8715C16.0965 27.072 25.5271 23.6552 25.9493 15.3943C26.1839 10.5935 29.4213 6.2252 28.0606 5.23044Z" fill="#38A73B"/>
<path d="M28.0643 5.23147C27.8297 5.05846 27.5482 4.97196 27.2667 4.92871C27.3136 4.97196 27.4075 4.97196 27.4544 5.01521C28.8619 6.00998 27.4075 8.30226 26.6099 10.3783C25.953 12.0218 25.39 13.7086 25.4838 15.3521C25.8592 22.5317 18.0238 25.9485 13.332 24.651C17.93 26.4243 26.4691 23.0507 26.0938 15.5684C25.9999 13.9248 26.516 12.3246 27.2198 10.5945C27.9705 8.51851 29.425 6.22623 28.0643 5.23147Z" fill="#2A292D"/>
<path d="M21.8234 11.7197C18.9145 12.0225 14.645 15.8718 17.6477 20.0671C15.4426 15.8285 19.0553 12.974 21.3543 11.9792C21.5889 11.8062 21.8234 11.7197 21.8234 11.7197Z" fill="#2A292D"/>
</svg>
